<?xml version="1.0" standalone="no"?><!DOCTYPE svg PUBLIC "-//W3C//DTD SVG 1.1//EN" "http://www.w3.org/Graphics/SVG/1.1/DTD/svg11.dtd"><svg class="icon" width="64px" height="63.94px" viewBox="0 0 1025 1024" version="1.1" xmlns="http://www.w3.org/2000/svg"><path fill="#000000" d="M954.5 677h-42.42A150 150 0 0 0 804.5 569.42V264.5h151.2525a37.5 37.5 0 0 0 0-75H804.5V69.5a37.5 37.5 0 0 0-75 0v120H453.2525a37.4775 37.4775 0 0 0-31.56 17.4525L334.1525 294.5H69.5a37.5 37.5 0 0 0 0 75h150v307.5H69.5a37.5 37.5 0 0 0 0 75h150v202.5a37.5 37.5 0 0 0 75 0V752h327.42A150 150 0 0 0 729.5 859.58V954.5a37.5 37.5 0 0 0 75 0V859.58A150 150 0 0 0 912.08 752H954.5a37.5 37.5 0 0 0 0-75zM294.5 369.5h60a37.5525 37.5525 0 0 0 34.9425-24.225l80.775-80.775H729.5v304.92A150 150 0 0 0 621.92 677H294.5z m510 409.8825a75.345 75.345 0 0 1-17.175 7.2525c-0.525 0.15-1.065 0.2775-1.5975 0.4125a74.235 74.235 0 0 1-7.2375 1.485c-0.7575 0.1125-1.515 0.2475-2.28 0.345a68.43 68.43 0 0 1-18.42 0c-0.765-0.0975-1.5225-0.225-2.28-0.345a74.235 74.235 0 0 1-7.2375-1.485c-0.5325-0.135-1.0725-0.2625-1.605-0.4125A75.015 75.015 0 1 1 804.5 779.3825z"  /></svg>