<?xml version="1.0" standalone="no"?><!DOCTYPE svg PUBLIC "-//W3C//DTD SVG 1.1//EN" "http://www.w3.org/Graphics/SVG/1.1/DTD/svg11.dtd"><svg t="1592879199345" class="icon" viewBox="0 0 1024 1024" version="1.1" xmlns="http://www.w3.org/2000/svg" p-id="2938" xmlns:xlink="http://www.w3.org/1999/xlink" width="16" height="16"><defs><style type="text/css"></style></defs><path d="M512 0C294.912 0 118.272 169.984 118.272 378.88c0 69.632 19.968 138.24 57.344 197.12l309.248 433.152c6.144 9.216 16.384 14.848 27.136 14.336 10.752 0 20.992-5.632 27.136-14.336l310.272-434.688C886.272 516.096 906.24 448.512 906.24 378.88c-0.512-208.896-177.152-378.88-394.24-378.88z" fill="#0078AD" p-id="2939"></path><path d="M536.064 154.624c-14.336 0-26.112 11.776-26.112 26.112s11.776 26.112 26.112 26.112 26.112-11.776 26.112-26.112c0-6.656-2.56-13.312-7.68-18.432-5.12-4.608-11.776-7.68-18.432-7.68m-107.008 38.4h19.456l-24.576 24.576c-0.512 0 5.12-24.576 5.12-24.576z m52.736 53.248l-18.944 29.184-12.8-10.24 31.744-18.944zM481.28 304.64L554.496 363.52 486.4 411.136h191.488L588.8 339.968l-25.6 15.872-76.8-61.44 34.816-65.024c2.56-5.12 2.56-10.752-0.512-15.36l-28.16-41.984c-3.072-4.096-7.68-6.656-12.288-6.656h-61.44c-6.656 0-12.8 4.608-14.336 11.264l-11.776 42.496-8.704-7.168c-1.024-1.024-2.56-1.536-4.096-1.024-2.048 0.512-4.096 2.048-4.608 4.096-0.512 2.048 0 4.608 2.048 5.632l12.8 10.24c0 4.096 1.536 7.68 4.096 10.752 1.024 1.024 2.048 2.048 3.072 2.56L390.144 250.88c-3.072 3.072-4.608 7.168-4.608 11.264 0 4.096 0.512 61.44 0.512 66.048l-16.384 62.464c-1.536 5.632 0 11.776 4.096 15.872s10.24 5.632 15.872 4.096c5.632-1.536 9.728-6.144 11.264-11.776l16.896-64.512c0.512-1.536 0.512-2.56 0.512-4.096 0-1.536 0-30.72-0.512-49.152L455.68 327.68l-31.744 61.44c-2.56 5.12-2.56 11.264 0.512 15.872s8.704 7.68 14.336 7.168 10.752-3.584 13.312-8.704l35.84-70.656c3.072-5.632 2.048-12.288-2.048-17.408L479.744 307.2c0.512-0.512 1.024-1.536 1.536-2.56z" fill="#FFFFFF" p-id="2940"></path><path d="M550.912 455.168H314.88v-40.96c0-1.536-1.536-3.072-3.072-3.072h-39.424c-1.536 0-3.072 1.536-3.072 3.072v204.288c0 1.536 1.536 3.072 3.072 3.072h39.424c1.536 0 3.072-1.536 3.072-3.072v-31.232h394.24v31.232c0 1.536 1.536 3.072 3.072 3.072h39.424c1.536 0 3.072-1.536 3.072-3.072v-204.8c0-1.536-1.536-3.072-3.072-3.072h-39.424c-1.536 0-3.072 1.536-3.072 3.072v40.96h-61.952" fill="#FFFFFF" p-id="2941"></path><path d="M581.632 494.08l95.744-62.976H485.888l95.744 62.976z" fill="#0078AD" p-id="2942"></path></svg>