<?xml version="1.0" standalone="no"?><!DOCTYPE svg PUBLIC "-//W3C//DTD SVG 1.1//EN" "http://www.w3.org/Graphics/SVG/1.1/DTD/svg11.dtd"><svg t="1591950283509" class="icon" viewBox="0 0 1025 1024" version="1.1" xmlns="http://www.w3.org/2000/svg" p-id="1542" xmlns:xlink="http://www.w3.org/1999/xlink" width="16.015625" height="16"><defs><style type="text/css"></style></defs><path d="M1006.772 935.225a50.696 50.696 0 1 1-71.547 71.547L511.052 582.599 86.879 1006.772a49.47 49.47 0 0 1-71.547 0 49.52 49.52 0 0 1 0-71.547l424.173-424.173L15.332 86.879a49.47 49.47 0 0 1 0-71.547 49.52 49.52 0 0 1 71.547 0l424.173 424.173L935.225 15.332a49.47 49.47 0 0 1 71.547 0 49.52 49.52 0 0 1 0 71.547L582.599 511.052z m0 0" p-id="1543"></path></svg>