<?xml version="1.0" standalone="no"?><!DOCTYPE svg PUBLIC "-//W3C//DTD SVG 1.1//EN" "http://www.w3.org/Graphics/SVG/1.1/DTD/svg11.dtd"><svg class="icon" width="64px" height="64.00px" viewBox="0 0 1024 1024" version="1.1" xmlns="http://www.w3.org/2000/svg"><path fill="#000000" d="M976.69501407 319.89412409l-273.78680576-272.11007048c-12.33597606-12.21620838-27.30681962-24.67195212-45.27183381-24.6719522-17.24641422 0-31.13935792 11.61737612-41.31953096 21.67778478-194.62097889 190.66867607-382.53501981 377.38504941-574.161828 570.92812513-28.38472268 28.14518729-28.38472268 57.96710981 0.11976767 86.23206482 62.99731252 60.60197729 125.8748605 123.71905757 186.71637331 184.91987027 31.73819012 31.85795783 63.5961479 63.83568018 95.693638 95.8134057 8.98250549 8.98250549 21.67778156 19.16268176 40.36139563 19.16267862 19.52198175 0 31.2591224-10.06040857 40.84046328-18.08477869 2.27556749-1.91626753 4.43137047-3.83253506 8.503441-6.94647343l566.85605466-563.74211951c28.02541956-38.32536035 27.18705513-58.20664211-4.55113502-93.17853501z m-687.70071247 419.78248022c11.25807617 0 20.12081393-7.18600571 27.18705193-14.37201136 38.44512809-38.20559583 38.44512809-47.7869367 0-86.11229711l-74.37515645-73.89608873c-3.3534706-3.3534706-4.79067043-5.14997042-5.38950264-5.14997046h-0.11976776c0.47906765-0.9581354 1.91626753-2.87440291 5.5092704-6.46740568l4.07207051-4.07207053c8.50344099-8.38367327 17.24641422-17.24641422 18.68361407-18.20454641 3.11393516 0.9581354 11.85690842 9.82087312 20.36034942 18.20454641l4.07207052 4.07207053c4.19183503 4.0720705 8.62320554 8.26390558 13.17434058 12.45574375 7.7848379 7.18600571 16.04874663 14.73131129 21.31848469 21.67778157 9.34180544 11.97667609 22.39638465 25.74985205 40.12186339 25.74985203 17.60571422 0 30.66029022-13.77317597 39.76256347-25.27078437 9.10227324-10.77900848 18.56384639-22.03708468 16.76734333-36.28932828-1.55696755-12.5755083-11.97667609-21.3184816-18.92314635-26.2289197-6.94647344-5.50927036-14.01271138-12.5755083-21.07894933-19.52198179-7.90460559-7.7848379-15.80921118-15.56967895-22.39638458-20.83941389-10.41970857-10.29994082-21.3184816-21.07894933-22.15684926-24.07311677 0.9581354-3.83253506 13.05457601-14.85107899 24.55218442-25.39055204 1.19766756-0.83836763 2.63486748-1.91626753 3.71277058-2.7546384 0.47906765 0.35929995 1.07789989 0.9581354 1.79650303 1.67673528 13.53364368 14.97084357 27.90565503 29.34285488 42.27766314 43.59509853 13.89294364 13.77317597 27.7858873 27.54635506 41.55906322 42.75673404 11.85690842 11.85690842 22.99521687 21.67778156 37.96606359 21.6777815 15.56967895 0 27.06728737-11.13830845 34.49282535-19.52198169l3.95230277-4.67090275c14.85107899-16.88711105 33.29515769-37.84629587-2.99416741-69.94378598-16.2882789-12.81504381-30.66029022-27.54635506-45.87066921-43.23579851-11.73714068-12.09644385-23.71381678-24.31265219-36.16956058-35.4509607-3.3534706-3.3534706-4.79067043-5.26973813-5.38950267-5.62903488 0.59883223-0.9581354 2.0360353-2.63486748 4.91043495-5.38950585l7.54530564-6.9464702c5.98833805-5.50927036 12.81504381-11.85690842 13.05457603-12.69527607 3.11393516 1.07789989 12.33597606 10.29994082 21.19871706 19.16267858l52.0985395 51.61947187c8.62320554 11.37784074 18.08477876 13.77317597 24.43241668 13.77317912 8.50344099 0 16.64757885-3.95230279 23.95335226-11.37784395 22.63591692-19.04291403 34.01375762-28.50448724 34.37305756-43.59509846 0.23953221-15.3301435-11.13830845-25.74985205-33.41492217-46.22996597-4.67090272-4.67090272-9.46157317-9.70110863-14.25224365-14.85107906-10.65924075-11.25807617-21.67778156-22.87544914-34.01376082-33.17539315-3.3534706-2.99416747-4.91043819-4.91043819-5.50927038-5.26973494 1.55696755-1.79649982 5.62903811-4.55113823 8.26390555-6.34763801l5.26973819-3.7127705c4.67090272-3.47323511 8.14413786-8.0243733 11.25807618-12.09644068 1.79649982-2.27556749 4.67090272-5.86857034 3.95230278-6.34763804 0 0 2.15580294 0.59883223 6.82670249 5.26973494l88.14833238 87.54950017c9.94064087 12.33597606 20.00104944 18.44408186 30.54052569 18.44407865 13.41387596 0 22.27661695-9.58134092 28.7440195-16.64757883 2.75463517-2.87440291 5.62903811-5.98833805 8.26390556-7.54530563 9.34180544-6.10810576 21.79754922-16.16851111 22.7556846-31.37889016 0.59883223-11.49760849-5.26973813-22.51614915-18.80338184-34.01375757-27.7858873-22.27661695-50.18227197-46.94856907-76.05188853-75.45305632l-2.9941706-3.23370291c-2.87440291-2.87440291-6.70693799-5.62903811-10.41970536-8.26390553-1.07789989-0.71859993-2.39533529-1.6767353-3.59300285-2.63486751 9.10227324-14.25224362 16.88711105-19.88128173 27.30681969-19.88128171 8.74297322 0 14.25224362 2.51510294 22.15684917 10.41970535l177.85363231 176.77573243c18.68361413 20.95918161 18.44408186 29.34285488-2.27556749 47.66716904L384.32863963 858.12592373c-18.2045464 18.08477876-26.10915198 17.96501415-44.31370164 0l-178.45246451-177.49433237c-19.64174946-19.52198175-15.68944347-27.18705513-7.30577337-37.00792501 9.10227324-12.69527604 12.45574381-13.77317597 13.05457603-13.89294367 0.11976774 0.11976774 3.59300282 0.47906765 11.25807617 9.22203778 13.6534114 15.0906113 27.90565503 29.2230872 42.27766315 43.47533393 14.01271138 13.89294364 27.90565503 27.7858873 41.67883099 42.99626629 7.18600571 7.18600571 15.21037895 14.25224362 26.46845515 14.25224363z m0 0"  /></svg>