<?xml version="1.0" standalone="no"?><!DOCTYPE svg PUBLIC "-//W3C//DTD SVG 1.1//EN" "http://www.w3.org/Graphics/SVG/1.1/DTD/svg11.dtd"><svg t="1593504818361" class="icon" viewBox="0 0 1024 1024" version="1.1" xmlns="http://www.w3.org/2000/svg" p-id="2215" xmlns:xlink="http://www.w3.org/1999/xlink" width="16" height="16"><defs><style type="text/css"></style></defs><path d="M512 0C294.4 0 117.76 169.984 117.76 378.88c0 69.632 19.968 138.24 57.344 197.12l309.248 433.152c6.144 9.216 16.384 14.848 27.136 14.336 10.752 0 20.992-5.632 27.136-14.336l310.272-434.688c36.864-58.368 56.832-126.464 56.832-195.584 0-208.896-176.64-378.88-393.728-378.88z" fill="#1DB3DB" p-id="2216"></path><path d="M703.488 616.448h-51.2V189.952c-0.512-3.072-3.072-6.144-6.144-6.144H360.448c-3.072 0.512-6.144 2.56-6.656 6.144v426.496h-33.28c-9.216 0.512-16.384 7.68-16.384 16.896 0 9.216 7.168 16.384 16.384 16.896h382.976c9.216-0.512 16.384-8.192 16.384-16.896-0.512-9.728-7.68-16.384-16.384-16.896z m-116.736-166.4l-84.48 116.736V496.64h-48.64l68.096-113.152v66.56h65.024z m16.896-116.736h-199.68V233.472h199.68v99.84z" fill="#FFFFFF" p-id="2217"></path></svg>