<?xml version="1.0" standalone="no"?><!DOCTYPE svg PUBLIC "-//W3C//DTD SVG 1.1//EN" "http://www.w3.org/Graphics/SVG/1.1/DTD/svg11.dtd"><svg t="1590375665007" class="icon" viewBox="0 0 1024 1024" version="1.1" xmlns="http://www.w3.org/2000/svg" p-id="1599" width="128" height="128" xmlns:xlink="http://www.w3.org/1999/xlink"><defs><style type="text/css"></style></defs><path d="M511.793104 0C294.55226 0 118.000971 170.068546 118.000971 379.033548 118.138902 448.82648 138.000922 517.240104 175.38014 576.136511l309.102686 433.378242c6.068951 9.103426 16.413753 14.620654 27.310278 14.482723 10.896525 0 21.241327-5.517228 27.310277-14.482723l310.068202-434.619618c36.965426-58.620545 56.689515-126.482447 56.689515-195.723656C905.585237 170.068546 728.896017 0 511.793104 0z" fill="#5262A6" p-id="1600"></path><path d="M703.516769 616.550204h-51.310218V189.792636c-0.275861-3.310337-3.034475-5.93102-6.344812-6.068951h-285.516538c-3.310337 0.275861-6.068951 2.758614-6.482742 6.206881V616.550204h-33.379228c-8.965495 0.275861-16.137891 7.586188-16.137892 16.689614 0 8.965495 7.172396 16.413753 16.137892 16.689614h383.033538c9.241357-0.275861 16.413753-7.99998 16.137892-17.103406-0.275861-8.965495-7.310327-15.999961-16.137892-16.275822zM586.965332 450.067856l-84.551515 116.551437v-69.930862h-48.689535l68.137763-113.2411v66.620525H586.965332z m16.551684-116.551437H403.79337v-99.999753H603.517016v99.999753z" fill="#FFFFFF" p-id="1601"></path></svg>