<?xml version="1.0" standalone="no"?><!DOCTYPE svg PUBLIC "-//W3C//DTD SVG 1.1//EN"
  "http://www.w3.org/Graphics/SVG/1.1/DTD/svg11.dtd">
<svg class="icon" width="64px" height="64.00px" viewBox="0 0 1024 1024" version="1.1"
     xmlns="http://www.w3.org/2000/svg">
  <path fill="#0c8fff"
        d="M644.65688972 872.74972543a115.00938887 115.00938887 0 0 1-20.85520243 19.71946074h41.53567524a119.22785551 119.22785551 0 0 1-20.68047281-19.71946074zM624.15114655 917.61773911h41.01148636v15.95029914h-41.01148636zM529.6599818 926.46653547c3.33233935-0.69891761 6.66467872-1.48520004 9.8098075-2.2839625v-11.30748846h-9.80980749zM529.61005892 876.08206478h9.8098084v11.04539404h-9.8098084z"/>
  <path fill="#0c8fff"
        d="M893.99574608 905.33675854h-102.3415062V53.89286356c0-6.16545173-6.41506522-12.34338439-12.80516946-12.34338439H209.09393237c-6.39010423 0-12.83013044 6.24033559-12.83013044 12.30594246V905.33675854H129.90407112A33.23602876 33.23602876 0 0 0 97.6789773 938.56030635a33.24850879 33.24850879 0 0 0 32.22509382 33.22354782h764.09167496a33.23602876 33.23602876 0 0 0 0-66.44709563z m-547.80163678 32.34990059l-5.22940066-6.85188839c11.39485329-8.41197228 19.19527277-20.41837836 23.48862328-35.84448861h-20.593108v-8.06251394h28.83035156v6.5773139q-6.31521946 29.19229084-26.49646618 44.18157704z m71.41440275 1.04837686q-21.2920256-17.2233267-30.92710347-38.02860625v35.93185343c0 6.12800979-2.89551619 9.28561952-8.58670282 9.28561951h-11.569582l-1.84713934-8.14987874q5.51645699 0.52418799 10.52120606 0.52418798c2.00938801 0 3.07024491-1.3104704 3.07024491-3.74420063v-69.34261181h8.41197319v18.19681969a98.04815571 98.04815571 0 0 0 6.40258427 14.81455655 125.92997615 125.92997615 0 0 0 17.87232143-19.45736722l6.75204352 4.99226903a133.90512527 133.90512527 0 0 1-20.85520243 20.85520242 87.45206578 87.45206578 0 0 0 26.02220017 26.54638815z m243.8598422-365.62127369L492.87944303 805.67859607v-139.53390807h-97.21195131l136.03932002-225.90015507h0.14976865v132.86922937z m-90.62215647 306.21327703l-6.24033559 4.2933505a115.03434986 115.03434986 0 0 0-7.97514911-13.72873866l6.40258427-4.03125697a104.98740891 104.98740891 0 0 1 7.81290043 13.46664513z m-67.90733375 55.46410451q-21.02993115-19.8442675-29.35453953-44.43119143v55.55146933h-8.58670191v-55.63883324a95.26496623 95.26496623 0 0 1-30.22818677 44.86801368l-4.73017457-7.80041948a84.00740064 84.00740064 0 0 0 28.13143394-37.0675942h-26.7835216v-7.97514912h33.56052612v-16.82394546h8.54925997v16.82394546h34.17207892v7.97514912h-27.45747733q8.28716554 20.89264436 28.39352749 37.24232383z m44.50607438 11.65694683h-7.97514911v-14.46509821c-6.66467872 1.74729447-13.57897093 3.24497455-20.76783671 4.64280976l-2.00938892-7.88778431 4.99226902-0.78628241v-51.86967072h-4.64280976v-7.65065175h35.39518449v7.71305467h-4.99226901v45.82902664c1.74729447-0.52418799 3.41970417-1.13574078 5.16699865-1.65992965v8.025072l-5.16699865 1.57256393z m44.78064979-0.08736483c-8.93616116-9.28561952-14.81455746-18.39651031-17.61022699-27.45747732-3.59443381 12.48067118-10.07190194 21.64148486-19.37000241 27.78197469l-4.99226901-6.66467781c9.11088989-5.60382181 14.97680614-14.62734688 17.78495752-27.25778669h-16.08758593v-7.97514913h17.26076864q0.39938123-4.73017457 0.52418797-9.72244358v-3.41970418h-16.47448621v-7.88778429h21.72884876a119.57731476 119.57731476 0 0 0 8.14987875-18.3091455l7.67561365 2.982881a121.06251389 121.06251389 0 0 1-7.48840307 15.42611026h11.65694682v7.88778429h-17.27324958v1.57256484q0 6.04064498-0.52418798 11.56958201h19.2826376v7.97514913h-16.9986751q3.41970417 13.4042413 18.39651031 27.34515151z m80.96211669-0.17472871h-8.06251392v-4.73017458h-40.97404442v4.73017458h-8.06251393v-36.3686775h57.09907227z m8.06251394-43.54506325a137.06273499 137.06273499 0 0 1-13.57897093-8.41197319v6.2403365h-46.06615829v-6.40258518a138.85995235 138.85995235 0 0 1-13.92843017 8.73647056l-4.38071532-8.06251394a126.56649084 126.56649084 0 0 0 38.29070069-29.52926915h6.12800979a125.59299785 125.59299785 0 0 0 38.0410863 29.42942339z m13.39176035-562.04208338h-398.63264994V141.20764165h398.67009187z"/>
  <path fill="#0c8fff" d="M529.61005892 894.65330382h9.8098084v10.69593567h-9.8098084z"/>
</svg>
