<?xml version="1.0" standalone="no"?><!DOCTYPE svg PUBLIC "-//W3C//DTD SVG 1.1//EN" "http://www.w3.org/Graphics/SVG/1.1/DTD/svg11.dtd"><svg t="1593504803601" class="icon" viewBox="0 0 1024 1024" version="1.1" xmlns="http://www.w3.org/2000/svg" p-id="1807" xmlns:xlink="http://www.w3.org/1999/xlink" width="16" height="16"><defs><style type="text/css"></style></defs><path d="M511.488 0C294.4 0 117.76 169.984 117.76 378.88c0 69.632 19.968 138.24 57.344 197.12l309.248 433.152c6.144 9.216 16.384 14.848 27.136 14.336 10.752 0 20.992-5.632 27.136-14.336l310.272-434.688c36.864-58.368 56.832-125.952 56.832-195.584-0.512-208.896-177.152-378.88-394.24-378.88z" fill="#17A5A1" p-id="1808"></path><path d="M574.976 450.048c-58.88 0-107.008-48.128-107.008-107.008 0-30.72 25.088-84.992 76.288-165.376l1.024-1.536 30.208-53.248 30.208 53.76v0.512c2.56 4.608 7.68 13.824 14.336 24.576 31.744 52.736 62.464 107.008 62.464 140.8 0 14.336-3.072 28.16-8.704 41.472-11.264 25.6-31.744 46.08-57.344 57.344-13.312 5.632-27.648 8.704-41.472 8.704z m0-266.752l-4.608 8.704-1.024 1.536C506.88 291.328 497.664 329.216 497.664 343.04c0 43.008 34.816 77.312 77.312 77.312 41.984 0 77.312-35.328 77.312-77.312 0-8.192-3.584-24.576-19.968-58.368-11.776-24.064-27.136-49.152-37.888-67.584-6.656-11.264-12.288-20.48-15.36-26.112l-4.096-7.68z m-148.48 268.288c-9.728 0-17.92-7.68-17.92-17.92 0-8.192 11.776-26.624 14.336-30.208l3.072-5.632 3.072 5.632c2.048 4.608 14.336 22.528 14.336 30.208 1.024 9.728-7.168 17.92-16.896 17.92z m-50.176-59.392c-7.68 0-14.336-6.144-14.336-14.336 0-6.656 9.728-21.504 11.776-24.576l2.56-4.608 2.56 4.608c1.536 3.584 11.776 17.92 11.776 24.576 0 7.68-6.656 14.336-14.336 14.336z" fill="#FFFFFF" p-id="1809"></path><path d="M556.544 300.544c-5.632 0-11.776 3.072-17.408 7.168L537.6 302.08h-13.312v78.336h14.336v-26.112c4.608 3.072 10.24 5.632 14.336 5.632 13.312 0 24.576-11.776 24.576-30.72 1.024-16.896-6.144-28.672-20.992-28.672z m-5.632 48.128c-3.072 0-5.632-1.536-10.24-4.608v-26.112c4.608-4.608 7.168-5.632 11.776-5.632 8.704 0 11.776 7.168 11.776 17.408 0 11.776-6.144 17.408-13.312 18.944z m40.96-68.096h14.336v30.72c4.608-4.608 10.24-8.704 17.408-8.704 11.776 0 17.408 8.704 17.408 23.04v36.352h-14.336v-33.28c0-8.704-3.072-11.776-8.704-11.776-4.608 0-7.168 3.072-11.776 5.632v39.424h-14.336V280.576zM275.456 452.096v141.312h64.512V452.096H275.456z m52.736 20.992H286.72v-8.704h41.472v8.704z m355.84-20.992v141.312h64.512V452.096h-64.512z m52.736 20.992h-41.472v-8.704h41.472v8.704z" fill="#FFFFFF" p-id="1810"></path><path d="M688.64 470.528c-0.512 0-40.448 0-93.184 0.512-7.68 0-15.36 10.24-23.552 10.24-8.704 0-17.408-9.728-26.112-9.728-96.768 0.512-206.848 0.512-206.848 0.512V573.44h349.696V470.528z m-340.992 21.504v-10.24h193.536c3.584 0 7.168 0.512 10.24 2.048l7.68 3.072c11.776 4.096 13.312 4.096 24.064 0l7.68-3.072c3.072-1.024 6.656-2.048 10.24-2.048h77.312l0.512 9.728-331.264 0.512z" fill="#FFFFFF" p-id="1811"></path></svg>