<?xml version="1.0" standalone="no"?><!DOCTYPE svg PUBLIC "-//W3C//DTD SVG 1.1//EN"
  "http://www.w3.org/Graphics/SVG/1.1/DTD/svg11.dtd">
<svg class="icon" width="64px" height="64.00px" viewBox="0 0 1024 1024" version="1.1"
     xmlns="http://www.w3.org/2000/svg">
  <path fill="#0f0"
        d="M819.1742964 865.36802589v59.69705083h22.80509053v-59.69705083z m18.67356429 8.86994348h-14.64707656v-3.71137136h14.56537978zM182.02061307 865.36802589v59.69705083h22.80509053v-59.69705083z m18.6735643 8.86994348H186.07044248v-3.71137136h14.54203809zM501.98046541 865.36802589h22.99182582v59.69705083h-22.99182581z"/>
  <path fill="#0f0"
        d="M820.93661443 880.17849699c-0.52519426 0-70.90118905 0.05835511-163.89553908 0.11670933-13.30491431 0-27.0649969 2.95275756-41.16353843 2.95275753-15.03221891 0-30.43790928-2.9177441-46.04200673-2.91774411l-364.33291051 0.16339362v29.76099319h616.00587237zM263.0055268 925.06507672l-14.90383782 29.07240535v21.54462503h96.11050027l28.7923024-50.61703038H263.0055268zM650.31859134 925.06507672l28.79230241 50.61703038h86.20184096v-21.54462503l-14.46034131-29.07240535h-100.53380206zM519.80204827 264.82619995h7.84289756v8.54315536h-7.84289756zM527.64494583 279.39157973h-7.83122672v10.85400932c2.66098285-0.56020676 5.32196572-1.16709782 7.84289757-1.82067222zM519.80204827 249.98071633h7.84289756v8.82325829h-7.84289756z"/>
  <path fill="#0f0"
        d="M549.57471231 178.27422919l32.53868627-65.3574746h140.05173183V48.3178929H291.21427985v64.65721591h204.67393519l-32.76043412 65.35747551C328.26963375 182.35907114 205.01243889 209.29568785 205.01243889 328.4680408v363.7727028c0 62.27633689 51.07219867 114.37558146 111.6329018 128.21736088l-23.3419556 45.51681247 113.37187723-0.09336765 23.7154262-41.70040356h162.51836426l26.8432482 47.17409205c12.74470753-0.88699399 25.20931212-5.69543721 37.34712859-5.70710806l64.19037769-0.07002596-20.58760509-41.39695803h-3.50129348c72.83857154 0 111.2010752-59.26522423 111.20107521-131.88204702V328.4680408c0.01167084-120.4561601-112.47321152-146.54079536-258.82727159-150.19381161z m59.69705082 63.02327896h4.90181087a100.37040755 100.37040755 0 0 0 30.34454165 23.5286918l-3.50129348 6.32566904a109.50878313 109.50878313 0 0 1-10.85400843-6.72248311v4.97183682h-36.82193526v-5.11188784a110.96765563 110.96765563 0 0 1-11.13411225 7.00258605l-3.50129348-6.44237927a101.14069222 101.14069222 0 0 0 30.58963298-23.55203349z m-13.93514705 60.92250377v3.78139641h-6.44238017v-29.01405023h45.6568653v29.0607345h-6.44238016v-3.7813964z m-48.80802898-60.43232205a83.84430361 83.84430361 0 0 1 6.16227636 10.78398337l-4.90181088 3.4312675a91.90894901 91.90894901 0 0 0-6.38402415-10.99406124z m-7.84289667 14.35530191h17.36641458a95.53862355 95.53862355 0 0 0 6.51240611-14.63540575l6.16227546 2.33419566a96.70572048 96.70572048 0 0 1-6.02222444 12.32455267h9.33678262v6.30232735h-13.79509602v1.26046638q0 4.8317849-0.42015484 9.24341403h15.40569037v6.34901165h-13.58501814q2.73100882 10.71395738 14.70543168 21.84807056l-4.55168106 4.97183592c-7.14263796-7.4227418-11.83437097-14.7054317-14.07519896-21.91809564-2.87106074 9.94367275-8.05297455 17.29638858-15.47571635 22.1748578l-3.99147429-5.32196661c7.28268989-4.48165511 11.97442287-11.67097734 14.21525089-21.77804372h-12.83807518v-6.37235421h13.79509513q0.31511636-3.78139642 0.42015484-7.77287071v-2.73100881h-13.14152069z m-28.99070851-6.16227546v-6.16227633H537.98543175v6.16227633h-3.99147428v36.62352734c1.40051739-0.42015485 2.73100882-0.91033658 4.1315262-1.33049144v6.44238018l-4.1315262 1.26046545v13.188205h-6.37235422v-11.55426802c-5.32196572 1.40051739-10.85400933 2.5909569-16.59612991 3.71137045l-1.61059528-6.30232737 3.9914743-0.63023362v-41.40862797z m-68.41527065 11.34419015v-6.37235422h26.84324818v-13.44496622h6.86253502v13.44496622h27.31008731v6.37235422h-21.91809562q6.61744462 16.70116929 22.68838028 29.76099319l-4.6683913 5.83548823q-16.80620778-15.86085868-23.45866493-35.50311377v44.34971465h-6.86253502v-44.46642489a76.12978712 76.12978712 0 0 1-24.15892365 35.85324358l-3.7230413-6.16227633a67.13146348 67.13146348 0 0 0 22.4783024-29.62094129z m-42.43567476 35.36306186v-55.39046018h6.72248311v14.49535471a78.37061514 78.37061514 0 0 0 5.12355867 11.85771356 100.61549888 100.61549888 0 0 0 14.28527686-15.54574233l5.39199168 3.99147432a106.99952303 106.99952303 0 0 1-16.66615587 16.66615585 69.88581398 69.88581398 0 0 0 20.79768208 21.21783782l-4.20155219 6.09225039q-17.01628567-13.7600826-24.71913039-30.34454256v28.71060561c0 4.90181086-2.33419566 7.4227418-6.86253503 7.42274181h-9.24341405l-1.47054335-6.51240615q4.41162916 0.42015485 8.40310344 0.42015577c1.62226612-0.07002596 2.46257674-1.12041355 2.46257672-3.08113862z m-27.48515266-31.58166545v-6.44237926h22.99182581v5.25193976q-5.04186278 23.34195561-21.14781188 35.29303679l-4.20155128-5.46201766c9.10336213-6.72248311 15.33566444-16.33936867 18.76693196-28.64057963z m135.38334051 494.37094268a64.64554507 64.64554507 0 1 1 64.6222034-64.66888673 64.56384826 64.56384826 0 0 1-64.64554509 64.66888673z m215.46958942-193.94830694H291.21427985V350.02433669h431.00920567z"/>
  <path fill="#0f0"
        d="M611.74601069 247.31973348a91.92061985 91.92061985 0 0 1-16.65448502 15.75581926h33.19226072a95.30520398 95.30520398 0 0 1-16.53777569-15.75581925zM595.35995777 283.17297613h32.77210585v12.74470755h-32.77210585z"/>
</svg>
