<?xml version="1.0" standalone="no"?><!DOCTYPE svg PUBLIC "-//W3C//DTD SVG 1.1//EN" "http://www.w3.org/Graphics/SVG/1.1/DTD/svg11.dtd"><svg class="icon" width="64px" height="64.00px" viewBox="0 0 1024 1024" version="1.1" xmlns="http://www.w3.org/2000/svg"><path fill="#000000" d="M548.64675486 550.55900166h-11.25284215v15.5414248c3.75094739-0.8002023 7.61442338-1.7004293 11.25284215-2.60065723zM537.41891957 529.70373473h11.22783529v12.22808795h-11.22783529zM537.41891957 508.44836621h11.22783529v12.62818954h-11.22783529zM645.59623817 555.97286851h46.91184737v18.24210673h-46.91184737z"  /><path fill="#000000" d="M768.47727126 787.69388702q39.30992697-11.25284216 65.0789344-45.36145558c17.09181655-22.7307406 25.73149853-48.83733296 25.73149854-78.4198036V236.84227475c0-17.94203074-3.575903-34.09611046-10.61518128-48.54975995a152.81359159 152.81359159 0 0 0-26.7692601-38.69727297 210.8157397 210.8157397 0 0 0-36.34667889-30.43268573q-20.14258638-13.39088198-38.32217821-23.66847745c-12.05304353-6.8642339-25.44392552-13.62844217-39.91007893-20.10507653a329.28315764 329.28315764 0 0 0-50.43773752-17.50442114 483.14701378 483.14701378 0 0 0-67.15445847-12.40313232A770.56960007 770.56960007 0 0 0 500.8846933 40.88028708a647.66356103 647.66356103 0 0 0-77.76964063 4.12604211 506.4904093 506.4904093 0 0 0-58.5147774 10.32760738 254.37674035 254.37674035 0 0 0-43.38595629 14.4661534c-11.14031355 5.02626913-22.24311727 10.21507967-33.333418 15.45390304q-15.20383989 7.32685038-35.87155944 21.69297814a287.11000643 287.11000643 0 0 0-40.38519837 34.55872786 209.46539827 209.46539827 0 0 0-33.34592099 44.33619609 102.60091125 102.60091125 0 0 0-13.61593918 51.08790231v427.14537095q0 44.38620891 25.26888203 78.41980448c16.80424356 22.63071497 38.40969995 37.84705785 64.61631794 45.36145561L121.27632673 972.50305908h130.27039833L278.81611145 921.97779979h466.3677771l27.23187656 50.52525929H902.72367327zM394.85791661 117.18705771a29.73250907 29.73250907 0 0 1 22.1680985-9.30234972h191.78593364a29.9325594 29.9325594 0 0 1 22.25562025 9.30234972c6.10154053 6.25157898 9.11480141 14.07855566 9.11480234 23.75599919a31.55796994 31.55796994 0 0 1-9.11480234 22.7307406 30.00757819 30.00757819 0 0 1-22.25562024 9.3023488H417.02601511a29.7075022 29.7075022 0 0 1-22.1680985-9.3023488 31.17037132 31.17037132 0 0 1-9.11480143-22.7307406c0.01250298-9.66494056 3.01326087-17.55443304 9.11480143-23.75599919zM227.30310251 236.92979741h568.39354233v194.03650208H227.30310251z m297.57515018 340.78606205l-2.25056842-9.01477671 5.71394282-0.90022699V508.44836621h-5.31384214v-8.8272284h40.49772697V508.44836621h-5.71394282v52.43824282c2.00050527-0.60015195 3.91348789-1.25031581 5.91399408-1.90047964v9.22733003l-5.91399408 1.80045493v18.87976759h-9.12730439v-16.47916164c-7.65193231 2.00050527-15.56643074 3.70093459-23.79350904 5.31384214z m56.51427214-27.25688341h-18.40464816v-9.07729251h19.75498866q0.45011351-5.41386685 0.60015194-11.12781058v-3.91348788h-18.85476164v-9.02727968h24.85627655a136.88456906 136.88456906 0 0 0 9.32735567-20.94278866l8.82722932 3.31333686a138.22240663 138.22240663 0 0 1-8.62717808 17.64195476h13.32836529v9.02727969h-19.75498865v1.80045494q0 6.9142458-0.60015195 13.22834055H613.90073367v9.12730532h-19.42990673q3.91348789 15.34137446 21.05531727 31.25789396l-6.52664808 7.12679912c-10.22758266-10.62768427-16.94177812-21.05531726-20.15509024-31.38292555-4.11353914 14.24109617-11.52791126 24.75625183-22.15559464 31.78302715l-5.71394281-7.61442337c10.41513004-6.4641323 17.15433234-16.79174059 20.41765639-31.22038412z m-12.99078131-49.08739705l7.31434741-4.61366455a120.45542026 120.45542026 0 0 1 8.82722934 15.44139916l-7.01427143 4.91374144a131.72076447 131.72076447 0 0 0-9.12730532-15.74147605zM428.85400234 576.01543017l-5.41386684-8.92725496a96.11177209 96.11177209 0 0 0 32.18312694-42.4107105H425.10305495v-9.12730441h38.39719698v-19.17984356h9.82748197v19.25486233h39.09737364v9.1273053h-31.38292554q9.47739319 23.90603765 32.50820977 42.61076086l-6.61417074 8.31459912q-24.05607518-22.70573375-33.58348118-50.82533526v63.55355041h-9.82748196v-63.71609092A109.00252775 109.00252775 0 0 1 428.85400234 576.01543017z m-103.95125176-45.88658879v-9.25233598h32.98332923v7.50189478q-7.22682476 33.40843678-30.30765324 50.51275631l-6.01401879-7.81447372c13.02829022-9.62743163 21.95554428-23.35589851 26.86928479-40.99785329z m35.88406243 49.52500756c2.30058125 0 3.5133872-1.50037896 3.51338719-4.31358949v-79.32003151h9.62743072v20.7552413a112.16582617 112.16582617 0 0 0 7.31434739 16.94177902 144.14890367 144.14890367 0 0 0 20.45516624-22.25562024l7.71444809 5.71394283a153.18868633 153.18868633 0 0 1-23.85602482 23.85602391 100.02525998 100.02525998 0 0 0 29.77001797 30.35766695l-6.01401877 8.75221058q-24.35615115-19.70497674-35.3839361-43.51098877v41.09787892c0 7.01427143-3.31333686 10.62768427-9.82748198 10.62768426h-13.24084354l-2.10052999-9.32735564q6.32659774 0.60015195 12.0280376 0.60015193z m-69.89265114 148.31245473a41.96059699 41.96059699 0 0 1-31.25789398 13.42839092 43.17340296 43.17340296 0 0 1-32.33316538-13.45339688 44.42371874 44.42371874 0 0 1-13.15332179-32.02058641c0-13.05329618 4.41361421-24.13109393 13.15332179-33.05834892a43.52349174 43.52349174 0 0 1 32.30815942-13.42839091c12.11555933 0 22.5056834 4.51363984 31.25789398 13.42839091s13.15332179 20.00505181 13.1533218 33.05834892a44.26117734 44.26117734 0 0 1-13.12831584 32.02058641z m424.98232516 130.17037362h-408.85325233L336.33063622 793.03273602h351.27621176l28.26963905 65.01641862z m-70.28024886-274.89442238v5.41386775H636.406418v-41.61050911h65.36650739v41.59800524h-9.22733001v-5.41386685z m65.35400444-44.36120296a156.67706758 156.67706758 0 0 1-15.5414248-9.62743163v7.12680005H642.65799605v-7.3768623a158.89012617 158.89012617 0 0 1-15.94152548 10.00252546l-5.00126317-9.22733001a144.79906752 144.79906752 0 0 0 43.76105192-33.75852558h7.01427143a143.78631191 143.78631191 0 0 0 43.51098786 33.68350679z m21.08032412 189.21028329A44.41121578 44.41121578 0 0 1 718.92725774 696.00823304c0-13.05329618 4.41361421-24.13109393 13.14081792-33.0583489a45.5865128 45.5865128 0 0 1 64.61631885 0c8.75221057 8.92725404 13.15332179 20.00505181 13.1533218 33.0583489a44.27368122 44.27368122 0 0 1-13.1533218 32.0330894 45.5865128 45.5865128 0 0 1-64.61631885 0z"  /><path fill="#000000" d="M669.05216231 504.64740693a131.52071414 131.52071414 0 0 1-23.85602482 22.5056834h47.51199839a136.38444277 136.38444277 0 0 1-23.65597357-22.5056834z"  /></svg>