<?xml version="1.0" standalone="no"?><!DOCTYPE svg PUBLIC "-//W3C//DTD SVG 1.1//EN"
  "http://www.w3.org/Graphics/SVG/1.1/DTD/svg11.dtd">
<svg class="icon" width="64px" height="64.00px" viewBox="0 0 1024 1024" version="1.1"
     xmlns="http://www.w3.org/2000/svg">
  <path fill="#0f0"
        d="M907.30457643 829.08008774v76.82929983h29.30547266v-76.82929983z m23.94817674 11.42416714h-18.73279621v-4.77189607h18.76827528zM87.33673273 829.08008774v76.82929983h29.35869084v-76.82929983z m23.94817672 11.42416714H92.55211324v-4.77189607h18.75053622z m387.83629287-11.42416714h29.60704257v76.81156076h-29.60704257z m0 0"/>
  <path fill="#0f0"
        d="M909.61069678 848.16767204c-0.6563571 0-91.2691635 0-210.92135173 0.15965451-17.13625116 0-34.8401631 3.79622995-52.96982037 3.81396812-19.33593515 0-39.16857383-3.76075088-59.26730332-3.74301086l-468.88756711 0.19513358v38.28160404h792.72013962zM744.54566902 894.73357129l40.12650087 77.76948778h114.18845594l-49.40420217-77.76948778h-104.91075464zM156.11234914 894.73357129L110.66403143 972.50305908h114.17071687l33.63388338-77.76948779h-102.35628254zM515.65431453 433.15463236h10.12919201v11.38868897h-10.12919201zM515.65431453 452.31317482h10.12919201v11.03390088h-10.12919201zM613.18548284 475.99526071h42.29070667v16.44441498h-42.29070667zM525.78350654 471.1169283h-10.12919201v14.01411831c3.44144186-0.72731527 6.86514373-1.54332689 10.12919201-2.34159942zM634.33083663 429.73093048a118.64104301 118.64104301 0 0 1-21.51788097 20.32934128h42.84062837a122.98719373 122.98719373 0 0 1-21.3227474-20.32934128z"/>
  <path fill="#0f0"
        d="M722.97456989 695.73308931q34.46763592-9.88084026 57.04988025-39.75397367a111.35015393 111.35015393 0 0 0 22.56450434-68.75787732V212.72496757a95.88140508 95.88140508 0 0 0-9.31318039-42.57453751 133.95013735 133.95013735 0 0 0-23.41599504-33.91771423 184.80896917 184.80896917 0 0 0-31.93090291-26.60908517q-17.7393901-11.65477981-33.59840523-20.73734752c-10.64363461-6.01365303-22.2984135-11.93860973-34.94659942-17.61521468a288.548925 288.548925 0 0 0-44.24203984-15.50422704 423.58116482 423.58116482 0 0 0-58.85929707-10.87424637A675.35633265 675.35633265 0 0 0 488.38887137 40.86575334a567.55405694 567.55405694 0 0 0-68.17247748 3.5478782 444.03468151 444.03468151 0 0 0-51.26683806 9.1180459 222.89544052 222.89544052 0 0 0-38.05099228 12.75462226c-9.73892574 4.52354432-19.51332965 9.02934955-29.23451542 13.64159113a240.81222513 240.81222513 0 0 0-31.45193938 19.03436616 251.89934419 251.89934419 0 0 0-35.47878112 30.29887876 183.49625495 183.49625495 0 0 0-29.2345154 38.84926482 89.88549113 89.88549113 0 0 0-11.93860974 44.77422151v374.37209532q0 38.90248299 22.13875899 68.75787731a105.42519723 105.42519723 0 0 0 56.65961309 39.75397368l-85.00715871 145.46300175h94.3203391l12.00956699-27.76214578h408.87521032l14.1915119 27.47831495h98.45361715zM395.45220465 107.84969111a26.07690346 26.07690346 0 0 1 19.51332966-8.16011978h168.13394243a26.23655888 26.23655888 0 0 1 19.51332966 8.16011978 28.38302471 28.38302471 0 0 1 7.98272528 20.82604477 27.67344944 27.67344944 0 0 1-7.98272528 19.97455319 26.34299522 26.34299522 0 0 1-19.51332966 8.16011977h-168.25811786a26.05916438 26.05916438 0 0 1-19.51332967-8.16011977 27.33640042 27.33640042 0 0 1-7.98272526-19.97455319 28.38302471 28.38302471 0 0 1 8.1069007-20.82604477z m-146.8821523 104.9639737h498.22851884v170.10301468H248.57005234z m364.61543049 287.76839065v4.87833243h-8.30203428v-37.50107153h58.93025432v37.50107153h-8.31977336v-4.87833243z m44.91613692-48.71236597v6.45713839h-47.54156626v-6.5990529a143.22783867 143.22783867 0 0 1-14.36890641 9.02934955l-4.52354433-8.31977428a130.54417366 130.54417366 0 0 0 39.50562193-30.45853329h6.33296297a129.49755029 129.49755029 0 0 0 39.22179199 30.36983603l-4.61224157 8.23107705a141.34746277 141.34746277 0 0 1-14.01411832-8.71004055z m-153.74729693 43.70985815l-2.07550858-8.1423798 5.14442325-0.81601251v-53.46652297h-4.78963606v-7.94724621h36.61410265v7.94724621h-5.32181777v47.27547543c1.77393864-0.54992077 3.54787821-1.17079971 5.32181777-1.77393865v8.31977428l-5.32181777 1.63202414v17.083033h-8.23107702v-14.91882809c-6.77644739 1.8626359-13.92542106 3.3882237-21.34048647 4.80737517z m50.85883179-24.55131659h-16.49763223v-8.23107703h17.73939012q0.40800625-4.87833242 0.54992077-10.04049476v-3.54787819h-16.99433575v-8.08916162h22.47580801a123.32424183 123.32424183 0 0 0 8.40847061-18.89245163l7.94724711 2.98021833a124.83209055 124.83209055 0 0 1-7.76985352 15.96545147h12.027307v8.14237978h-17.7393901v1.63202414q0 6.24426571-0.5499217 11.93860973h19.88585685v8.23107703h-17.52651743q3.54787821 13.83672471 18.98114798 28.20563112l-5.87173853 6.4216593c-9.22448315-9.57927123-15.27361526-18.98114799-18.16513545-28.29432836-3.7075327 12.8255795-10.39528284 22.31615351-19.97455409 28.64911555l-5.14442326-6.86514374c9.34865856-5.88947763 15.36231252-15.18491803 18.21835361-28.20563112z m-11.65477889-44.34847617l6.5990529-4.15101713a108.21028199 108.21028199 0 0 1 7.9472471 13.92542196l-6.33296206 4.43484706a118.69426119 118.69426119 0 0 0-8.17785977-14.15603372z m-125.80775666 67.40968404l-4.87833242-8.03594436a86.65692193 86.65692193 0 0 0 29.02164272-38.22838588h-27.54927399v-8.23107703h34.60955132v-17.34912384h8.86969505v17.34912384h35.30138662v8.23107703h-28.38302471q8.55038604 21.55335915 29.28773357 38.4057804l-5.96043487 7.50376174q-21.69527457-20.47125669-30.28113969-45.82084489v57.29823111h-8.86969505v-57.40466744a98.25848357 98.25848357 0 0 1-31.15036947 46.26433022z m-93.73493927-41.40373692v-8.31977427h29.73121802v6.86514375q-6.51035656 30.15696335-27.30092134 45.55475493l-5.4282541-7.09575639c11.74347615-8.67456147 19.79715958-21.05665656 24.21426849-36.96888985z m32.39212644 44.66778428c2.07550858 0 3.15761194-1.3481933 3.15761195-3.8849263v-71.48974301h8.67456145v18.60862079a101.11452559 101.11452559 0 0 0 6.59905381 15.27361437 129.94103473 129.94103473 0 0 0 18.43122628-20.06325043l6.95384099 5.14442325a138.10115449 138.10115449 0 0 1-21.51788005 21.51788097 90.20480013 90.20480013 0 0 0 26.83969781 27.3896186l-5.4282541 7.85854984q-21.96136541-17.7393901-31.9309029-39.22179199v37.09306527c0 6.33296205-2.98021745 9.57927123-8.86969505 9.57927122h-11.93860974l-1.89811497-8.40847152q5.72982311 0.60313894 10.92746452 0.60313894z m-79.52568644 157.70318141a37.85585962 37.85585962 0 0 1-28.3830247-11.76121615 39.02665933 39.02665933 0 0 1-11.54834348-28.18789113 39.96684635 39.96684635 0 0 1 11.53060347-28.91520637 38.17516862 38.17516862 0 0 1 28.3830247-11.77895525 37.09306525 37.09306525 0 0 1 27.42509768 11.77895525 39.96684635 39.96684635 0 0 1 11.53060348 28.91520637 38.79604665 38.79604665 0 0 1-11.51286438 28.06371571 36.77375625 36.77375625 0 0 1-27.42509677 11.88539157z m425.74536972 158.28858033H293.68132195l50.43308737-113.05313531h308.02677467l50.46856645 113.03539624z m-11.4951253-169.94336015a38.92022298 38.92022298 0 0 1-11.51286439-28.08145478 39.82493184 39.82493184 0 1 1 79.6321237 0 38.77830755 38.77830755 0 0 1-11.49512531 28.17015203 39.94910726 39.94910726 0 0 1-56.606394 0z"/>
</svg>
