<?xml version="1.0" standalone="no"?><!DOCTYPE svg PUBLIC "-//W3C//DTD SVG 1.1//EN" "http://www.w3.org/Graphics/SVG/1.1/DTD/svg11.dtd"><svg class="icon" width="64px" height="53.46px" viewBox="0 0 1226 1024" version="1.1" xmlns="http://www.w3.org/2000/svg"><path fill="#000000" d="M726.2812929 512.35442234a80.60836393 80.60836393 0 0 0-70.80159074 42.48095443h-111.47484431L440.58934249 343.83157202c-9.33978402-19.05617311-36.997597-17.56481974-44.09282023 2.36507411l-108.23604947 299.17438198-80.18656726-358.34643451c-5.22726662-23.54529466-37.99183198-25.53376553-46.09635435-2.74167827L53.36489754 591.45636962a31.75526622 31.75526622 0 0 0 30.26391466 42.34537695 31.89084462 31.89084462 0 0 0 29.64628294-21.08983555l61.25090747-171.85203108 83.83209642 360.72657279c5.45322911 23.42478133 37.99183198 25.15716137 46.1264836 2.62116495l117.92230841-332.82773316 84.44972723 170.64689777h155.46221631a80.74394142 80.74394142 0 1 0 63.96245832-129.67235995z m0 0"  /><path fill="#000000" d="M986.42441452 593.20381292a259.76651746 259.76651746 0 0 0-141.60318147-231.43081609 30.88154457 30.88154457 0 0 0-39.01619528 9.43016901 30.53506875 30.53506875 0 0 0 10.46959648 45.08705523 198.56080157 198.56080157 0 0 1 108.46201106 176.88346352c0 78.6048298-46.08129109 146.6044856-112.46908021 178.75142104a30.4597479 30.4597479 0 0 0-11.08722732 45.34314605 30.86648041 30.86648041 0 0 0 38.48894947 9.71638817 259.46523413 259.46523413 0 0 0 146.72499894-233.7958911z m0 0"  /><path fill="#000000" d="M912.44428468 223.99611358l-0.25609081 0.24102667a30.6405179 30.6405179 0 0 0 9.33978401 44.34891107c110.10400609 66.38778911 184.09920009 186.79568585 184.0992001 324.60269743 0 139.38874903-75.72757403 261.19761326-188.09120508 327.10334997a30.74596707 30.74596707 0 0 0-9.59587485 44.58993771l0.12051334 0.25609082a31.15269956 31.15269956 0 0 0 40.97453781 8.34554904c130.44063243-76.54103902 218.24966966-217.97851468 218.24966967-380.15935004 0-160.35807126-85.68498887-300.31925771-213.53458561-377.43273504a30.89660874 30.89660874 0 0 0-41.35114106 8.10452237z m0 0"  /><path fill="#000000" d="M419.31873694 77.45188464v9.47536242q-9.0385007 42.05915779-38.14247364 63.66117501l-7.53208407-9.85196658c16.41994308-12.05133486 27.65781299-29.4353846 33.84918535-51.65503263h-29.67641128v-11.62953822z m64.92656497-4.66989154a193.01718746 193.01718746 0 0 1-30.12833623 30.12833626 126.07202421 126.07202421 0 0 0 37.50977865 38.27805112l-7.53208406 10.98177906q-30.70077459-24.82574971-44.58993775-54.81850848v51.79061105c0 8.84266652-4.17277498 13.39204568-12.38274651 13.39204476H410.47607042l-2.65129418-11.75005064q7.95388072 0.75320831 15.15455312 0.75320833c2.9073841 0 4.41380164-1.89808496 4.41380163-5.43816495V46.16360759h12.05133487v26.15139635a141.37721899 141.37721899 0 0 0 9.2192707 21.34592638 181.53829181 181.53829181 0 0 0 25.77479218-28.03441712zM552.33534272 70.79352223V46.54021175h12.38274653v24.25331048h49.25982928v11.4939607h-39.54344112q11.93082153 30.12833625 40.92934535 53.68869601l-8.3304858 10.54491732q-30.30910625-28.62191963-42.31524771-64.03777915v80.0811181h-12.38274653V82.28748293a137.32495735 137.32495735 0 0 1-43.58063857 64.67047416l-6.82406826-11.23786898a121.08578425 121.08578425 0 0 0 40.56780442-53.43260518h-38.53414197v-11.4939607zM678.40736693 50.71298672v11.11735564h-7.2006724v66.05637836c2.53077994-0.75320831 4.92598328-1.64199413 7.45676322-2.39520335v11.61447405l-7.45676322 2.2746891v23.9369639h-11.49396072V142.42364303c-9.59587485 2.53077994-19.58341893 4.66989246-29.9325021 6.68849075l-2.92244916-11.40357572 7.2006724-1.12981247V61.83034237h-6.68849076V50.71298672z m-18.69463312 27.04018124V61.83034237h-14.14525398v15.92282559z m0 26.27190968V88.61443369h-14.14525398v15.41064395z m0 27.115503V114.88634338h-14.14525398v19.58341802c4.79040579-1.02436331 9.59587485-2.15417577 14.14525398-3.28398826z m51.2181718-58.23807422a172.34914855 172.34914855 0 0 0 11.75005154-26.39242302L733.79831279 50.6828584a174.45813274 174.45813274 0 0 1-10.81607231 22.24977635h16.85680393v11.37344647h-24.93119797v2.27469003q0 8.72215319-0.75320832 16.67603392h27.79339048v11.49396072h-24.50940222q4.92598328 19.32732809 26.52800049 39.4078636l-8.20997154 9.03850161c-12.87986401-13.39204568-21.34592639-26.52800051-25.38312387-39.54344202-5.18207413 17.94142481-14.52185814 31.19789206-27.9139038 40.0405595l-7.2006724-9.59587575c13.13595483-8.08945822 21.60201722-21.08983557 25.60908636-39.28735028h-23.09337059v-11.49396071h24.88600637q0.57243832-6.82406824 0.75320832-14.02474065v-4.9259833h-23.75619299v-11.43370314z m-6.02566742-6.44746408l-8.75228153 6.23656574a165.87155613 165.87155613 0 0 0-11.49396072-19.82444558l9.21927161-5.81476909a151.24424883 151.24424883 0 0 1 11.04203479 19.44784141zM815.83777342 46.16360759a181.05623849 181.05623849 0 0 0 54.81850848 42.43576194l-6.44746409 11.44876822a197.55150243 197.55150243 0 0 1-19.58341893-12.05133486v9.03850069h-66.4329816v-9.2192707a200.17266735 200.17266735 0 0 1-20.08053643 12.62377319l-6.31188658-11.61447404A182.44214181 182.44214181 0 0 0 806.9951069 46.25399258z m36.75657035 116.7171751h-11.61447313v-6.82406734h-59.12686095v6.82406734h-11.61447314v-52.42330512h82.35580722z m-11.37344647-77.4298239a171.89722357 171.89722357 0 0 1-29.81198967-28.42608546 165.81129945 165.81129945 0 0 1-30.12833626 28.42608546z m-0.25609084 59.24737335V121.71041162h-59.11179677v22.98792052z"  /></svg>