<?xml version="1.0" standalone="no"?><!DOCTYPE svg PUBLIC "-//W3C//DTD SVG 1.1//EN"
  "http://www.w3.org/Graphics/SVG/1.1/DTD/svg11.dtd">
<svg class="icon" width="64px" height="59.04px" viewBox="0 0 1110 1024" version="1.1"
     xmlns="http://www.w3.org/2000/svg">
  <path fill="#f88d2e"
        d="M480.87966765 593.80545156L216.58187135 417.41257016l186.19625178 60.5286973-130.56246049-254.76561184 118.76587262 122.42688355-18.75250602-260.33848267 139.07769861 209.20637687 7.82371403-122.42688265 40.63720948 108.47436756L626.95396321 24.83027427v288.21639515l62.50835457-83.67441534-9.36947382 106.94216705L837.46203341 173.84693715l-113.61334087 311.21296092 100.02692588-41.83042848-73.45070585 83.67441535 51.56600238 9.28811803-200.4063944 58.46768426 112.94893535-85.43712389-86.12864798 16.94911959 118.41333181-200.4199537L608.2014572 477.30398054l-10.07455724-182.67083564-20.17623213 143.93192674-36.867726-116.27096298-4.75931303 141.07091517-90.31847057-194.67081203 65.69478922 229.99277825-105.45064444-91.64728162 126.19636703 186.75218383h-51.56600239v0.0135593zM492.41862888 622.52404041h128.77263336v54.1693873h-128.77263336zM492.41862888 902.33367179h128.77263336v54.16938729h-128.77263336zM1062.12600817 935.06581239a22.39995674 22.39995674 0 0 1-5.80337886 15.15929247 19.09148842 19.09148842 0 0 1-14.00675318 6.27795423H991.15665264c-10.9423522 0-19.82369044-9.58642256-19.82369043-21.4236874v-291.11808457c0-11.83726575 8.88133914-21.43724669 19.82369043-21.43724671h51.18634207a19.07792912 19.07792912 0 0 1 14.0067532 6.27795425 22.38639746 22.38639746 0 0 1 5.80337885 15.15929246zM142.34472537 935.06581239a22.34571956 22.34571956 0 0 1-5.80337885 15.15929247 19.09148842 19.09148842 0 0 1-14.04743016 6.27795423H71.30757427a19.07792912 19.07792912 0 0 1-14.00675317-6.26439494A22.34571956 22.34571956 0 0 1 51.49744223 935.06581239V643.96128712c0-11.83726575 8.86777984-21.43724669 19.81013204-21.43724671h51.18634208a19.09148842 19.09148842 0 0 1 14.00675228 6.27795425A22.37283815 22.37283815 0 0 1 142.34472537 643.96128712zM563.21171265 777.61526716h14.12878686v15.38980142h-14.12878686zM699.27924746 810.65927156h59.0236154v22.95588789h-59.0236154zM563.21171265 823.39145089c4.78643162-1.00338794 9.58642256-2.14236884 14.12878686-3.28134973v-16.27115567h-14.12878686zM563.21171265 750.87633557h14.12878686v15.89149539h-14.12878686zM728.78427551 746.08990394a165.42341061 165.42341061 0 0 1-30.00672202 28.36604718h59.7693767a171.62000905 171.62000905 0 0 1-29.76265466-28.36604718z"/>
  <path fill="#f88d2e"
        d="M116.92104555 676.69342771v225.5724476h879.78135931V676.69342771z m494.46684629 59.43039429a151.41665833 151.41665833 0 0 1 11.09150355 19.41691153l-8.82710196 6.18303916a165.65391865 165.65391865 0 0 0-11.47116384-19.79657184z m-312.10787448 103.40319071l-7.5660874-9.8304899c16.39318844-12.10845168 27.62028586-29.38299438 33.78976571-51.52532448h-29.62706172v-11.60675682h41.49144517v9.49150657q-9.08472859 41.91178426-38.08806176 63.47106463z m102.77946306 1.51864119q-30.64400895-24.7863929-44.51516828-54.72531845v51.70159536c0 8.82710196-4.16270399 13.36946626-12.35251901 13.36946623h-16.65081507l-2.71185926-11.72879137q7.94574769 0.75932061 15.13217386 0.75932059c2.90168943 0 4.42033063-1.8983015 4.42033062-5.42371855v-99.75573998h12.10845169v26.10164466a140.93532221 140.93532221 0 0 0 9.20676134 21.31521302 181.19287231 181.19287231 0 0 0 25.76266224-27.99994615l9.70845623 7.18642709a192.82674773 192.82674773 0 0 1-30.00672202 30.00672204 125.87094482 125.87094482 0 0 0 37.45077574 38.21009543z m122.65739156-5.68134519q-30.26434864-28.55587731-42.25076666-63.9320798v79.99984602h-12.3525181v-80.12187969a137.09804134 137.09804134 0 0 1-43.47110335 64.51512954l-6.77964819-11.22709651a120.89468306 120.89468306 0 0 0 40.47449883-53.34227022h-38.48128227v-11.36269037h48.29821287v-24.27113965h12.3525181v24.27113965h49.17956623v11.47116477H492.17456155q11.91862153 30.0745185 40.85415822 53.59989683z m64.09479136 16.73217175h-11.47116383V831.33719767c-9.58642256 2.52202913-19.5525045 4.66439797-29.8304512 6.68473314l-2.9016894-11.34913019 7.18642709-1.13898091v-74.65748414H545.05581569v-11.09150353h50.94227475v11.09150353h-7.1864271v65.96597515c2.52202913-0.75932061 4.92202461-1.64067487 7.44405373-2.39999545v11.60675772l-7.44405373 2.26440249z m64.43377467-0.12203367c-12.86777229-13.36946626-21.31521304-26.48130497-25.34232406-39.47111091-5.16609193 17.91182962-14.50844623 31.1863808-27.86435318 39.97280488l-7.1864271-9.58642255c13.11183961-8.13557783 21.55928036-21.05758639 25.59995069-39.21348427h-23.05080297v-11.47116385h24.84063009q0.56949045-6.77964821 0.7593206-13.99319388v-4.9220246H597.259105v-11.34913018h31.26773658a172.10814373 172.10814373 0 0 0 11.72879139-26.35927129l11.09150353 4.162704a174.23695327 174.23695327 0 0 1-10.84743621 22.19656729h16.77284875v11.34913018h-24.82707079v2.2644025q0 8.70506828-0.75932061 16.65081598h27.74231953v11.47116385h-24.4067326q4.92202461 19.29487787 26.48130495 39.32195864z m116.60994538-0.25762662h-11.6067577v-6.7796482h-58.96937823v6.7796482h-11.60675681v-52.33888231h82.22357063z m11.60675772-62.67106614a197.21995975 197.21995975 0 0 1-19.45759033-12.06777379v8.94913561h-66.44054963v-9.20676224a199.72842959 199.72842959 0 0 1-20.05419936 12.61014565l-6.30507194-11.60675772c22.07453362-11.34913109 40.47449885-25.5999507 55.10497876-42.4948331h8.82710104a180.74541555 180.74541555 0 0 0 54.72531845 42.37279943z"/>
</svg>
