<?xml version="1.0" standalone="no"?><!DOCTYPE svg PUBLIC "-//W3C//DTD SVG 1.1//EN" "http://www.w3.org/Graphics/SVG/1.1/DTD/svg11.dtd"><svg class="icon" width="64px" height="64.00px" viewBox="0 0 1024 1024" version="1.1" xmlns="http://www.w3.org/2000/svg"><path fill="#000000" d="M528.35781308 528.2009247h9.76734722v10.98826438h-9.76734722zM642.87496664 524.88700374a114.47977747 114.47977747 0 0 1-20.7556116 19.62190137h41.33680568a118.70315848 118.70315848 0 0 1-20.58119408-19.62190137zM538.1251603 564.84093223h-9.76734722v13.51730924c3.31392097-0.69766734 6.62784194-1.48254341 9.76734723-2.26741952zM622.45573077 569.53772946h40.81355403v15.87193845h-40.81355403zM528.35781308 546.68911588h9.76734722v10.63943115h-9.76734722z"  /><path fill="#000000" d="M910.91636521 55.99208607A51.77690253 51.77690253 0 0 0 874.31373378 40.83027426H149.68626622A51.75198575 51.75198575 0 0 0 97.92182208 92.5947184v828.15635493a51.76444415 51.76444415 0 0 0 51.76444414 51.75198575h724.62746756a51.76444415 51.76444415 0 0 0 51.76444414-51.76444415V92.5947184a51.75198575 51.75198575 0 0 0-15.16181271-36.60263233zM225.48286773 224.52864398q24.41836577-9.2316372 48.86164835-16.93089738l12.32130798 46.09589488a25.88845081 25.88845081 0 0 0 49.99535857-13.40518462l-12.45835032-46.71881186a780.92675075 780.92675075 0 0 1 161.95854954-22.89844716v51.31594286a25.88222206 25.88222206 0 0 0 51.76444413 0v-51.31594286a780.86445877 780.86445877 0 0 1 161.95854955 22.89844716l-12.53309976 46.71881186a25.8772389 25.8772389 0 0 0 49.99535857 13.38026784l12.32130798-46.09589489q24.67999114 7.76155216 48.88656512 16.93089828a25.88845081 25.88845081 0 0 1 14.95002002 33.33854404l-84.14369547 223.10413068a25.87599242 25.87599242 0 0 1-34.23554568 14.73822824q-72.25842946-30.39837397-144.51685983-36.80196575l61.49441528-106.51889192a25.88969729 25.88969729 0 0 0-44.85006005-25.87599331l-75.79660062 131.11167522q-81.25335808 3.88700528-162.55655062 38.08517576a25.87599242 25.87599242 0 0 1-34.23554567-14.70085306l-84.21844584-223.11658908a25.88845081 25.88845081 0 0 1 15.03722877-33.33854493z m396.97286304 368.7671591v4.70925657h-8.02317753v-36.21642394h56.8599091v36.19150715h-8.02317754v-4.70925655z m43.34259983-47.00535401v6.22917427H619.92668588v-6.36621658a138.10080966 138.10080966 0 0 1-13.86614337 8.72084484l-4.36042243-8.02317751a125.99129348 125.99129348 0 0 0 38.11009256-29.3892468h6.1045912a125.00708309 125.00708309 0 0 0 37.84846719 29.30203895l-4.44763119 7.93596876a136.13238979 136.13238979 0 0 1-13.50485085-8.43430271z m-148.34157314 42.18397283l-2.00579416-7.8487609 4.9833394-0.78487609V528.2009247h-4.63450618v-7.6743434h35.23221354v7.6743434h-4.98333939v45.61001934c1.74416878-0.52325073 3.40112972-1.13371021 5.14529851-1.65696094v8.02317753l-5.14529851 1.56975219v16.482397h-7.93596877v-14.3769357c-6.61538355 1.74416878-13.50485176 3.22671221-20.65594444 4.62204778z m49.09835692-23.67086485h-15.95914629v-7.93596969h17.15514758q0.38620839-4.70925656 0.52325071-9.68013754v-3.40112974H551.90409492v-7.84875999h21.62769553a119.2014924 119.2014924 0 0 0 8.11038538-18.22656582l7.6743443 2.87787809a120.43486886 120.43486886 0 0 1-7.47501 15.34868773h11.59872385v7.84875999h-17.19252366v1.56975219q0 6.01738336-0.52325071 11.51151509h19.1858594v7.93596969h-16.91843898q3.40112972 13.34289265 18.31377455 27.20903602l-5.66854924 6.22917515c-8.89526146-9.24409558-14.73822822-18.31377457-17.52889846-27.29624478-3.57554634 12.38359995-10.02897166 21.54048678-19.27306817 27.64507799l-4.98333941-6.62784195c9.08213737-5.66854925 14.92510322-14.65101948 17.6534815-27.20903601z m-11.21251456-42.73214034l6.3662166-4.01158923a104.65013919 104.65013919 0 0 1 7.6743434 13.43010142l-6.10459122 4.27321366a114.72894443 114.72894443 0 0 0-7.98580235-13.75401782z m-121.39416248 64.98275284l-4.70925654-7.76155217a83.60798635 83.60798635 0 0 0 27.99391304-36.88917357h-26.63595265v-7.93596877h33.400836v-16.81877275h8.54642826v16.74402239H506.55570094v7.93596876h-27.25886961q8.2474277 20.80544426 28.25553748 37.06359109l-5.83050746 7.23830144q-20.9300282-19.75894281-29.21483108-44.21468376V597.7185175h-8.54642735v-55.38982406a94.80804342 94.80804342 0 0 1-30.04954076 44.66318414z m-90.44762007-40.00376116v-8.02317753h28.65420426v6.49080053q-6.22917516 29.04041358-26.33695116 43.95305841l-5.23250729-6.80225948c11.33709849-8.37201074 19.09865066-20.31956871 23.37186433-35.66825551z m31.14587488 43.08097355c2.00579416 0 3.05229561-1.24583485 3.0522956-3.73750454v-69.00680047h8.37201074v18.0521492a97.49904652 97.49904652 0 0 0 6.36621657 14.73822733 125.35591721 125.35591721 0 0 0 17.79052385-19.36027512l6.7150507 4.9833394a133.30434438 133.30434438 0 0 1-20.75561068 20.75561159 87.05894966 87.05894966 0 0 0 25.9009092 26.42415995l-5.23250637 7.58713555q-21.17919517-17.14268916-30.78458327-37.8484672v35.75546427c0 6.10459122-2.87787899 9.24409558-8.54642825 9.2440956h-11.5115151l-1.83137755-8.11038628q5.5439653 0.52325073 10.46501456 0.52325072z m447.91505588 175.33881739h-103.52888826v77.64043745H304.95468183v-77.64043745H201.47562714V713.70575517h103.51642987v-77.64043656h414.04080276v77.64043656h103.51642988z"  /></svg>
