<?xml version="1.0" standalone="no"?><!DOCTYPE svg PUBLIC "-//W3C//DTD SVG 1.1//EN"
  "http://www.w3.org/Graphics/SVG/1.1/DTD/svg11.dtd">
<svg class="icon" width="64px" height="57.29px" viewBox="0 0 1144 1024" version="1.1"
     xmlns="http://www.w3.org/2000/svg">
  <path fill="#fd0000"
        d="M710.31920476 708.13942949a232.37206942 232.37206942 0 0 1-232.33079565-232.31703666c0-66.56104655 54.12384391-183.86147648 165.45331573-358.58766223l1.81605161-2.84789926L710.31920476-1.29015799l65.87314705 117.10781792 0.35770715 0.70165637c5.21427004 10.42853901 17.11491143 30.35007593 30.87287925 53.40842961 68.43212985 114.53507823 135.22706114 232.50964869 135.22706115 305.90840485a225.21792647 225.21792647 0 0 1-18.66956137 89.77073742 238.86582982 238.86582982 0 0 1-123.90425479 123.90425373 225.28671609 225.28671609 0 0 1-89.75697844 18.62828758z m0-578.68762307l-10.51108763 18.60077172-2.31133801 3.65961904c-135.22706114 212.21664671-155.46503144 294.1866165-155.46503143 324.15146943a168.41127841 168.41127841 0 0 0 168.28745707 168.20490951c91.20156602 0 168.23242537-77.04461726 168.2324243-168.23242536 0-17.65147161-7.56688183-53.87620017-43.61275627-126.2155928-26.00255844-52.18396991-58.67773134-106.87189094-82.54780377-146.81127024-14.72102479-24.68179325-26.42905521-44.21810716-32.81275217-56.87543662zM389.00187668 711.2900042a38.35721352 38.35721352 0 0 1-38.34345559-38.34345452c0-17.56892406 25.56230373-57.26066069 31.16179571-66.0382443l7.1954178-12.76739287 7.19541676 12.76739287c4.7877722 9.63057716 31.14803778 48.46931916 31.14803778 66.0382443a38.88001579 38.88001579 0 0 1-38.34345454 38.34345452z m-109.12819723-128.95342866a30.92791096 30.92791096 0 0 1-30.92791096-30.92790989c0-14.17070668 20.6369512-46.185497 25.12204796-53.27085035l5.79210507-10.31847561 5.80586194 10.31847561c3.86598901 7.73197801 25.12204796 39.10014366 25.12204796 53.27085035a31.34064981 31.34064981 0 0 1-30.91415197 30.92790989z m0 0"/>
  <path fill="#fd0000"
        d="M671.38415621 383.63025292c-12.62981362 0-25.24587035 6.31490734-37.87568396 15.78038938l-3.15057471-12.62981468h-28.41020194v170.44745789h31.56077665v-56.80664699c9.47923997 6.31490734 22.09529565 12.62981362 31.56077769 12.62981362 28.39644507 0 53.65607229-25.24587035 53.65607229-66.28588696 0-37.87568397-15.78038832-63.13531225-47.34116602-63.13531226z m-12.61605569 104.17532886c-6.30114941 0-12.62981362-3.16433264-22.08153773-9.4792389v-56.82040492c9.47923997-9.46548205 15.78038832-12.61605568 25.24587038-12.61605676 18.94472094 0 25.25962829 15.78038832 25.25962828 37.87568398 0 25.24587035-12.62981362 37.86192604-28.41020299 41.02625867z m88.38118262-147.60923103h31.57453456v66.2858859c9.46548205-9.47923997 22.08153773-18.93096303 37.88944296-18.93096302 25.24587035 0 37.87568397 18.93096303 37.87568396 50.49174072v78.91570057h-31.58829354v-72.65582601c0-18.93096303-6.31490734-25.24587035-18.94472094-25.24586929-9.46548205 0-15.78038832 6.31490734-25.24587037 12.62981361v85.23060791h-31.56077663V340.19635075zM60.47537285 712.74834865v306.72012462h140.09738196V712.74834865z m114.39749897 45.59390405H85.33602021v-19.06854229h89.53685161zM947.83675353 712.74834865v306.72012462h140.09738092V712.74834865z m114.39749792 45.59390405h-89.53685162v-19.06854229h89.52309369z m0 0"/>
  <path fill="#fd0000"
        d="M586.40119205 849.43375423h11.47414461v12.91873221h-11.47414461zM586.40119205 871.17134274h11.47414461v12.50599227h-11.47414461zM697.00149164 898.01313788h47.96027484v18.65580343h-47.96027484zM586.40119205 908.40040311c3.89350485-0.82547771 7.78700971-1.74726197 11.47414461-2.66904622v-13.22140657h-11.47414461zM720.98162854 845.54025045a134.47037307 134.47037307 0 0 1-24.4203916 23.07211055h48.57938257a139.38196765 139.38196765 0 0 1-24.15899097-23.07211055z"/>
  <path fill="#fd0000"
        d="M957.45357277 751.84849231c-0.64662466 0.15133719-87.39060872 0.46777055-202.00823559 0.82547771-16.39949712 0-33.36307137 21.84765191-50.73938338 21.90268468-18.53198209 0-37.51797682-21.64128302-56.75161528-21.57249338-209.76772838 0.6053509-449.06005497 1.21070071-449.06005497 1.2107007V974.70004799h759.20591282z m-585.58036545 169.63573704l-6.14981221-7.9933786c13.31771205-9.83694712 22.43924488-23.8838314 27.51593459-41.92052602h-24.11771615v-9.42420825h33.70701952v7.731978q-7.37427085 34.09224358-30.95542575 51.60613487z m83.52461973 1.2244597q-24.90192114-20.14166373-36.18345478-44.47950882v42.01683256c0 7.1679009-3.38445945 10.86879372-10.04331601 10.86879372h-13.52408202l-2.14624288-9.53427061q6.4524866 0.61910882 12.29962338 0.61910774c2.35261285 0 3.59082941-1.54089201 3.5908294-4.40254919v-81.06194345h9.83694605v21.21478517a114.54883617 114.54883617 0 0 0 7.48433429 17.32128138 147.40286212 147.40286212 0 0 0 20.91211078-22.75567824l7.89707313 5.84713573a156.62070042 156.62070042 0 0 1-24.39287574 24.39287679 102.27672971 102.27672971 0 0 0 30.43262347 31.05173228z m99.73150481-4.60891916q-24.59924569-23.20969088-34.39491795-51.96384308v64.9788797h-10.04331603v-65.07518518a111.43953524 111.43953524 0 0 1-35.35797599 52.47288743l-5.50318756-9.12153176a98.24564452 98.24564452 0 0 0 32.89529974-43.35135567h-31.21682741v-9.32790172h39.25148086v-19.67389317h10.04331601v19.67389317h39.96689516v9.32790172h-32.05606412q9.63057716 24.4479085 33.21173312 43.55772456z m52.0739065 13.68917714h-9.3279017v-16.96357316c-7.78700971 2.04993741-15.89045278 3.79719937-24.29657027 5.43439685l-2.35261178-9.21783831 5.84713571-0.92178318v-60.67263707h-5.43439685v-9.02522626h41.41148167v9.02522626h-5.84713678v53.65607335c2.04993741-0.61910882 4.00356826-1.3757969 6.05350569-1.95363191v9.42420825l-6.05350569 1.84356745z m52.37658195-0.11006341c-10.45605487-10.86879372-17.32128138-21.51746062-20.63695121-32.08357996-4.1961803 14.55592968-11.79057797 25.31466-22.64561378 32.48256088l-5.8471357-7.7870097c10.66242483-6.56255001 17.52765028-17.11491143 20.80204632-31.87721h-18.71083619v-9.32790171h20.18293856q0.46777055-5.5031865 0.61910882-11.37783913v-4.00356826h-19.32994395v-9.24535416h25.41096547a139.93228579 139.93228579 0 0 0 9.53427167-21.42115514l9.02522628 3.38445946a141.45942092 141.45942092 0 0 1-8.81885738 18.03669568h13.63414543v9.23159623h-20.12790581v1.84356744q0 7.07159541-0.6191088 13.52408201h22.54930828v9.32790173h-19.88026208q3.98981034 15.68408282 21.51746064 31.97351655z m-41.50778716-89.4267882l7.48433426-4.71898257a122.96871262 122.96871262 0 0 1 9.01146835 15.78038832l-7.1679009 5.021658a134.64922718 134.64922718 0 0 0-9.25911207-16.16561131z m136.27266674 89.17914446h-9.4242072v-5.50318649h-47.91900105v5.50318649h-9.42420719v-42.5258769h66.76741544z m9.4242072-50.9044785a160.61051077 160.61051077 0 0 1-15.89045172-9.83694712v7.27796431H694.02977105v-7.48433426a162.2339514 162.2339514 0 0 1-16.28943372 10.24968595l-5.13172142-9.4792389a148.09076056 148.09076056 0 0 0 44.7821832-34.53249829h7.16790091a146.89381778 146.89381778 0 0 0 44.47950881 34.39491797z m-545.79232333-81.46092546v-22.60434l419.42539334-0.46777054a61.48435578 61.48435578 0 0 1 22.32918146 4.1273896l16.59210809 6.42497074c25.10829004 9.01146835 29.37325996 9.01146835 52.56919398-0.49528641l16.35822336-6.23235977a61.49811371 61.49811371 0 0 1 21.77886228-4.01732619l167.66834825-0.17885412 0.82547771 21.15975454z"/>
</svg>
