<?xml version="1.0" standalone="no"?><!DOCTYPE svg PUBLIC "-//W3C//DTD SVG 1.1//EN" "http://www.w3.org/Graphics/SVG/1.1/DTD/svg11.dtd"><svg class="icon" width="64px" height="63.88px" viewBox="0 0 1026 1024" version="1.1" xmlns="http://www.w3.org/2000/svg"><path fill="#000000" d="M514.0625 511.53125c1.78125 0 1.78125-2.8125 0-2.8125s-1.78125 2.8125 0 2.8125z"  /><path fill="#000000" d="M940.71875 212.9375H82.4375C54.6875 212.9375 32 190.15625 32 162.5s22.78125-50.4375 50.4375-50.4375H940.625c27.75 0 50.4375 22.78125 50.4375 50.4375S968.375 212.9375 940.71875 212.9375zM233.9375 448.4375H82.4375c-27.75 0-50.4375-22.78125-50.4375-50.4375 0-27.75 22.78125-50.4375 50.4375-50.4375h151.5c27.75 0 50.4375 22.78125 50.4375 50.4375 0 27.75-22.6875 50.4375-50.4375 50.4375z m0 235.59375H82.4375c-27.75 0-50.4375-22.78125-50.4375-50.4375 0-27.75 22.78125-50.4375 50.4375-50.4375h151.5c27.75 0 50.4375 22.78125 50.4375 50.4375 0 27.75-22.6875 50.4375-50.4375 50.4375z m674.71875 220.875L748.0625 744.21875c-19.59375-19.59375-19.59375-51.75 0-71.34375 19.59375-19.59375 51.75-19.59375 71.34375 0L980 833.5625c19.59375 19.59375 19.59375 51.75 0 71.34375-19.59375 19.59375-51.75 19.59375-71.34375 0z m-447.5625 14.71875H82.4375C54.6875 919.625 32 896.84375 32 869.1875c0-27.75 22.78125-50.4375 50.4375-50.4375h378.5625c27.75 0 50.4375 22.78125 50.4375 50.4375 0.1875 27.75-22.5 50.4375-50.34375 50.4375z m0 0"  /><path fill="#000000" d="M636.78125 258.875c-146.25 0-264.9375 118.6875-264.9375 265.03125S490.53125 788.9375 636.875 788.9375s264.9375-118.6875 264.9375-265.03125c0-146.4375-118.59375-265.03125-265.03125-265.03125z m0 450.46875c-102.46875 0-185.4375-83.0625-185.4375-185.4375 0-102.375 83.0625-185.4375 185.4375-185.4375s185.625 82.96875 185.625 185.4375c0 102.375-83.0625 185.4375-185.625 185.4375z m0 0"  /></svg>