<?xml version="1.0" standalone="no"?><!DOCTYPE svg PUBLIC "-//W3C//DTD SVG 1.1//EN" "http://www.w3.org/Graphics/SVG/1.1/DTD/svg11.dtd"><svg t="1591947305917" class="icon" viewBox="0 0 1024 1024" version="1.1" xmlns="http://www.w3.org/2000/svg" p-id="1676" xmlns:xlink="http://www.w3.org/1999/xlink" width="16" height="16"><defs><style type="text/css"></style></defs><path d="M512 0C294.4 0 118.4 170.4 118.4 379.2c0 69.6 20 138.4 57.6 196.8l308.8 433.6c6.4 8.8 16.8 14.4 27.2 14.4 11.2 0 21.6-5.6 27.2-14.4l310.4-434.4c36.8-58.4 56.8-126.4 56.8-196C905.6 170.4 728.8 0 512 0z" fill="#5262A6" p-id="1677"></path><path d="M512 400m-272 0a272 272 0 1 0 544 0 272 272 0 1 0-544 0Z" fill="#FFFFFF" p-id="1678"></path><path d="M552 264l-22.4 204.8H512l-24-203.2c-0.8-4-0.8-7.2-0.8-11.2 0-12 3.2-21.6 8.8-28.8 5.6-7.2 14.4-10.4 25.6-10.4 20.8 0 32 12.8 32 37.6-0.8 3.2-0.8 6.4-1.6 11.2z m1.6 288.8c0 8.8-3.2 16.8-9.6 23.2-6.4 6.4-14.4 9.6-23.2 9.6-8.8 0-16.8-3.2-23.2-9.6-6.4-6.4-9.6-14.4-9.6-23.2 0-8.8 3.2-16.8 9.6-23.2 6.4-6.4 14.4-9.6 23.2-9.6 8.8 0 16.8 3.2 23.2 9.6 6.4 6.4 9.6 14.4 9.6 23.2z" fill="#5262A6" p-id="1679"></path></svg>