<?xml version="1.0" standalone="no"?><!DOCTYPE svg PUBLIC "-//W3C//DTD SVG 1.1//EN" "http://www.w3.org/Graphics/SVG/1.1/DTD/svg11.dtd"><svg class="icon" width="64px" height="64.00px" viewBox="0 0 1024 1024" version="1.1" xmlns="http://www.w3.org/2000/svg"><path fill="#000000" d="M517.32071662 40.85552223c-257.18774091 0-465.82376842 208.58553158-465.82376842 465.82376843s208.48454062 465.82376842 465.82376842 465.82376841 465.82376842-208.48454062 465.82376843-465.82376841-208.63602752-465.82376842-465.82376843-465.82376843z m259.29594082 725.04396534A366.52377478 366.52377478 0 0 1 150.68332691 506.59092276a366.59951867 366.59951867 0 0 1 625.93333053-259.29593992 366.53639873 366.53639873 0 0 1 0 518.60450473z m0 0"  /><path fill="#000000" d="M271.15368487 415.90046363v181.48191014l-117.98344033-95.94202295z m610.30487985 85.55251118l-117.98343941 95.828408V415.90046363z m-601.11464387 46.70861715h86.18370859v-83.14133748h-86.18370859z m129.28187531-83.14133748h86.18370951v83.06559358h-86.18370951z m129.19350836 0h86.18370857v83.06559358h-86.18370857z m129.28187531 0h86.19633347v83.06559358H668.10117983z m0 0"  /><path fill="#000000" d="M343.52679197 343.60309952v8.11720004q-7.78897737 36.05400262-32.69603099 54.56071354l-6.50133462-8.44542273c14.07570424-10.38951085 23.70777875-25.2479003 29.03508557-44.27219364h-25.39938812v-9.96029721z m55.64637343-4.00179209a165.48736576 165.48736576 0 0 1-25.76548273 25.76548275 108.03576712 108.03576712 0 0 0 32.15320148 32.82227083l-6.5013346 9.4174668q-26.30831224-21.27135617-38.21269758-46.98634299v44.38580951c0 7.57437054-3.57257754 11.47517076-10.60411858 11.47517075h-14.30293504l-2.27231171-10.09916011q6.81693331 0.64382137 12.99004525 0.64382137c2.52479048 0 3.78718528-1.62848941 3.78718526-4.65823746v-85.6156311H360.834228v22.40751112a121.03843635 121.03843635 0 0 0 7.90259322 18.29210406 155.62806043 155.62806043 0 0 0 22.07928934-23.9855055zM457.50844021 337.87182613v-20.79164568h10.60411858v20.7790217h42.21448964v9.84668133h-33.87005879q10.22539996 25.81597869 35.06933367 46.01429893l-7.14515507 8.98825314q-25.99271355-24.51571194-36.26860945-54.87631221v68.63641775h-10.60411858V347.71850747a117.7057136 117.7057136 0 0 1-37.35426937 55.4443906l-5.84488924-9.63207452a103.78149624 103.78149624 0 0 0 34.75373588-45.7870681h-33.0116306v-9.84668135zM565.49371139 320.652758v9.53108264h-6.17311192v56.56792155c2.15869586-0.64382137 4.21639983-1.4138826 6.38771873-2.05770396v9.96029719l-6.38771873 1.94408812v20.45079992h-9.84668134v-17.79977049c-8.2308159 2.17131984-16.77722959 4.0017921-25.65186688 5.74389737l-2.52478958-9.74568947 6.17311101-0.97204407v-64.09179616h-5.73127338v-9.53108264z m-15.96929733 23.17757324v-13.63386662h-12.11899215v13.63386662z m0 22.52112698v-13.21727604h-12.11899215v13.20465205z m0 23.2785642v-13.97471237h-12.11899215v16.7772296c4.10278397-0.87105218 8.21819191-1.89359219 12.11899215-2.81514123z m43.95659583-49.90247516a147.85170704 147.85170704 0 0 0 10.09916012-22.62211884l9.53108267 3.57257754a149.4423245 149.4423245 0 0 1-9.30385185 19.0495413h14.40392784v9.74568949h-21.38497204v1.93146413q0 7.47337866-0.64382137 14.29031198h23.82139371v9.84668133h-21.00625341q4.21639983 16.56262278 22.72311072 33.78169092l-6.99366816 7.72585835c-11.0459562-11.47517076-18.29210408-22.72311072-21.76369066-33.88268279-4.44363063 15.37597189-12.44721482 26.73752679-23.98550551 34.31189644l-6.17311193-8.230815c11.26056394-6.93054916 18.50671089-18.07749725 21.97829747-33.66807596h-19.78172967v-9.84668135h21.32185212q0.49233448-5.84488924 0.64382138-12.01800118v-4.21639891h-20.33718409v-9.74568947z m-5.26418777-5.54191452l-7.57437056 5.30205884a142.14568072 142.14568072 0 0 0-9.84668133-16.99183643l7.90259321-4.97383707a129.81208176 129.81208176 0 0 1 9.51845868 16.66361466zM683.32566392 316.75195778a155.16097393 155.16097393 0 0 0 46.98634388 36.3696004l-5.51666656 9.84668135a169.38816597 169.38816597 0 0 1-16.77723052-10.38951084v7.66273751H651.05884747v-7.90259231a171.57210979 171.57210979 0 0 1-17.21906904 10.83134938l-5.4156747-9.96029719a156.38549675 156.38549675 0 0 0 47.30194258-36.48321627z m31.55987605 100.03218202h-10.02341622v-5.84488834h-50.65991329v5.84488834h-9.9602963v-44.92863899h70.58050589z m-9.74568947-66.36410696a147.32150061 147.32150061 0 0 1-25.55087592-24.35160015 142.03206578 142.03206578 0 0 1-25.76548274 24.35160015z m-0.21460684 50.77352824v-19.69336269h-50.7230332v19.70598666z"  /></svg>