<?xml version="1.0" standalone="no"?><!DOCTYPE svg PUBLIC "-//W3C//DTD SVG 1.1//EN" "http://www.w3.org/Graphics/SVG/1.1/DTD/svg11.dtd"><svg class="icon" width="64px" height="64.00px" viewBox="0 0 1024 1024" version="1.1" xmlns="http://www.w3.org/2000/svg"><path fill="#000000" d="M323.81585213 864.22831607v49.99988135a3.63749166 3.63749166 0 0 0 3.63749167 3.64999191h266.58686628a3.64999099 3.64999099 0 0 0 3.63749166-3.64999191V99.06763607a3.63749166 3.63749166 0 0 0-3.63749166-3.64999189H327.4533438a3.63749166 3.63749166 0 0 0-3.63749167 3.64999189v49.99988045H523.97787622a18.19995672 18.19995672 0 0 1 18.19995671 18.19995673v19.99995309a18.19995672 18.19995672 0 0 1-18.19995671 18.19995672H323.81585213v53.67487193h90.98728426a18.18745647 18.18745647 0 0 1 18.17495623 18.24995679v19.9999522a18.19995672 18.19995672 0 0 1-18.18745648 18.19995672H323.81585213v53.67487284h90.98728426A18.18745647 18.18745647 0 0 1 432.97809262 387.47945051v19.99995218a18.19995672 18.19995672 0 0 1-18.18745648 18.19995671H323.81585213v52.78737446H523.97787622a18.19995672 18.19995672 0 0 1 18.19995671 18.19995671v19.9999522a18.19995672 18.19995672 0 0 1-18.19995671 18.19995671H323.81585213v52.76237487h90.98728426A18.18745647 18.18745647 0 0 1 432.97809262 605.84143132v19.99995217a18.19995672 18.19995672 0 0 1-18.18745648 18.19995674H323.81585213v52.7748742h90.98728426A18.18745647 18.18745647 0 0 1 432.97809262 715.01617114v19.99995218a18.19995672 18.19995672 0 0 1-18.18745648 18.19995673H323.81585213v54.58737081H523.97787622a18.19995672 18.19995672 0 0 1 18.19995671 18.16245689v19.99995218a18.19995672 18.19995672 0 0 1-18.19995671 18.19995674zM269.22848222 59.01773073A18.19995672 18.19995672 0 0 1 287.42843895 40.83027426h347.49917387a18.18745647 18.18745647 0 0 1 18.19995674 18.18745647v895.29787188a18.19995672 18.19995672 0 0 1-18.19995674 18.18745647h-347.49917387A18.19995672 18.19995672 0 0 1 269.22848222 954.31560261z m0 0"  /><path fill="#000000" d="M732.7273804 319.71711104v7.76248201q-7.49998229 34.47491826-31.24992562 52.17487604l-6.24998495-8.07498089c13.46246794-9.9999761 22.67494579-24.12494253 27.74993394-42.33739951h-24.31244258v-9.52497764z m53.21237373-3.8249908a158.18712354 158.18712354 0 0 1-24.63744172 24.63744172 103.33725392 103.33725392 0 0 0 30.74992668 31.37492535l-6.24998494 9.01247846q-25.12494041-20.38745163-36.51241293-44.94989369v42.49989906c0 7.24998283-3.41249176 10.97497348-10.14997632 10.97497439H725.47739757l-2.17499466-9.62497688q6.5249849 0.62499869 12.42497022 0.62499776c2.38749431 0 3.6249914-1.54999599 3.62499141-4.44998948v-81.98730422h9.99997609v21.43744866a115.68722449 115.68722449 0 0 0 7.49998229 17.4999584A148.83714572 148.83714572 0 0 0 777.97727272 309.95463418zM738.21486759 438.46682859v-19.87495245h10.14997541v19.87495244h40.37490448v9.4249775h-32.41242309q9.78747645 24.68744089 33.53741979 43.99989589l-6.83748379 8.58747917q-24.84994136-23.44994468-34.68741697-52.49987516v65.61234439h-10.14997632v-65.73734412a112.4997326 112.4997326 0 0 1-35.72491469 53.01237434l-5.58748733-9.21247783a99.24976431 99.24976431 0 0 0 33.23742112-43.74989642h-31.54992516v-9.43747776zM737.97736745 546.20407282v9.11247862h-5.87498573v54.14987038c2.07499542-0.62499869 4.03749044-1.34999658 6.11248587-1.96249502v9.52497764l-6.11248587 1.86249577v19.57495292h-9.42497748v-17.0999596c-7.86248125 2.07499542-16.04996164 3.83749105-24.53744159 5.48748718l-2.37499497-9.312478 5.89998624-0.93749755v-61.24985389h-5.48748721v-9.11247861z m-15.32496281 22.14994726v-13.03746864h-11.59997306v13.04996889z m0 21.53744883v-12.67496969h-11.59997306v12.62496962z m0 22.26244676v-13.36246779h-11.59997306v16.04996165c3.97499013-0.82499806 7.89998108-1.76249563 11.62497266-2.68749386z m42.03739995-47.72488654a141.33716434 141.33716434 0 0 0 9.62497689-21.63744808l9.11247862 3.41249177a142.97466023 142.97466023 0 0 1-8.89997898 18.22495631h13.74996724v9.32497824H767.97729663v1.86249579q0 7.14998266-0.62499868 13.66246733h22.77494594v9.42497749h-20.1249519q4.03749044 15.82496268 21.72494798 32.26242284l-6.7249843 7.34998299c-10.56247445-10.97497348-17.49995838-21.73744823-20.81245002-32.39992283-4.24999008 14.69996504-11.91247195 25.57493929-22.87494608 32.82492211l-5.8374859-7.84998192c10.76247475-6.62498414 17.69995777-17.28745873 21.0124503-32.19992343h-18.9999552v-9.42497749h20.39995187q0.46249911-5.58748644 0.62499866-11.48747268v-4.03749044h-19.47495364v-9.32497733z m-4.99998848-5.27498755l-7.24998283 5.07498816a135.83717689 135.83717689 0 0 0-9.4249775-16.24996104l7.4999823-4.76248927a124.14970483 124.14970483 0 0 1 9.23747834 15.92496281zM747.11484565 666.70378576a148.38714684 148.38714684 0 0 0 44.93739344 34.78741803l-5.32498763 9.47497757a161.76211581 161.76211581 0 0 1-16.04996164-9.99997701v7.34998299h-54.41237009v-7.49998229a164.08710977 164.08710977 0 0 1-16.46246158 10.34997571l-5.17498741-9.52497765a149.5496443 149.5496443 0 0 0 45.23739209-34.88741726z m30.1249289 95.66227272h-9.52497765v-5.58748643H719.22741263v5.58748643h-9.52497764v-42.96239727h67.49983974zM767.97729663 698.90370918a140.88716547 140.88716547 0 0 1-24.43744233-23.29994446 135.78717682 135.78717682 0 0 1-24.6374408 23.29994446z m-0.21249963 48.54988462v-18.83745473H719.22741263v18.84995497z"  /></svg>