<?xml version="1.0" standalone="no"?><!DOCTYPE svg PUBLIC "-//W3C//DTD SVG 1.1//EN" "http://www.w3.org/Graphics/SVG/1.1/DTD/svg11.dtd"><svg class="icon" width="64px" height="56.74px" viewBox="0 0 1155 1024" version="1.1" xmlns="http://www.w3.org/2000/svg"><path fill="#000000" d="M803.21932097 403.99612357c-29.89516512 99.1193929-99.31681382 165.67843966-155.03181259 148.86945948l249.82204687 75.45708869c-55.65859255-16.92179173-76.54290327-110.6967183-46.64773815-209.74560433s98.97837821-165.34000316 154.56646296-148.93996727l-249.14517568-75.2173631c55.46117161 17.02050175 76.14806144 110.78132767 46.43621659 209.54818339zM174.32094363 410.13027265L575.7763428 531.276198c-55.65859255-16.82308082-76.59930951-110.7672261-46.70414437-209.7456043S628.31850535 155.80984935 684.11811257 172.6611333c0 0-387.7064437-117.55004417-390.41393121-118.45253939A187.95879835 187.95879835 0 0 0 59.54889293 179.78238788c-28.87985741 95.65042573 22.36496806 196.17996817 114.7720507 230.34788477zM749.52083603 615.94156108c-56.87132025-17.21792265-127.11085664 49.28471787-157.07652865 148.4605161s-8.12245981 193.41607534 48.69245511 210.70450578 127.04034885-49.35522474 157.07652867-148.53102387 8.12245981-193.54298937-48.69245513-210.63399801z m10.84404799 199.16948415c-18.9665078 62.69523686-63.37210896 104.6753817-99.30271226 93.71852124s-49.55264567-70.50746418-30.64254409-133.07578791 63.24519493-104.53436611 99.17579911-93.83133282 49.53854411 70.38055107 30.78355879 133.20270105z"  /><path fill="#000000" d="M719.90770119 183.025731c-56.74440712-17.21792265-127.11085664 49.28471787-157.00602086 148.39000919s-8.26347449 193.47248157 48.53733797 210.61989645 127.11085664-49.35522474 157.07652866-148.46051611S776.70851456 200.11674054 719.90770119 183.025731z m10.84404799 199.09897725c-18.98060935 62.63883153-63.38621051 104.73178701-99.31681383 93.88773906s-49.69366035-70.50746418-30.71305191-133.14629482 63.31570273-104.73178701 99.24630694-93.88773997 49.76416814 70.40875328 30.78355879 133.16039729zM1040.56154628 279.77607289c-56.87132025-17.14741485-127.18136353 49.35522474-157.00602084 148.46051699s-8.20706917 193.47248157 48.60784575 210.69040423 127.18136353-49.35522474 157.14703645-148.53102388 8.13656137-193.47248157-48.74886136-210.61989734z m8.67241789 198.42210606c-18.33194036 60.63641924-61.14407262 101.22051519-95.98886133 90.70080215s-47.94507521-68.0679063-29.61313486-128.67612241 61.14407262-101.15000831 95.89015134-90.63029437 48.0860908 68.0679063 29.71184485 128.60561463zM298.65380585 479.74934317a187.73317433 187.73317433 0 0 0-119.45374552 355.75246096l431.42107118 130.25548883c-55.72909943-16.80897926-76.59930951-110.6967183-46.70414438-209.74560431s99.24630693-165.62203342 154.97540634-148.81305324z m97.00416905 171.91129873a117.53594262 117.53594262 0 0 1 3.79330119 16.92179174l-7.96734266 2.56647193a128.63381774 128.63381774 0 0 0-3.97662146-17.33073514zM136.81097299 647.86734072c14.94758256-5.23165386 27.24408384-15.5116422 36.91770789-30.55793476l-22.01243001-6.79691964 2.72158726-8.61601256 30.81176191 9.51850779-2.17162919 7.05074678q-16.41413744 29.07727834-42.89674162 38.44066899z m79.33499832 33.73077098c-11.3799045-16.92179173-18.24733192-33.94229347-20.51767202-50.84998364l-11.84525411 38.35606053c-2.03061541 6.55719403-6.14825064 8.96854973-12.24009596 7.0507468l-12.35290751-3.73689588 0.71917585-9.32108687q5.72520569 2.38315256 11.06967202 4.03302679c2.15752853 0.66277055 3.70869275-0.39484184 4.52657953-3.0177191l22.87262146-74.07514225 8.99675193 2.82029907-5.97903284 19.38955276a109.56859905 109.56859905 0 0 0 1.94600605 17.93709852 140.93031902 140.93031902 0 0 0 25.52370183-14.89117633l5.57008945 7.55840019A149.81425939 149.81425939 0 0 1 205.20321241 638.20781825a97.7938527 97.7938527 0 0 0 19.05111716 36.96001254z m92.42118417 23.97253761q-15.93468715-28.20298531-16.71026925-57.16745208l-18.33194037 59.38138593-9.18007218-2.82029816L282.7614234 645.41368034a106.5367784 106.5367784 0 0 1-47.11308778 37.97532027l-2.48186258-9.87104495a93.95824684 93.95824684 0 0 0 42.30447888-30.33231073l-28.55552337-8.81343348 2.63697881-8.46089541 35.87419796 11.06967201 5.55598789-17.97940319 9.18007219 2.82029816-5.55598789 17.97940321 36.52286605 11.28119449-2.63697881 8.46089541-29.31700394-9.05315815q1.96010762 25.07245467 18.04991101 49.17190538z m35.2537321 24.50839412l4.76630423-15.5116422c-7.69941487-0.32433404-15.58214999-1.01530771-23.73281203-1.88959982l0.45124718-9.09546283 5.64059724 0.80378522 17.11921265-55.44707005-4.96372605-1.53706266 2.5382688-8.23527139 37.83430559 11.67603542-2.53826881 8.23527229-5.34446541-1.64987514-15.11680036 48.97448539c2.04471606 0 4.03302678-0.08460935 6.07774283-0.07050779l-2.66518191 8.61601165h-6.04954064l-5.45727789 17.69737383z m79.95546419-48.6924542l-2.59467505 8.4608954-18.44475283-5.64059724-0.52175495 1.6921789q-2.00241229 6.45848404-4.37146239 12.18369064l20.63048357 6.27516377-2.6369788 8.4608954-18.16272257-5.64059634q-0.7755821 15.5116422 10.64662707 35.2537321l-8.13656138 4.76630422c-6.48668714-12.87466338-9.75823338-24.5506988-9.77233495-35.12681896-7.93914046 12.11318192-17.90889632 19.7420899-29.866962 23.2956664l-3.1446322-8.7711288c11.59142699-2.98951687 20.84200606-10.68893174 28.0055644-23.25336173l-17.13331423-5.28805919 2.63697972-8.4608963 18.44475285 5.64059724q1.98831072-4.93552293 3.76509808-10.22358211l1.12811926-3.65228651-17.6127645-5.42907477 2.60877661-8.4608954 23.22515861 7.27636988a133.73855756 133.73855756 0 0 0 14.75016165-16.92179174l7.29047148 5.64059726a135.1487071 135.1487071 0 0 1-13.14259121 14.10149265z m63.04777402 92.49169106l-8.61601165-2.66518192 1.56526578-5.06243606-43.82743998-13.52333145-1.56526577 5.06243605-8.61601167-2.66518193 12.00037038-38.86371484 61.05946327 18.85369622zM509.79545815 729.99443499a153.56525681 153.56525681 0 0 1-11.74654411-13.46692614l-2.05881762 6.64180338-49.25651474-15.20140972 2.11522385-6.83922339a155.29974041 155.29974041 0 0 1-17.78198229 4.76630423l-1.97420917-9.99795807a141.60719114 141.60719114 0 0 0 50.66666428-18.92420311l6.55719405 2.03061449a140.49317342 140.49317342 0 0 0 30.92457346 44.01075935z"  /><path fill="#000000" d="M438.57868891 744.25245413l5.26267655-17.04447411 43.83026047 13.53461253-5.26267744 17.04447411zM339.87246923 705.41553306c3.7933012 0.35253715 7.61480642 0.6063643 11.2811945 0.80378432l3.72279431-12.0849788-10.49151083-3.24334312zM346.83578618 682.90955031l3.52819387-11.42643988 10.4816391 3.23770304-3.52819298 11.42502965zM451.7678146 700.12747299l44.39149962 13.70665082a133.41422353 133.41422353 0 0 1-15.6103522-27.80814349 128.56330996 128.56330996 0 0 1-28.78114741 14.10149267zM352.8571237 663.43961897l3.64523617-11.80294945 10.48304936 3.2362928-3.64523529 11.80294945z"  /></svg>