<?xml version="1.0" standalone="no"?><!DOCTYPE svg PUBLIC "-//W3C//DTD SVG 1.1//EN" "http://www.w3.org/Graphics/SVG/1.1/DTD/svg11.dtd"><svg t="1592984426637" class="icon" viewBox="0 0 1024 1024" version="1.1" xmlns="http://www.w3.org/2000/svg" p-id="1901" xmlns:xlink="http://www.w3.org/1999/xlink" width="16" height="16"><defs><style type="text/css"></style></defs><path d="M513.536 193.024l320 292.352c-16.384 2.048-31.744 8.704-44.032 19.456-11.776 10.752-25.6 29.184-25.6 57.856v272.384h-117.248v-115.712c0-43.52-35.84-78.848-80.384-78.848H460.288c-44.544 0-80.384 35.328-80.384 78.848v115.712H264.192v-272.896c0-39.936-30.72-73.216-70.144-78.336l319.488-290.816" fill="#2C2C2C" p-id="1902"></path><path d="M513.536 128c-11.264 0-22.528 3.584-30.208 11.264L114.688 476.16c-13.312 11.264-16.896 28.16-9.728 44.032 7.168 14.848 22.016 24.064 39.424 24.064h39.424c11.264 0 20.48 8.704 20.48 18.944v293.376c0 21.504 19.456 39.424 43.008 39.424h150.016c23.552 0 43.008-17.92 43.008-39.424v-136.192c0-10.24 9.216-18.944 20.48-18.944h105.472c11.264 0 20.48 8.704 20.48 18.944v136.192c0 21.504 19.456 39.424 43.52 39.424h150.016c24.064 0 44.032-17.92 44.032-39.424V563.2c0-5.632 1.536-9.216 5.632-13.312 3.584-3.072 9.216-5.12 14.848-5.12h37.376c17.408 0 32.256-9.216 39.424-24.064 8.192-15.36 4.096-32.768-8.192-44.544l-368.64-336.896c-9.216-7.68-20.48-11.264-31.232-11.264z" fill="#2C2C2C" p-id="1903"></path></svg>