<?xml version="1.0" standalone="no"?><!DOCTYPE svg PUBLIC "-//W3C//DTD SVG 1.1//EN" "http://www.w3.org/Graphics/SVG/1.1/DTD/svg11.dtd"><svg class="icon" width="64px" height="64.00px" viewBox="0 0 1024 1024" version="1.1" xmlns="http://www.w3.org/2000/svg"><path fill="#000000" d="M457.28143928 46.8828125H101.59509142A54.88816225 54.88816225 0 0 0 46.8828125 101.59509142v875.52209608h465.12346931V101.59509142A54.88816225 54.88816225 0 0 0 457.28143928 46.8828125zM227.45217771 711.7218036H145.37747798v-82.07469973h82.07469973z m0-218.87424198H145.37747798v-82.07470067h82.07469973z m0-218.8742429H145.37747798v-82.08726244h82.07469973zM418.9765625 711.7218036h-82.07469973v-82.07469973h82.07469973z m0-218.87424198h-82.07469973v-82.07470067h82.07469973z m0-218.8742429h-82.07469973v-82.08726244h82.07469973zM922.40490858 484.64386008H621.44340234a54.87559956 54.87559956 0 0 0-54.71227891 54.72484254v437.74848488h136.78697955V785.59280271c0-16.41996484 10.94245596-27.36242082 27.36242081-27.36242082h82.07470064c16.41996484 0 27.36242082 10.94245596 27.36242082 27.36242082v191.52438479h136.79954225V539.35613992a54.88816225 54.88816225 0 0 0-54.71227892-54.72484254z m0 0"  /><path fill="#000000" d="M626.31788407 384.51599283v6.62075058q-6.35692648 29.37251649-26.63376205 44.46079361l-5.28906283-6.8845756c11.47010599-8.46752655 19.32203991-20.55322328 23.64374439-36.08120964h-20.72910662v-8.11575895z m45.34020937-3.26640445a134.78944748 134.78944748 0 0 1-20.99293162 20.99293163 88.0296069 88.0296069 0 0 0 26.1940537 26.69657648l-5.28906374 7.67605151q-21.43263998-17.33707147-31.13134897-38.27975046v36.16915041c0 6.16847953-2.91463778 9.34694232-8.64340986 9.3469432h-11.64598932l-1.85933774-8.2037015q5.55288784 0.52765001 10.59068928 0.52765001c2.02265839 0 3.09052111-1.31912504 3.09052112-3.76892814v-69.762867h8.46752652v18.25417719a98.69567514 98.69567514 0 0 0 6.44486724 14.91239377 126.76162931 126.76162931 0 0 0 17.97778949-19.63611758zM719.19684544 379.84252168v-16.93505216H727.80256538v16.93505216h34.39775432v8.02781728h-27.63880852q8.34189493 21.03062156 28.58104055 37.48827544l-5.7538975 7.34941115q-21.16881497-19.97532152-29.54839891-44.7246186v55.91833596h-8.64340987v-56.03140395a95.89410445 95.89410445 0 0 1-30.42781651 45.16432694l-4.77397553-7.86449755a84.56219277 84.56219277 0 0 0 28.31721646-37.3123921h-26.89758705v-8.02781819zM807.21388963 365.82210732v7.76399227h-5.02523783v46.13168529c1.75883338-0.52765001 3.44228779-1.14324168 5.20112117-1.6708917v8.11575985l-5.20112117 1.52013469v16.67122715h-8.02781819v-14.49781175c-6.70869315 1.75883338-13.6686477 3.26640445-20.90498995 4.67347115l-2.02265838-7.9398765 5.02523783-0.79147504v-52.21222315h-4.67347115v-7.76399228z m-13.05305602 18.84464253v-11.1183393H784.33649393v11.1183393z m0 18.34211886v-10.76657264H784.33649393v10.76657264z m0 18.97027324v-11.38216432H784.33649393v13.66864771c3.30409439-0.67840704 6.64587689-1.46988205 9.82433968-2.26135707z m35.80482103-40.66673823a120.3670138 120.3670138 0 0 0 8.20370152-18.43006052l7.76399227 2.91463778a121.86202217 121.86202217 0 0 1-7.5378572 15.52798545h11.73393099v7.93987652H832.70440999v1.58295004q0 6.08053784-0.52765001 11.64598842h19.40998158v8.02781817h-17.11093549q3.44228779 13.49276437 18.51800219 27.52574145l-5.72877117 6.28154752c-8.99517564-9.34694232-14.91239377-18.5180022-17.72652718-27.63880944-3.61817112 12.56309503-10.13841733 21.78440665-19.49792417 27.96544979l-5.02523783-6.70869316c9.17105898-5.64082951 15.0757144-14.72394771 17.90241052-27.43779976h-16.14357713v-7.95243832h17.37476048q0.40201932-4.76141283 0.52765002-9.78665157v-3.44228778h-16.58328547v-7.93987652z m-4.17094747-4.4724624l-6.28154749 4.35939442a115.78148431 115.78148431 0 0 0-8.02781729-13.81940472l6.44486723-4.05787945a105.66819239 105.66819239 0 0 1 7.86449755 13.51788975zM903.18337304 362.64364452a126.43498895 126.43498895 0 0 0 38.27975045 29.63634059l-4.49758781 8.02781817a137.96791027 137.96791027 0 0 1-13.66864771-8.46752653v6.28154753h-46.40807302v-6.44486724a139.77699538 139.77699538 0 0 1-14.02041436 8.79416596L858.45875444 392.36792677a127.40234731 127.40234731 0 0 0 38.54357547-29.72428225z m25.62871376 81.49679707h-8.11575896v-4.76141283h-41.24464179v4.76141283h-8.11575893v-36.55860611H928.8120868z m-7.93987562-54.02130827a120.01524713 120.01524713 0 0 1-20.8170492-19.84969084 115.76892068 115.76892068 0 0 1-20.99293161 19.84969084z m-0.13819431 41.33258253v-16.06819816h-41.28233082v16.06819816z"  /></svg>