<?xml version="1.0" standalone="no"?><!DOCTYPE svg PUBLIC "-//W3C//DTD SVG 1.1//EN" "http://www.w3.org/Graphics/SVG/1.1/DTD/svg11.dtd"><svg class="icon" width="64px" height="35.56px" viewBox="0 0 1843 1024" version="1.1" xmlns="http://www.w3.org/2000/svg"><path fill="#000000" d="M466.78550666 642.43508789h167.11679867q0 156.06849691-57.10535027 245.73490026t-196.24210001 89.66640426q-164.24244347 0-228.21929906-85.04048874Q88.94255354 807.14910608 88.83027423 610.3905209v-189.2583154Q88.83027423 209.73237429 155.23236687 128.21746183 222.21831265 46.25343121 367.2160512 46.25343121q136.30730589 0 196.84840883 72.82447982t60.63092655 225.32248817h-164.30981143q0-82.63770737-16.90929148-122.83376615t-64.04422353-40.28588242q-118.29767518 0-118.20785065 186.38396019V657.63773134q0 100.17576426 30.24809534 142.66232512 30.85440505 42.48656085 89.06009455 42.48656084 44.28303252 0 65.12210615-44.91179791 21.01872091-45.49565105 21.01872181-155.48464286zM1718.52221665 763.31519171V411.74563951h-115.76015792l-169.56449141 352.33305259v81.15561797h180.90472066v113.8738626h104.41992867v-113.8738626h47.33703498v-81.91911836z m-104.48729661 0h-104.06063507l104.06063507-227.86000545zM1231.58850801 588.74303369h-13.27143681v18.36892521c4.4911796-0.94314764 8.98235922-2.02103119 13.27143681-3.07645814zM1227.68118151 737.2888042h55.44361361v21.55766358h-55.44361361zM1227.20960772 703.29057396h56.13974694a161.0761617 161.0761617 0 0 1-27.95759419-26.655152 155.32745221 155.32745221 0 0 1-28.18215275 26.655152z"  /><path fill="#000000" d="M1168.46497644 64.77954802v353.4558466h-233.5413479V64.77954802h-167.07188643v894.41844828h167.094343V549.26556392h233.541347v409.93243238h167.11679868V64.77954802z m35.65996689 215.57662765v-10.89111019h38.96098458v8.98235922q-8.53324197 39.45501409-35.77224712 59.71023458l-7.11851961-9.22937442c15.4047464-11.36268492 25.93656297-27.59829965 31.75264042-48.45982897z m103.05011947 124.96707757v10.77883088h-37.07468838q11.22794903 28.24952073 38.37713054 50.34612518l-7.81465295 9.83568323q-28.42916798-26.83479927-39.67957269-60.04707252v75.09252532h-11.60970014v-75.22726121a128.78457951 128.78457951 0 0 1-40.86973554 60.63092655l-6.39993148-10.55427226a113.55948038 113.55948038 0 0 0 38.01783692-50.09910997H1203.99020836v-10.77883179h45.36091515v-22.77028121h11.60970013v22.74782552z m3.52557629 220.29236679l-7.70237365 8.42096177c-12.08127396-12.55284777-20.00820622-24.88113602-23.80325247-37.07468839-4.85047413 16.81946786-13.63073041 29.19266837-26.18357818 37.54626222l-6.73676943-8.98235923c12.32828824-7.59009343 20.21030915-19.78364669 24.05026769-36.85012975h-21.66994198v-10.77883182h23.33167866q0.53894178-6.3999315 0.71858902-13.15915656v-4.62591552h-22.2762517v-10.66655157h29.37231563a161.68247142 161.68247142 0 0 0 11.02584609-24.70148877l10.41953727 3.90732649a163.09719289 163.09719289 0 0 1-10.19497865 20.83907455h15.71912955v10.66655157h-23.42150228v2.1333105q0 8.17394747-0.71858905 15.71912863h26.04884229v10.7788318H1285.72967944q4.62591551 17.96471934 24.97095965 36.82767408z m-107.09218093-4.73819482l-2.71716454-10.66655156 6.73677033-1.05542787v-70.15222756h-6.28765219v-10.41953728h47.85352017v10.41953728h-6.73676942v61.91091303c2.3578691-0.71858902 4.62591551-1.54945736 6.98378462-2.24558979v10.8911111l-6.98378462 2.2455898v22.45589896h-10.77883089v-19.53663239c-9.09463945 2.22313413-18.43629317 4.15434168-28.1596971 6.1304606z m51.40155212-90.27271309l8.6455204-5.45678383a141.89882473 141.89882473 0 0 1 10.41953728 18.23419024l-8.28622679 5.88344539a155.70920239 155.70920239 0 0 0-10.86865452-18.68330745z m39.09571956 245.30823872h-10.89111109v-6.39993149h-55.60080518v6.39993149h-10.89111111v-49.24578595h77.22583582z m10.8911111-58.87936716a185.37344459 185.37344459 0 0 1-18.36892522-11.36268492v8.42096269h-62.38248685v-8.64552131a187.79868166 187.79868166 0 0 1-18.84049905 11.85671443l-5.90590108-10.84619883a171.11394878 171.11394878 0 0 0 51.76084665-39.92658789h8.28622588a169.76659527 169.76659527 0 0 0 51.40155302 39.79185201z m-1.05542694-377.61839359q-28.78846251-23.2867673-41.8128841-51.40155213v48.57210829c0 8.28622678-3.90732648 12.55284777-11.60969922 12.55284777h-15.71912955l-2.49260501-10.95847814q7.45535844 0.71858902 14.21458445 0.71858813c2.71716363 0 4.15434168-1.77401599 4.15434078-5.09748843V240.0253819h11.36268492v24.52184151a132.71436166 132.71436166 0 0 0 8.64552129 20.03066191 170.32799272 170.32799272 0 0 0 24.162547-26.29585751l9.11709511 6.73676943a180.92717634 180.92717634 0 0 1-28.18215278 28.24952072 118.23030724 118.23030724 0 0 0 35.18839309 35.92943778z"  /><path fill="#000000" d="M1218.3170712 539.00321822h13.27143681v14.93317257h-13.27143681zM1218.3170712 564.10891286h13.27143681v14.46159875h-13.27143681z"  /></svg>