<?xml version="1.0" standalone="no"?><!DOCTYPE svg PUBLIC "-//W3C//DTD SVG 1.1//EN" "http://www.w3.org/Graphics/SVG/1.1/DTD/svg11.dtd"><svg class="icon" width="64px" height="64.00px" viewBox="0 0 1024 1024" version="1.1" xmlns="http://www.w3.org/2000/svg"><path fill="#000000" d="M900.238649 47.717824l-232.153096 84.052532C29.694559 368.390244 193.933208 669.802627 257.236773 754.551595l151.462664-173.100188-23.990994-127.90394a11.959475 11.959475 0 1 1 23.582739-4.418762l20.508818 109.364353 210.419512-240.486304a12.007505 12.007505 0 1 1 18.083302 15.825891L357.787617 676.070544l114.19137-12.295685a11.863415 11.863415 0 0 1 13.23227 10.638649 12.007505 12.007505 0 0 1-10.638649 13.232271l-129.560976 13.95272a11.719325 11.719325 0 0 1-7.756848-2.041276l-64.696435 73.942214c2.425516 2.737711 3.818386 4.154597 3.818386 4.154597l9.509944 34.533583-108.067542 134.075798 84.052533 30.018761 60.037523-136.093058C836.214634 920.255159 798.174859 481.981238 798.174859 481.981238 772.166604 133.763602 900.238649 47.717824 900.238649 47.717824z"  /></svg>