<?xml version="1.0" standalone="no"?><!DOCTYPE svg PUBLIC "-//W3C//DTD SVG 1.1//EN" "http://www.w3.org/Graphics/SVG/1.1/DTD/svg11.dtd"><svg class="icon" width="64px" height="64.00px" viewBox="0 0 1024 1024" version="1.1" xmlns="http://www.w3.org/2000/svg"><path fill="#000000" d="M816.014222 204.8v646.428444c0 83.171556-60.814222 147.171556-140.8 147.171556H348.728889c-76.8 0-140.8-64-140.8-147.171556V169.528889C207.985778 86.471111 268.8 22.414222 348.785778 22.414222h323.185778c76.8 0 144.042667 64 144.042666 147.171556V204.8z m60.757334 0h121.628444c0 79.985778-51.2 147.228444-121.628444 172.828444V204.8z m0 399.985778h121.628444c0 80.042667-51.2 147.228444-121.628444 172.828444V604.728889zM147.171556 380.814222A185.173333 185.173333 0 0 1 25.6 204.8h121.571556v176.014222z m0 396.8A184.092444 184.092444 0 0 1 25.6 604.728889h121.571556v172.828444zM345.6 115.2c-25.6 0-44.828444 22.414222-44.828444 48.014222V860.728889c0 28.842667 22.414222 48.014222 44.828444 48.014222h329.614222c25.6 0 44.771556-22.414222 44.771556-48.014222V163.271111c0-28.785778-22.414222-48.014222-44.771556-48.014222H345.6zM512 451.185778a121.571556 121.571556 0 1 1 0-243.2 121.571556 121.571556 0 1 1 0 243.2zM512 819.2a121.571556 121.571556 0 1 1 0-243.2A121.571556 121.571556 0 1 1 512 819.2z"  /></svg>