<?xml version="1.0" standalone="no"?><!DOCTYPE svg PUBLIC "-//W3C//DTD SVG 1.1//EN" "http://www.w3.org/Graphics/SVG/1.1/DTD/svg11.dtd"><svg t="1590384950118" class="icon" viewBox="0 0 1024 1024" version="1.1" xmlns="http://www.w3.org/2000/svg" p-id="1837" xmlns:xlink="http://www.w3.org/1999/xlink" width="16" height="16"><defs><style type="text/css"></style></defs><path d="M511.930054 0C294.659944 0 118.084871 170.091457 118.084871 379.08461 118.22282 448.886944 138.087516 517.309785 175.47177 576.214126l309.144327 433.298676c6.069768 9.104652 16.415964 14.622623 27.313957 14.484674 10.897993 0 21.244188-5.517971 27.313957-14.484674l310.109972-434.678169c36.970406-58.628442 56.697152-126.499486 56.697152-195.750023C905.775237 170.091457 729.062214 0 511.930054 0z" fill="#5262A6" p-id="1838"></path><path d="M531.380902 195.198225c-21.658036 0-39.177594 17.519558-39.177595 39.177595s17.519558 39.177594 39.177595 39.177594 39.177594-17.519558 39.177594-39.177594c0-10.346196-4.138478-20.278544-11.44979-27.727805-7.449261-7.311312-17.381609-11.44979-27.727804-11.44979m-162.090399 57.662798l29.383195 0.137949-37.522203 37.384254 8.139008-37.522203z m79.87263 80.838276l-28.417551 44.143768-19.174949-15.31237 47.5925-28.831398zM448.611336 421.710937l110.773269 89.253181-103.461957 72.009522h289.693479l-133.948747-107.600435-38.763746 24.417022-116.29124-93.253711 52.696624-98.219884c4.000529-7.449261 3.586681-16.415964-0.965645-23.451377l-42.902225-63.732566c-4.276428-6.207717-11.311841-9.932348-18.899051-9.932347h-93.39166c-10.208246 0-19.174949 6.897464-21.795985 16.829811L313.834894 292.314516l-12.829283-10.346196c-1.793341-1.379493-4.000529-2.069239-6.207717-1.793341-3.310783 0.413848-6.069768 2.896935-6.897464 6.069769-0.965645 3.172833 0.137949 6.621565 2.758985 8.828753l19.037 15.174421c-0.137949 6.069768 2.207188 11.863638 6.483616 16.278014 1.517442 1.517442 3.172833 2.896935 4.966174 4.000529l-10.484145 10.346196c-4.552326 4.552326-7.035413 10.760044-7.035413 17.10571 0 6.483616 0.689746 93.115761 0.689747 99.737327l-24.83087 94.909102c-2.483087 8.414906-0.275899 17.519558 5.931819 23.727275 6.207717 6.345667 15.31237 8.690804 23.727275 6.207717 8.414906-2.483087 14.760573-9.242601 16.691863-17.795456l25.520616-97.668088c0.551797-2.069239 0.827696-4.138478 0.827695-6.345666 0-2.207188-0.275899-46.350957-0.551797-74.35466l57.24895 70.216181-48.144298 93.115762c-4.138478 7.725159-3.72463 16.967761 0.965645 24.279072 4.690275 7.311312 12.967232 11.587739 21.658037 11.173892 8.690804-0.413848 16.415964-5.517971 20.278543-13.38108l55.31766-107.186588c4.414377-8.552855 3.310783-18.761102-2.758986-26.210362l-10.070297-12.415435c0.965645-1.241543 1.793341-2.621036 2.483087-4.000529v-0.275898z" fill="#FFFFFF" p-id="1839"></path></svg>