<?xml version="1.0" standalone="no"?><!DOCTYPE svg PUBLIC "-//W3C//DTD SVG 1.1//EN" "http://www.w3.org/Graphics/SVG/1.1/DTD/svg11.dtd"><svg t="1590049640172" class="icon" viewBox="0 0 1024 1024" version="1.1" xmlns="http://www.w3.org/2000/svg" p-id="1457" xmlns:xlink="http://www.w3.org/1999/xlink" width="16" height="16"><defs><style type="text/css"></style></defs><path d="M552.666614 18.48773l258.891682 295.978489c19.617345 22.481191 17.326269 56.560959-5.01173 76.178305-9.880269 8.591538-22.481191 13.316884-35.511691 13.460076H252.965125C223.181126 404.1046 198.981627 379.905101 198.981627 350.121102c0-13.0305 4.725346-25.774614 13.460077-35.511691L471.333386 18.48773c19.617345-22.481191 53.553921-24.772268 76.035113-5.154923l0.143192 0.143192c1.8615 1.431923 3.579808 3.150231 5.154923 5.011731z" fill="#475AB1" p-id="1458"></path><path d="M552.666614 1005.655462l258.891682-295.978489c19.617345-22.481191 17.469461-56.560959-5.01173-76.178304-9.880269-8.591538-22.481191-13.460076-35.511691-13.460077H252.965125C223.181126 620.038592 198.981627 644.238091 198.981627 674.02209c0 13.0305 4.725346 25.774614 13.460077 35.511691l259.034874 295.978489c19.617345 22.481191 53.697113 24.772268 76.035113 5.154923 0 0 0.143192 0 0.143192-0.143192 1.718308-1.431923 3.436615-3.007038 5.011731-4.868539z" fill="#DDDDDD" p-id="1459"></path></svg>