<?xml version="1.0" standalone="no"?><!DOCTYPE svg PUBLIC "-//W3C//DTD SVG 1.1//EN" "http://www.w3.org/Graphics/SVG/1.1/DTD/svg11.dtd"><svg t="1592879192476" class="icon" viewBox="0 0 1024 1024" version="1.1" xmlns="http://www.w3.org/2000/svg" p-id="2801" xmlns:xlink="http://www.w3.org/1999/xlink" width="16" height="16"><defs><style type="text/css"></style></defs><path d="M520.704 0C303.616 0 126.976 169.984 126.976 378.88c0 69.632 19.968 138.24 57.344 197.12L493.056 1008.64c6.144 9.216 16.384 14.848 27.136 14.336 10.752 0 20.992-5.632 27.136-14.336l310.272-434.688c36.864-58.88 56.832-126.464 56.832-195.584 0-208.384-176.64-378.368-393.728-378.368z" fill="#2874FF" p-id="2802"></path><path d="M395.776 265.216c6.144 5.632 15.872 5.12 21.504-1.536 5.632-6.144 5.12-15.872-1.536-21.504s-15.872-5.12-21.504 1.536c-5.632 6.144-5.12 15.872 1.536 21.504zM395.776 402.432c6.144 5.632 15.872 5.12 21.504-1.536 5.632-6.144 5.12-15.872-1.536-21.504-6.144-5.632-15.872-5.12-21.504 1.536-5.632 6.144-4.608 15.872 1.536 21.504zM395.776 545.28c6.144 5.632 15.872 5.12 21.504-1.536 5.632-6.144 5.12-15.872-1.536-21.504-6.144-5.632-15.872-5.12-21.504 1.536-5.632 6.144-5.12 15.872 1.536 21.504zM592.384 612.864c9.216 8.192 23.552 7.168 31.744-2.048 8.192-9.216 7.168-23.552-2.048-31.744-9.216-8.192-23.552-7.168-31.744 2.048-8.192 9.728-7.168 23.552 2.048 31.744zM592.384 535.04V390.144c0-8.192 6.656-14.848 14.848-14.848s14.848 6.656 14.848 14.848v145.408c0 8.192-6.656 14.848-14.848 14.848s-14.848-7.168-14.848-15.36zM485.888 238.592h145.408c8.192 0 14.848 6.656 14.848 14.848 0 8.192-6.656 14.848-14.848 14.848H485.888c-8.192 0-14.848-6.656-14.848-14.848-0.512-7.68 6.656-14.848 14.848-14.848z" fill="#FFFFFF" p-id="2803"></path><path d="M684.544 324.608H339.456c-24.064 0-43.52-19.456-43.52-43.52V216.576c0-24.064 19.456-43.52 43.52-43.52h345.088c24.064 0 43.52 19.456 43.52 43.52V281.6c0 23.552-19.456 43.008-43.52 43.008zM339.456 190.464c-14.336 0-26.624 11.776-26.624 26.624v65.024c0 14.336 11.776 26.624 26.624 26.624h345.088c14.336 0 26.624-11.776 26.624-26.624V216.576c0-14.336-11.776-26.624-26.624-26.624l-345.088 0.512z" fill="#FFFFFF" p-id="2804"></path><path d="M700.928 466.944h-44.032v-16.896h44.032c5.632 0 10.24-5.632 10.24-12.288V344.576c0-6.656-4.608-12.288-10.24-12.288H323.072c-5.632 0-10.24 5.632-10.24 12.288v93.696c0 6.656 4.608 12.288 10.24 12.288h229.376v16.896H323.072c-14.848 0-27.136-12.8-27.136-29.184V344.576c0-15.872 12.288-29.184 27.136-29.184h377.856c14.848 0 27.136 12.8 27.136 29.184v93.696c0 15.872-12.288 28.672-27.136 28.672z" fill="#FFFFFF" p-id="2805"></path><path d="M550.912 609.28H323.072c-14.848 0-27.136-12.8-27.136-29.184V487.424c0-15.872 12.288-29.184 27.136-29.184h229.376v16.896H323.072c-5.632 0-10.24 5.632-10.24 12.288v93.696c0 6.656 4.608 12.288 10.24 12.288h227.84v15.872z m150.016 0h-44.544v-16.896h44.544c5.632 0 10.24-5.632 10.24-12.288V487.424c0-6.656-4.608-12.288-10.24-12.288h-44.032v-16.896h44.032c14.848 0 27.136 12.8 27.136 29.184v93.696c0 15.36-12.288 28.16-27.136 28.16z" fill="#FFFFFF" p-id="2806"></path><path d="M541.184 601.088c0 4.608 4.096 8.704 8.704 8.704 4.608 0 8.704-4.096 8.704-8.704 0-4.608-4.096-8.704-8.704-8.704-4.608 0-8.704 4.096-8.704 8.704zM647.68 601.088c0 4.608 4.096 8.704 8.704 8.704 4.608 0 8.704-4.096 8.704-8.704 0-4.608-4.096-8.704-8.704-8.704-5.12 0-8.704 4.096-8.704 8.704zM539.136 462.848c0 7.168 5.632 12.8 12.8 12.8s12.8-5.632 12.8-12.8-5.632-12.8-12.8-12.8-12.8 5.632-12.8 12.8zM644.096 462.848c0 7.168 5.632 12.8 12.8 12.8s12.8-5.632 12.8-12.8-5.632-12.8-12.8-12.8-12.8 5.632-12.8 12.8z" fill="#FFFFFF" p-id="2807"></path></svg>