<?xml version="1.0" standalone="no"?><!DOCTYPE svg PUBLIC "-//W3C//DTD SVG 1.1//EN" "http://www.w3.org/Graphics/SVG/1.1/DTD/svg11.dtd"><svg t="1593504808201" class="icon" viewBox="0 0 1024 1024" version="1.1" xmlns="http://www.w3.org/2000/svg" p-id="1944" xmlns:xlink="http://www.w3.org/1999/xlink" width="16" height="16"><defs><style type="text/css"></style></defs><path d="M512 0C294.4 0 118.272 169.984 118.272 378.88c0 69.632 19.968 138.24 57.344 197.12l309.248 433.152c6.144 9.216 16.384 14.848 27.136 14.336 10.752 0 20.992-5.632 27.136-14.336l310.272-434.688C886.272 515.584 906.24 448 906.24 378.88c-0.512-208.896-177.152-378.88-394.24-378.88z" fill="#18A890" p-id="1945"></path><path d="M472.576 400.896L334.848 309.248l96.768 31.232-67.584-132.096 61.952 63.488-9.728-135.168 72.192 108.544 4.096-63.488 20.992 56.32 34.816-133.12v150.016l32.256-43.52-5.12 55.808 81.92-84.48L599.04 344.576l52.224-21.504-38.4 43.52 26.624 4.608-104.448 30.208 58.88-44.544-44.544 8.704 61.44-104.448-72.192 78.848-5.12-95.232-10.24 74.752-18.944-60.416-2.56 73.216-47.104-101.376 34.304 119.808-54.784-47.616 65.536 97.28-27.136 0.512z m6.144 14.848h67.072v28.16H478.72v-28.16z m0 145.408h67.072v28.16H478.72v-28.16z m295.936 17.408c0 3.072-1.024 5.632-3.072 7.68-2.048 2.048-4.608 3.072-7.168 3.072h-26.624c-5.632 0-10.24-5.12-10.24-11.264V427.008c0-6.144 4.608-11.264 10.24-11.264h26.624c2.56 0 5.632 1.024 7.168 3.072 2.048 2.048 3.072 5.12 3.072 7.68V578.56z m-478.208 0c0 3.072-1.024 5.632-3.072 7.68-2.048 2.048-4.608 3.072-7.168 3.072h-26.624c-2.56 0-5.632-1.024-7.168-3.072-2.048-2.048-3.072-5.12-3.072-7.68V427.008c0-6.144 4.608-11.264 10.24-11.264h26.624c2.56 0 5.632 1.024 7.168 3.072 2.048 2.048 3.072 5.12 3.072 7.68V578.56z" fill="#FFFFFF" p-id="1946"></path><path d="M291.84 443.392h457.728v117.248H291.84V443.392z" fill="#FFFFFF" p-id="1947"></path></svg>