<?xml version="1.0" standalone="no"?><!DOCTYPE svg PUBLIC "-//W3C//DTD SVG 1.1//EN" "http://www.w3.org/Graphics/SVG/1.1/DTD/svg11.dtd"><svg class="icon" width="64px" height="64.00px" viewBox="0 0 1024 1024" version="1.1" xmlns="http://www.w3.org/2000/svg"><path fill="#000000" d="M608.688 400.72a200.09 200.09 0 0 1 8.144 7.664 180.468 180.468 0 0 0 8.128 7.664c2.864 2.56 6.24 5.76 10.064 9.584 6.368 7.008 12.768 11.488 19.136 13.392 6.4 1.92 12.448 2.08 18.176 0.48 5.776-1.6 11.184-4.144 16.304-7.664a96.64 96.64 0 0 0 13.392-11.008 2031.488 2031.488 0 0 0 46.432-47.872c13.072-14.048 28.24-29.664 45.472-46.912 8.288-8.304 15.648-13.568 22.016-15.792 6.4-2.24 13.392 0.144 21.088 7.184 7.008 7.008 15.616 15.168 25.84 24.4a714.976 714.976 0 0 1 24.88 23.456c10.848 11.488 20.592 14.688 29.2 9.568 8.608-5.104 13.888-16.912 15.808-35.424a4522.551 4522.551 0 0 1 6.704-56.96c2.544-20.736 5.12-41.648 7.664-62.72a6216.084 6216.084 0 0 0 7.168-61.744c2.24-20.112 4-38.144 5.28-54.096s-1.28-26.96-7.664-33.024c-6.368-6.064-17.888-8.144-34.48-6.24-17.232 1.92-36.368 4.16-57.424 6.704-21.056 2.56-42.608 4.944-64.64 7.184-22.032 2.256-43.408 4.656-64.128 7.216a7391.551 7391.551 0 0 1-56.032 6.704c-16.576 1.92-26.144 7.008-28.704 15.312-2.544 8.304 1.584 17.872 12.448 28.72 6.4 6.384 14.048 14.512 22.992 24.416a630.4 630.4 0 0 0 22.016 23.44c8.944 7.664 11.152 15.952 6.704 24.896-4.48 8.944-12.768 19.136-24.88 30.64a2387.616 2387.616 0 0 0-43.088 44.032l-36.368 38.288c-13.424 12.752-21.376 23.936-23.952 33.504-2.544 9.568 2.576 20.736 15.312 33.488 4.448 5.136 8.112 8.976 10.992 11.52zM413.856 619.952l-7.664-8.608a200.742 200.742 0 0 0-8.144-7.664 252.32 252.32 0 0 1-10.032-9.568c-7.024-7.024-13.568-11.328-19.632-12.928a28.784 28.784 0 0 0-17.232 0.496c-5.44 1.92-10.368 4.784-14.848 8.608a225.985 225.985 0 0 0-12.448 11.488 1846.052 1846.052 0 0 0-25.376 25.856 1704.849 1704.849 0 0 1-23.456 23.92 1689.301 1689.301 0 0 0-22.976 23.456 1851.52 1851.52 0 0 1-23.92 24.4c-7.664 8.32-14.048 12.928-19.136 13.888-5.12 0.96-11.504-2.4-19.168-10.048a848.752 848.752 0 0 0-27.296-25.856 912.384 912.384 0 0 1-26.336-24.88c-10.832-10.848-20.56-13.888-29.168-9.104-8.608 4.784-13.888 16.768-15.808 35.904-1.92 17.232-4.16 36.224-6.704 56.96-2.576 20.752-5.12 41.648-7.664 62.72a5782.272 5782.272 0 0 0-7.184 61.76c-2.208 20.096-4 38.128-5.248 54.08-1.28 15.312 1.424 26 8.128 32.08 6.704 6.064 18.048 8.448 33.984 7.184 17.232-1.92 36.56-4.144 57.92-6.704 21.376-2.56 43.088-5.104 65.104-7.664 22.032-2.56 43.264-5.12 63.648-7.664 20.448-2.544 38.944-4.784 55.536-6.704s26.336-7.008 29.2-15.312c2.864-8.304-1.12-17.872-11.952-28.72-6.4-6.384-13.568-13.872-21.552-22.496a344.544 344.544 0 0 0-21.552-21.552c-8.32-8.304-11.024-16.112-8.144-23.456 2.864-7.328 10.064-16.752 21.552-28.24a5230.048 5230.048 0 0 0 45.008-45.488 4385.66 4385.66 0 0 1 38.288-38.752c13.392-13.408 20.912-25.376 22.496-35.904 1.584-10.544-4-22.192-16.768-34.944l-11.456-10.544z m490.08-33.024a56 56 0 0 0-56.08 55.968v148.992a55.952 55.952 0 0 1-55.968 55.968H642.896a55.888 55.888 0 0 0-55.968 56.064c0 30.96 25.648 56.064 55.856 56.064h205.264C909.872 960 960 909.68 960 848.048v-205.28a55.824 55.824 0 0 0-56.064-55.84z m-783.872-149.84a56 56 0 0 0 56.08-55.984V232.128a55.952 55.952 0 0 1 55.968-55.984h148.992a55.888 55.888 0 0 0 55.968-56.064c0-30.976-25.648-56.08-55.856-56.08H175.952C114.128 64 64 114.32 64 175.936v205.28a55.824 55.824 0 0 0 56.064 55.872z"  /></svg>