<?xml version="1.0" standalone="no"?><!DOCTYPE svg PUBLIC "-//W3C//DTD SVG 1.1//EN" "http://www.w3.org/Graphics/SVG/1.1/DTD/svg11.dtd"><svg t="1590374544373" class="icon" viewBox="0 0 1024 1024" version="1.1" xmlns="http://www.w3.org/2000/svg" p-id="1340" xmlns:xlink="http://www.w3.org/1999/xlink" width="16" height="16"><defs><style type="text/css"></style></defs><path d="M511.793076 0C294.522966 0 117.947893 170.091457 117.947893 379.08461 118.085842 448.886944 137.950538 517.309785 175.334792 576.214126l309.144327 433.298676c6.069768 9.104652 16.415964 14.622623 27.313957 14.484674 10.897993 0 21.244188-5.517971 27.313957-14.484674l310.109972-434.678169c36.970406-58.628442 56.697152-126.499486 56.697153-195.750023C905.638259 170.091457 728.925236 0 511.793076 0z" fill="#5262A6" p-id="1341"></path><path d="M548.349634 196.991566v-10.897993c-0.275899-8.139007-6.897464-14.484674-15.036471-14.346724h-42.764275c-8.276957 0-15.036471 6.483616-15.036471 14.346724v10.897993c-89.253182 16.140065-156.434479 90.908573-156.434479 180.575602 0 72.147471 43.72992 134.776443 107.324536 164.849385v-0.137949l20.692392-39.591442c-48.282247-22.89958-81.528022-70.354131-81.528022-125.119994 0-77.113645 65.525906-139.604667 146.502131-139.604667s146.502131 62.491022 146.502131 139.604667c0 54.765863-33.245776 102.220413-81.390073 125.119994l20.692391 39.729391c63.594616-30.072942 107.324537-92.563964 107.324537-164.849385-0.137949-89.52908-67.595145-164.435537-156.848327-180.575602z m0 0" fill="#FFFFFF" p-id="1342"></path><path d="M627.946366 588.077763s-70.630029-14.070826-85.528551-17.933405c-14.760573-3.72463-16.002116-24.003174-16.002116-24.003174v-112.56661c0-13.932877 12.415435-16.967761 12.415435-16.967761l40.557087-12.001587v-43.316072c0-11.863638-10.208246-21.520087-22.623681-21.520087h-90.218826c-12.415435 0-22.485732 9.656449-22.485732 21.520087v43.454022l40.557087 12.001587s12.415435 3.172833 12.415435 16.967761V546.279133s-1.103594 20.278544-16.002116 24.003174c-14.898522 3.72463-85.528551 17.933406-85.528552 17.933406s-8.966703 2.345138-8.966702 6.207717v52.144826H636.637171V594.561379c0.275899-4.000529-8.690804-6.483616-8.690805-6.483616z m-22.071884 27.451906" fill="#FFFFFF" p-id="1343"></path></svg>