<?xml version="1.0" standalone="no"?><!DOCTYPE svg PUBLIC "-//W3C//DTD SVG 1.1//EN" "http://www.w3.org/Graphics/SVG/1.1/DTD/svg11.dtd"><svg class="icon" width="64px" height="64.00px" viewBox="0 0 1024 1024" version="1.1" xmlns="http://www.w3.org/2000/svg"><path fill="#000000" d="M328.01092685 284.39727473a32.66536573 32.66536573 0 0 0 14.74179708-3.52574625 143.73252296 143.73252296 0 0 1 16.43710371-6.94092995 33.07076478 33.07076478 0 0 0-10.92121525-64.28652035 31.71943374 31.71943374 0 0 0-11.05634737 1.87957875 201.32381072 201.32381072 0 0 0-24.0414144 10.25783451 33.07076478 33.07076478 0 0 0 14.74179709 62.65263807z m-13.2307635 112.82388819a32.99705609 32.99705609 0 0 0-45.87155876-9.04163561 33.05848045 33.05848045 0 0 0-9.04163563 45.87155878q6.97778385 10.36839707 14.88921534 20.07341341a32.83735354 32.83735354 0 0 0 25.69986622 12.35854018 33.36560125 33.36560125 0 0 0 20.8842124-7.37089853 33.16904389 33.16904389 0 0 0 4.85250862-46.53493952q-5.93357361-7.46917768-11.35118384-15.33146914z m-56.79277402-31.10519213c0.9950711 0 2.10070567 0.11056346 3.19405678 0.11056346a33.05848045 33.05848045 0 0 0 32.97248565-29.88899411 32.60394139 32.60394139 0 0 1 1.22848324-6.95321428 37.24760744 37.24760744 0 0 1 1.76901619-5.39304067 33.16904389 33.16904389 0 0 0-61.42415484-24.79078902l-0.12284868 0.3071208a132.39362343 132.39362343 0 0 0-4.29969133 13.2307626 111.39884759 111.39884759 0 0 0-3.08349245 17.19876357 32.39509971 32.39509971 0 0 0 7.37089855 24.15197785 33.0339109 33.0339109 0 0 0 22.38296255 12.0268498z m364.67520895-20.29454123c2.54296038 1.54788838 4.4102539 2.76408729 5.51588846 3.42746804 3.85743663 2.45696647 8.0465645 4.91393207 12.34625582 7.71487413a33.09533432 33.09533432 0 0 0 50.83462997-27.86199712 33.04619522 33.04619522 0 0 0-15.22090479-27.89885101l-0.22112782-0.11056347c-4.63138171-2.97292898-9.15219907-5.73701626-13.00963567-8.15712795q-3.19405588-2.03928222-6.51096047-3.85743663a32.50566316 32.50566316 0 0 0-16.86707321-4.74194515 33.16904389 33.16904389 0 0 0-32.07569365 41.20332317 32.91106221 32.91106221 0 0 0 15.22090568 20.28225599z m-192.20846645-76.53449705q9.82786504 1.43732492 19.52059703 3.68544971a30.71207742 30.71207742 0 0 0 7.05149252 0.77394419 33.26732212 33.26732212 0 0 0 32.30910581-25.92099404 35.26974956 35.26974956 0 0 0 0.77394418-7.49374634 32.81278397 32.81278397 0 0 0-25.90870882-31.94056065q-11.87943156-2.60438383-23.93085003-4.41025479a33.07076478 33.07076478 0 0 0-9.82786504 65.39215582z m97.71354595 29.22561335c7.37089855 3.08349243 13.78358077 5.84757972 19.41003268 8.37825399a33.2550378 33.2550378 0 0 0 43.78313833-16.53538194 34.05355154 34.05355154 0 0 0 2.86236553-13.67301731 33.09533432 33.09533432 0 0 0-19.41003269-30.11012103c-7.61659502-3.41518279-14.54523974-6.49867524-21.16676453-9.15219906a31.94056066 31.94056066 0 0 0-12.67794533-2.54295949 32.83735354 32.83735354 0 0 0-30.55237484 20.29454034 33.16904389 33.16904389 0 0 0 17.76386607 43.3408845z m-64.18824212 208.64556928a32.93563176 32.93563176 0 0 0-32.08797802 25.0364855 26.52295044 26.52295044 0 0 0-0.99507199 8.27997664 32.88649264 32.88649264 0 0 0 25.03648639 31.86685109c7.83772193 1.9901422 15.97028033 3.68544973 24.15197695 5.07363552a44.75363898 44.75363898 0 0 0 5.51588936 0.44225382 33.09533432 33.09533432 0 0 0 5.4053259-65.72384618q-9.5575981-1.60931271-18.96777886-3.96800006a33.72186118 33.72186118 0 0 0-8.05884973-0.99507111zM718.16487421 779.21798234a33.16904389 33.16904389 0 0 0-16.53538283 4.42253913 143.91679508 143.91679508 0 0 1-15.97028032 7.93600104 33.2550378 33.2550378 0 0 0-17.6410174 43.34088361 32.94791699 32.94791699 0 0 0 42.99690891 17.75158086l0.27026603-0.11056346a202.81027477 202.81027477 0 0 0 23.48859712-11.69515945 33.04619522 33.04619522 0 0 0-16.64594628-61.64528173z m17.08820011-146.55803369a128.43790769 128.43790769 0 0 1 6.73208737 16.21597679 32.96020131 32.96020131 0 0 0 41.63329178 20.88421329l0.27026693-0.09827912a33.16904389 33.16904389 0 0 0 20.88421239-41.91584302 217.31866062 217.31866062 0 0 0-10.03670671-24.4713839 33.05848045 33.05848045 0 0 0-29.76614544-18.42724591 31.75628854 31.75628854 0 0 0-14.64351886 3.46432191 33.16904389 33.16904389 0 0 0-18.42724681 29.99955757 34.71693228 34.71693228 0 0 0 3.41518369 14.34868239z m-44.55708252-45.98212224a33.08305 33.08305 0 0 0 44.44651906-42.01412215 33.16904389 33.16904389 0 0 0-17.41989047-18.42724681 151.47196665 151.47196665 0 0 0-26.69493823-8.93107215 33.41474038 33.41474038 0 0 0-39.92570082 24.48366822 34.06583676 34.06583676 0 0 0-0.88450764 7.50603246 32.82506831 32.82506831 0 0 0 25.46645499 32.3091049 87.22230018 87.22230018 0 0 1 14.99977878 5.07363553z m95.25657948 106.19007905a33.40245514 33.40245514 0 0 0-38.59893846 26.46152608 116.22678576 116.22678576 0 0 1-4.29969136 16.43710371 33.0339109 33.0339109 0 1 0 62.3086634 21.95299307 175.51338015 175.51338015 0 0 0 7.05149248-26.25268351 33.16904389 33.16904389 0 0 0-26.46152606-38.59893935z m-173.46181362 113.14329333h-0.55281727a186.729431 186.729431 0 0 1-19.18890579-0.55281726 33.16904389 33.16904389 0 1 0-4.74194515 66.05553652c6.84265081 0.44225383 13.78358077 0.67566596 20.73679505 0.67566508h4.18912699A33.16904389 33.16904389 0 0 0 645.4632442 839.54878784v-0.88450765a33.16904389 33.16904389 0 0 0-32.96020131-32.64079616z m-37.24760744-224.73869827c6.73208736-0.44225383 13.34132606-0.77394418 19.74172306-1.22848325l2.54296039-0.11056347a33.62358205 33.62358205 0 0 0 22.82521637-11.14234126 33.08305 33.08305 0 0 0-26.81778601-54.92547959h-0.08599391l-2.75180205 0.11056346c-5.95814318 0.44225383-11.90400113 0.77394418-17.86214432 1.10563454h-1.10563544l-0.44225381 0.11056347a32.97248653 32.97248653 0 0 0-30.87178 32.97248654 11.05634826 11.05634826 0 0 0 0.09827822 1.76901618 32.98477087 32.98477087 0 0 0 32.9110622 31.33860338z m-163.97792416-58.23009896a32.72679007 32.72679007 0 0 0 4.189127-25.02420027 33.16904389 33.16904389 0 0 0-14.7417971-20.62623158q-8.50110266-5.17191376-16.54766716-11.05634827c-14.4469615-10.25783361-35.94541552-6.62152392-46.20324914 7.71487413a33.05848045 33.05848045 0 0 0-6.14241532 19.07834233A33.53758905 33.53758905 0 0 0 345.71336767 520.25374472q9.82786504 6.97778385 20.18397777 13.32904172a32.18625713 32.18625713 0 0 0 17.30932703 4.91393295 32.94791699 32.94791699 0 0 0 28.05855359-15.45431783zM938.9355724 149.42383613L763.59417915 52.27539267a33.02162566 33.02162566 0 0 0-49.07789988 28.89392304V351.21447024a30.54008962 30.54008962 0 0 0-10.25783361 8.48881833 33.16904389 33.16904389 0 0 0 5.73701626 46.42437605c5.61416758 4.4102539 11.25290562 8.82050871 16.64594539 13.23076349a33.0339109 33.0339109 0 0 0 46.53494042-4.63138172 32.27225104 32.27225104 0 0 0 7.2726194-22.8375007c0-0.54053295 0.22112692-1.09335023 0.22112692-1.75673096v-95.03545255l158.2409088-87.88568092a33.08305 33.08305 0 0 0 0-57.73870511z m-158.24090879 70.02353663V137.2987081l74.05296192 41.03133537z m-343.9752678 745.22241821a12.83764879 12.83764879 0 0 0 13.07106002-12.28483061l0.11056347-4.29969046h0.23341212c0.17198779-3.13263154 0.28255125-5.87214928 0.28255126-8.50110354 0-73.96696715-47.29659935-139.4205473-120.52647709-166.79115059l-8.23083662-3.08349243 7.29718985-4.4962478c35.06090787-22.00213218 55.96968982-58.7706319 55.96968982-98.27864843 0-65.10960455-56.37508976-118.15550451-125.71067608-118.15550454s-125.67382131 52.9721913-125.6738213 118.15550454c0 39.49573134 20.8842124 76.26423106 55.96969073 98.27864843l7.27261941 4.54538691-8.23083662 3.08349244C115.37278705 800.22504341 68.07618768 865.69090789 68.07618768 939.65787504c0 2.62895429 0.11056346 5.33161633 0.28255035 8.50110355H68.6904284v4.39796956a12.93592701 12.93592701 0 0 0 13.14476959 12.66566099c7.26033511 0 347.6607175-0.49139293 354.87191349-0.49139383m-32.30910582-184.27246451c32.92334743 3.42746803 62.65263806 18.18154945 84.05281387 41.70700134a128.37648425 128.37648425 0 0 1 32.97248655 86.57120378 13.39046606 13.39046606 0 0 0 26.71950689 0.54053206v-0.39311381a0.24569647 0.24569647 0 0 1 0-0.19655736c-0.11056346-61.54700354-39.45887745-115.95651973-100.34249934-138.68345788l-8.23083663-3.08349243 7.28490464-4.54538692c29.33617684-18.25525901 46.71921252-48.75849384 46.71921254-81.60813259 0-45.45387451-32.64079617-84.47049813-79.48285738-95.1828708l-0.28255036 0.11056343-1.28990759-0.11056343a5.65102235 5.65102235 0 0 1-0.84765375-0.09827824h-0.33169037a13.39046606 13.39046606 0 0 0-13.58702253 13.04649047 13.15705392 13.15705392 0 0 0 11.56002554 12.91135746l0.61424162 0.09827822 0.5651025 0.19655736a28.34110485 28.34110485 0 0 0 2.87465075 0.83536853 3.02206809 3.02206809 0 0 1 0.5651016 0.14741824c30.78578609 9.82786504 51.4611568 36.76849881 51.4611577 67.07517721 0 33.86927941-25.71215145 62.95975888-61.22759837 69.51985845l-0.5651016 0.29483558h-1.22848325c-8.40282442 0.49139293-14.99977879 7.18662642-14.99977879 15.19633615 0 8.2185523 6.76894214 14.9137849 15.3928935 15.25776048h1.13020412l0.49139293 0.28255125"  /><path fill="#000000" d="M373.78420649 102.15180632v6.47410657q-6.21612486 28.72193522-26.04384183 43.47601663l-5.17191376-6.73208736c11.21605084-8.27997574 18.89407018-20.09798388 23.12005197-35.28203479h-20.26997078v-7.93600105z m44.33595562-3.19405588a131.80395139 131.80395139 0 0 1-20.52795246 20.52795247 86.07981084 86.07981084 0 0 0 25.61387232 26.12983572l-5.17191376 7.50603156q-20.95792195-16.9530671-30.44181139-37.43187955v35.36802868c0 6.03185185-2.85008119 9.13991384-8.45196355 9.13991382h-11.38803864l-1.8181553-7.9974245q5.42989545 0.51596249 10.35611274 0.51596251c1.97785787 0 3.02206809-1.28990759 3.02206899-3.68544972V80.76391577h8.27997576v17.84985996a96.50963226 96.50963226 0 0 0 6.30211788 14.58209453 123.95394513 123.95394513 0 0 0 17.59187826-19.15205188zM464.59367726 97.58184985V81.02189747h8.45196356v16.55995238h33.63586727v7.85000715h-27.02662769q8.15712797 20.56480726 27.94799012 36.65793538l-5.68787625 7.16205685q-20.6262316-19.53288136-28.86935345-43.73399924v54.67978315h-8.45196356V105.431857a93.77011542 93.77011542 0 0 1-29.7538602 44.16396692l-4.65595126-7.67801935a82.6891976 82.6891976 0 0 0 27.69000934-36.48594757h-26.31410786v-7.85000715zM550.67348812 83.87197864v7.59202547h-4.91393207v45.10989891c1.71987618-0.51596249 3.36604369-1.11791979 5.08591986-1.63388228v7.93600104l-5.08591986 1.54788839v16.3019707h-7.85000714V146.48776194c-6.56009957 1.71987618-13.3658965 3.19405588-20.44195858 4.56995738l-1.97785788-7.76401327 4.91393207-0.77394418V91.46400411h-4.56995735v-7.59202547z m-12.76393921 18.42724593v-10.83522046h-9.65587723v10.85979001z m0 17.93585386v-10.49124576h-9.65587723v10.51581533z m0 18.5500946V127.63054655h-9.65587723v13.3658956c3.26776546-0.62652595 6.54781524-1.41275536 9.65587723-2.18669956z m35.01176874-39.76599825a117.70096547 117.70096547 0 0 0 8.02199406-18.02184688l7.59202546 2.8500803a119.16286084 119.16286084 0 0 1-7.37089855 15.18405181H592.63847114v7.76401324h-17.03906098V108.34336164q0 5.94585794-0.51596251 11.38803863h18.98006411v7.89914628h-16.74422542q3.36604369 13.19390871 18.10784166 26.91606423l-5.60188325 6.14241531c-8.79593914-9.13991384-14.58209451-18.10784078-17.33389658-27.02662771-3.53803148 12.2848306-9.91385893 21.30189667-19.06605799 27.34603374l-4.91393206-6.56009957c8.96792693-5.51588936 14.74179709-14.39782149 17.50588438-26.83007125h-15.77372298V119.76825416h17.0390601q0.39311471-4.65595126 0.51596339-9.56988334v-3.39061322h-16.21597679v-7.75172803z m-4.13998876-4.39796957l-6.03185185 4.22598177a113.21700289 113.21700289 0 0 0-7.85000715-13.51331384l6.24069443-3.96800008a103.32771352 103.32771352 0 0 1 7.64116457 13.29218693zM644.50502788 80.76391577a123.63453909 123.63453909 0 0 0 37.43187956 28.9799169l-4.39796956 7.85000627a134.91201427 134.91201427 0 0 1-13.36589561-8.27997576v6.14241531H618.80516076V109.20329972a136.68102956 136.68102956 0 0 1-13.7098712 8.59938179l-4.31197568-7.93600104a124.58047108 124.58047108 0 0 0 37.68986126-29.06590993z m25.09790894 79.69169908h-7.93600014v-4.65595129h-40.33110077v4.65595129h-7.93600015V124.66990189h56.23995585z m-7.76401236-52.82477307a117.35699078 117.35699078 0 0 1-20.35596556-19.41003357 113.20471766 113.20471766 0 0 1-20.52795248 19.41003357z m-0.17198778 40.45394766V132.34792125h-40.33110077v15.70001429z"  /></svg>