<?xml version="1.0" standalone="no"?><!DOCTYPE svg PUBLIC "-//W3C//DTD SVG 1.1//EN" "http://www.w3.org/Graphics/SVG/1.1/DTD/svg11.dtd"><svg t="1589941369465" class="icon" viewBox="0 0 1024 1024" version="1.1" xmlns="http://www.w3.org/2000/svg" p-id="3017" xmlns:xlink="http://www.w3.org/1999/xlink" width="200" height="200"><defs><style type="text/css"></style></defs><path d="M512 1024C228.075 1024 0 795.925 0 512S228.075 0 512 0s512 230.4 512 512c0 283.925-228.075 512-512 512z m-1.1625-960C264.1375 64 64 264.1375 64 510.8375S264.1375 960 513.1625 960 960 757.525 960 510.8375 757.525 64 510.8375 64z" p-id="3018"></path><path d="M399.3 512.9625L229 388.1125l170.3-124.8625z m0 0" p-id="3019"></path><path d="M594.3875 760.6375H228.6625v-60.55h365.725a140.4 140.4 0 1 0 0-280.7875H374.7375V358.75h219.65a200.95 200.95 0 0 1 200.95 200.95 200.9375 200.9375 0 0 1-200.95 200.9375z" p-id="3020"></path></svg>