<?xml version="1.0" standalone="no"?><!DOCTYPE svg PUBLIC "-//W3C//DTD SVG 1.1//EN" "http://www.w3.org/Graphics/SVG/1.1/DTD/svg11.dtd"><svg class="icon" width="64px" height="64.00px" viewBox="0 0 1024 1024" version="1.1" xmlns="http://www.w3.org/2000/svg"><path fill="#000000" d="M706.798933 779.008a355.0208 355.0208 0 0 1-213.6064 71.031467C296.209067 850.039467 136.533333 690.295467 136.533333 493.277867S296.209067 136.533333 493.192533 136.533333s356.6592 159.726933 356.6592 356.744534c0 80.145067-26.402133 154.112-70.997333 213.6576l110.813867 110.848a50.7392 50.7392 0 0 1-0.170667 71.901866c-19.882667 19.9168-52.4288 19.626667-71.8848 0.170667l-110.813867-110.848z m-213.6064-30.890667c140.6976 0 254.7712-114.107733 254.7712-254.839466s-114.0736-254.805333-254.7712-254.805334-254.754133 114.0736-254.754133 254.805334c0 140.731733 114.056533 254.8224 254.754133 254.8224z"  /></svg>