<?xml version="1.0" standalone="no"?><!DOCTYPE svg PUBLIC "-//W3C//DTD SVG 1.1//EN" "http://www.w3.org/Graphics/SVG/1.1/DTD/svg11.dtd"><svg t="1589959176122" class="icon" viewBox="0 0 1024 1024" version="1.1" xmlns="http://www.w3.org/2000/svg" p-id="1744" width="16" height="16" xmlns:xlink="http://www.w3.org/1999/xlink"><defs><style type="text/css"></style></defs><path d="M511.793076 0C294.522966 0 117.947893 170.091457 117.947893 379.08461 118.085842 448.886944 137.950538 517.309785 175.334792 576.214126l309.144327 433.298676c6.069768 9.104652 16.415964 14.622623 27.313957 14.484674 10.897993 0 21.244188-5.517971 27.313957-14.484674l310.109972-434.678169c36.970406-58.628442 56.697152-126.499486 56.697153-195.750023C905.638259 170.091457 728.925236 0 511.793076 0z" fill="#5262A6" p-id="1745"></path><path d="M642.706939 552.348901c13.24313-3.86258 24.968819-12.001587 33.107826-23.175478 8.690804-11.44979 13.38108-25.520616 13.105181-40.00529V271.760074c0.137949-8.552855-1.655391-17.10571-5.380021-24.83087-3.448732-7.173362-8.139007-13.932877-13.656979-19.726746-5.517971-5.79387-11.725688-11.035942-18.485203-15.450319-6.897464-4.552326-13.38108-8.552855-19.588797-12.001587-6.207717-3.448732-12.967232-6.897464-20.278543-10.208247-8.276957-3.72463-16.967761-6.621565-25.658566-8.966703-11.173891-2.896935-22.623681-4.966174-34.21142-6.345666-15.036471-1.655391-30.210891-2.483087-45.247363-2.345138-13.24313-0.137949-26.486261 0.551797-39.591442 2.069239-10.070297 1.103594-20.002645 2.896935-29.797043 5.242072-7.58721 1.793341-14.898522 4.276428-22.071885 7.311312l-16.967761 7.863109c-6.345667 3.172833-12.415435 6.897464-18.209304 11.035942-7.449261 5.242072-14.346725 11.173891-20.554442 17.657507-6.621565 6.759515-12.415435 14.346725-16.967761 22.623682-4.552326 7.863109-6.897464 16.967761-6.897464 26.072413v217.683957c-0.275899 14.346725 4.276428 28.417551 12.829283 40.00529 8.001058 11.173891 19.726746 19.312899 32.969877 23.175479l-67.871044 94.081406h66.353602l13.794927-25.796515H631.1192l13.932877 25.796515H711.12978l-68.422841-94.357305zM452.888735 209.820849c2.896935-3.034884 7.035413-4.828225 11.311841-4.690276h97.668087c4.276428-0.137949 8.414906 1.655391 11.311841 4.690276 3.172833 3.172833 4.828225 7.58721 4.690275 12.139536 0.137949 4.276428-1.655391 8.552855-4.690275 11.587739-2.896935 3.034884-7.035413 4.828225-11.311841 4.690276H464.200576c-4.276428 0.137949-8.414906-1.655391-11.311841-4.690276-3.034884-3.034884-4.690275-7.311312-4.690275-11.587739-0.137949-4.552326 1.517442-8.828754 4.690275-12.139536zM367.636083 270.932378h289.55553V369.70406H367.636083v-98.771682z m32.41808 250.102037c-4.138478 4.414377-9.932348 6.897464-16.002116 6.897464-6.207717 0.137949-12.139536-2.345138-16.415964-6.897464-4.414377-4.276428-6.759515-10.208246-6.759515-16.278014-0.137949-6.345667 2.345138-12.415435 6.759515-16.829812 4.276428-4.552326 10.208246-7.035413 16.415964-6.897464 6.069768 0 11.863638 2.483087 16.002116 6.897464 4.414377 4.414377 6.897464 10.484145 6.759514 16.829812 0 6.069768-2.483087 12.001587-6.759514 16.278014z m216.580363 66.353602h-208.303407l14.898522-33.107826H602.149852l14.484674 33.107826z m8.276956-66.215652c-4.414377-4.276428-6.759515-10.208246-6.621565-16.415964 0-12.829283 10.346196-23.175478 23.175478-23.175479s23.175478 10.346196 23.175479 23.175479c0.137949 6.069768-2.345138 12.001587-6.759515 16.278014-9.104652 9.242601-23.865225 9.242601-32.969877 0.13795z" fill="#FFFFFF" p-id="1746"></path></svg>