<?xml version="1.0" standalone="no"?><!DOCTYPE svg PUBLIC "-//W3C//DTD SVG 1.1//EN"
  "http://www.w3.org/Graphics/SVG/1.1/DTD/svg11.dtd">
<svg class="icon" width="64px" height="64.00px" viewBox="0 0 1024 1024" version="1.1"
     xmlns="http://www.w3.org/2000/svg">
  <path fill="#0f0"
        d="M534.56888889 900.42617687h10.16466757v11.06603628h-10.16466757zM534.56888889 933.36080817c3.45293606-0.72109479 6.93360635-1.53926077 10.16466757-2.35742676v-11.70392743h-10.16466757zM534.56888889 881.19235284h10.16466757v11.42658322h-10.16466757zM632.443678 924.19457959h42.44753833v16.51585125h-42.44753833zM653.67438095 877.75328435a119.00842087 119.00842087 0 0 1-21.59125079 20.41253697h42.9883601a123.41819501 123.41819501 0 0 1-21.39710931-20.41253697z"/>
  <path fill="#0f0"
        d="M738.91613877 856.53644807s-114.69571792-22.95023764-157.04618684-32.58795011H443.15622132c-41.14402086 9.42970521-158.46064216 32.90689614-158.46064127 32.90689615s-17.61136055 4.59004717-17.61136055 12.25861587v101.95174966h489.1243338V869.16947937c0-7.72403719-17.29241452-12.63303129-17.29241453-12.6330313z m-169.69308479 14.04748662a108.99629387 108.99629387 0 0 1 7.98751473 13.96428391l-6.35118368 4.45137505a119.25803083 119.25803083 0 0 0-8.32032744-14.24162721z m-224.51017689 74.38373061l-5.44981496-7.07227936c11.78713107-8.70860952 19.87171609-21.13363266 24.30922448-37.10866122H342.25838004v-8.32032744h29.84224218v6.85040272q-6.53145759 30.14732063-27.4016127 45.6508653z m73.92611247 1.09550931q-22.04886894-17.81936871-32.01939501-39.36901769v37.19186576c0 6.35118367-2.99531791 9.60997823-8.88888344 9.60997823h-11.98127166l-1.89980861-8.41739864q5.7132916 0.54082086 10.88576236 0.54082176c2.08008163 0 3.17559184-1.38672109 3.17559184-3.89668662v-71.77669387h8.70860951v18.77620589a101.49413151 101.49413151 0 0 0 6.62852789 15.33713742 130.43500499 130.43500499 0 0 0 18.51272926-20.13519274l6.93360635 5.17246984a138.67212879 138.67212879 0 0 1-21.5912508 21.59125079 90.52516553 90.52516553 0 0 0 26.97172971 27.45708118z m88.26480999-4.07696054q-21.77152382-20.55120998-30.38306396-45.99754468v57.50733152h-8.9027501v-57.60440271a98.62361813 98.62361813 0 0 1-31.29830023 46.4135619l-4.89512563-8.07071837a86.96129252 86.96129252 0 0 0 29.12114649-38.37057778h-27.7344254v-8.32032744h34.80670477v-17.3478839h8.88888344v17.41721996h35.37525986v8.32032743h-28.38618503q8.56993741 21.6328517 29.3984916 38.5508517z m46.0807483 12.06447527h-8.32032745v-14.97658957c-6.93360635 1.81660499-14.06135419 3.35586576-21.4941805 4.81192291l-2.08008162-8.16778866 5.17246983-0.81816598v-53.69384763h-4.81192291v-7.98751473h36.65104401v7.98751473h-5.17247075v47.43973514c1.81660499-0.54082086 3.53613968-1.17871293 5.35274466-1.71953469v8.32032745l-5.35274466 1.63633196z m46.35809252-0.09707029c-9.24943128-9.60997823-15.3371374-19.05355011-18.23538504-28.40005261-3.7164127 12.88264036-10.42814422 22.40941587-20.05199003 28.76060046l-5.17246984-6.93360726c9.42970521-5.8103619 15.51741134-15.1568635 18.41565896-28.21977778h-16.64065579v-8.32032744h17.84710295q0.40214875-4.89512653 0.54082087-10.06759728v-3.53613877h-17.0566712v-8.16778867h22.49261859a123.86194558 123.86194558 0 0 0 8.51446893-18.87327709l7.98751474 2.99531792a125.08226032 125.08226032 0 0 1-7.80724081 15.96116281h12.06447528v8.16778775h-17.87483719v1.63633107q0 6.25411338-0.54082177 11.98127257h19.95491972v8.32032742H586.18265578q3.53613968 13.8672127 19.05355012 28.30298141z m83.91050521-0.18027392h-8.32032745v-4.89512654h-42.48914013v4.89512654h-8.32032834v-37.649483h59.14366348z m8.32032834-45.0823093a141.77838459 141.77838459 0 0 1-14.06135419-8.70860952v6.43438639h-47.70321271v-6.62852698a143.77526349 143.77526349 0 0 1-14.42190113 9.06915646l-4.53457867-8.32032744a131.03129432 131.03129432 0 0 0 39.64636189-30.50786847h6.35118367a130.04672291 130.04672291 0 0 0 39.36901678 30.50786847zM483.19086531 554.67495783v209.39491519h57.29932336V554.30054332c0-27.33227664 24.30922448-33.28131066 24.30922449-33.28131157l79.3897941-23.43558913v-84.79800724c0-23.11664399-19.87171609-42.01765533-44.12547211-42.01765534H423.61731882c-24.2537551 0-44.07000272 18.90101134-44.07000272 42.01765534v85.11695237l79.3897941 23.49105942s24.2537551 6.28184762 24.25375511 33.28131066z"/>
  <path fill="#0f0"
        d="M583.15960272 91.64871927V70.36254694A28.84380317 28.84380317 0 0 0 553.71951021 42.32304218h-83.77183313c-16.21077188 0-29.44009343 12.59142948-29.44009341 28.03950476v21.32777325C266.01644354 123.182761 134.38885896 269.55119364 134.38885896 445.04077279c0 141.12662586 85.65777415 263.72665487 209.88026757 322.55137234v-0.37441542l40.39519093-77.39291519c-94.46345396-44.83269932-159.47294875-137.61822132-159.47294875-244.77017507 0-150.95847982 128.27171972-273.18409433 286.62142404-273.18409432s286.69075918 122.22561452 286.69075918 273.18409432c0 107.15195374-65.02336145 199.93747574-159.11240091 244.77017508l40.39519183 77.75346303c124.52757188-58.86631836 209.82479818-181.03646441 209.82479819-322.55137234 0-175.47571248-131.89106214-321.8996136-306.46540499-353.39205351z m0 1e-8"/>
  <path fill="#0f0"
        d="M820.69109297 763.90346576v60.05889977h22.90863583v-60.05889977z m18.72073741 8.93048526h-14.64377686v-3.73028027h14.67151111z m-659.70491972-8.93048526v60.05889977h22.95023764v-60.05889977z m18.72073741 8.93048526H183.78387121v-3.73028027h14.65764444z"/>
  <path fill="#0f0"
        d="M821.17644535 778.79685261c-0.51308662 0-71.34680999 0-164.88116191 0.12480545-13.39572789 0-27.23520635 2.96758367-41.40749749 2.98145034-15.11526167 0-30.61880634-2.93984943-46.33035828-2.92598187l-366.53817143 0.15253969v29.92544489h619.68414332z"/>
</svg>
