<?xml version="1.0" standalone="no"?><!DOCTYPE svg PUBLIC "-//W3C//DTD SVG 1.1//EN" "http://www.w3.org/Graphics/SVG/1.1/DTD/svg11.dtd"><svg class="icon" width="64px" height="64.00px" viewBox="0 0 1024 1024" version="1.1" xmlns="http://www.w3.org/2000/svg"><path fill="#000000" d="M572.83117611 93.53463891V72.17810316A28.93915022 28.93915022 0 0 0 543.29376427 44.04591035h-84.04875281c-16.26435841 0-29.53741184 12.63305162-29.53741081 28.13219281v21.3982749C254.63965556 125.17292206 122.57695711 272.02519499 122.57695711 448.09488091c0 141.59313998 85.94092834 264.59844105 210.57405556 323.61761115v-0.37565243l40.52872391-77.6487492c-94.77571654-44.98090047-160.00010887-138.07313728-160.00010887-245.57929716 0-151.45749479 128.69574002-274.08714239 287.56889057-274.08714239s287.63845653 122.62964864 287.63845654 274.08714239c0 107.50615988-65.23830574 200.59839771-159.63836882 245.57929716l40.52872289 78.01048823c124.93921576-59.06090925 210.51840403-181.63490636 210.51840403-323.61761115 0-176.05577149-132.32704681-322.963698-307.47847021-354.56024097z m0 0"  /><path fill="#000000" d="M522.14592432 940.65869321c3.58956762-0.75130485 7.17913526-1.60000142 10.57392049-2.46261035v-12.18783428h-10.57392049zM624.07295035 931.11433932h44.20176883v17.19653329h-44.20176883zM522.14592432 906.36301834h10.57392049v11.52000774h-10.57392049zM522.14592432 886.34213463h10.57392049v11.89566017h-10.57392049z"  /><path fill="#000000" d="M729.10258648 860.95081288s-138.6713989-27.74262802-167.76359235-35.11654568-31.31828226-47.17916247-31.31828225-47.17916247v-220.93928026c0-27.42262712 24.38958195-33.39132678 24.38958194-33.39132678l79.65222777-23.51305962v-85.07831838c0-23.19305975-19.93740435-42.15655006-44.27133375-42.15655109H412.76150231c-24.3339294 0-44.21568222 18.96349134-44.21568223 42.15655109v85.39831825l79.65222778 23.56871217s24.3339294 6.28869953 24.33392939 33.39132678v220.98101942s-2.2260888 39.7217665-31.37393378 47.09568519-167.76359235 35.11654568-167.76359235 35.11654464-17.66957744 4.60522083-17.66957743 12.2991394v102.28876506h490.72729036V873.62560469c0-7.74957008-17.34957653-12.67479078-17.34957757-12.67479181z m-170.9079416 14.33044476a113.50268633 113.50268633 0 0 1 8.34783169 14.55305394l-6.60870043 4.63304659a124.10443259 124.10443259 0 0 0-8.59826665-14.83131465z m-233.73928955 77.46787916l-5.66261318-7.37391868c12.28522599-9.07131079 20.68870921-22.01044991 25.32175683-38.63654736h-22.26088487v-8.69565835h31.12349986v7.08174354q-6.80348283 31.47132549-28.52175864 47.62438085z m76.98092163 1.14087067q-22.95653716-18.56001213-33.39132678-41.00176702v38.73393907c0 6.60870043-3.11652349 10.01739803-9.25218081 10.01739804h-12.52174755l-1.98956621-8.77913667q5.95478627 0.57043482 11.33913771 0.57043585c2.17043624 0 3.31130692-1.39130563 3.31130692-4.06261177v-74.71309471h9.07131079v19.47827464a105.73920285 105.73920285 0 0 0 6.95652607 15.9721843 135.83313612 135.83313612 0 0 0 19.26957885-20.96697095l7.27652593 5.38435144a144.34792445 144.34792445 0 0 1-22.48349302 22.48349406 94.27484664 94.27484664 0 0 0 28.07654027 28.60523696z m91.90962801-4.25739519q-22.66436305-21.39827593-31.63828317-47.88872817v59.82612852h-9.25217977v-59.9235192a102.70615665 102.70615665 0 0 1-32.58437041 48.36177127l-5.1060897-8.34783169a90.56006153 90.56006153 0 0 0 30.31654245-39.95828806h-28.80002039v-8.59826664h36.17393805v-18.08696799h9.25217977v18.08696799h36.84176458v8.59826664h-29.579151q8.93217991 22.52523321 30.60871657 40.15307149z m47.98611885 12.52174858h-8.59826665v-15.58261951c-7.17913526 1.89217553-14.63653123 3.49217592-22.38610234 5.00869902l-2.24000116-8.47304918 5.38435144-0.84869656v-55.91656h-5.00869901v-8.34783169h38.16350425v8.34783169h-5.38435145v49.40525127c1.89217553-0.57043482 3.68695934-1.22434899 5.56522147-1.79478381v8.69565836l-5.56522147 1.6973921z m48.26438059-0.09739172c-9.64174561-10.01739803-15.95827194-19.84001367-18.9913171-29.5652376-3.86782834 13.41218326-10.8660946 23.33218959-20.86957924 29.94089003l-5.45391637-7.08174354c9.82261564-6.05217798 16.15305433-15.7774019 19.17218715-29.3843686h-17.21044669v-8.59826665h18.61566468q0.43130498-5.10609073 0.57043482-10.49044218v-3.68695831h-17.76696811v-8.50087596h23.42958129a128.97400073 128.97400073 0 0 0 8.77913565-19.74262197l8.3478317 3.11652453a130.24008888 130.24008888 0 0 1-8.12522251 16.62609744h12.52174754v8.50087596h-18.60175128v1.6973921q0 6.51130872-0.57043585 12.52174754H594.22945101v8.59826665h-18.32349057q3.67304594 14.35827052 19.85392707 29.34262945z m87.37397313-0.1947824h-8.69565836v-5.12000412h-44.20176883v5.10609073h-8.69565836v-39.13741828h61.59308555z m8.69565836-46.8591626a147.63140457 147.63140457 0 0 1-14.63653226-9.07131078v6.70609215h-49.69742538v-6.95652711a149.70445013 149.70445013 0 0 1-15.02609705 9.44696321l-4.73043727-8.69565835a136.4453101 136.4453101 0 0 0 41.29394113-31.777413h6.6086994a135.41574453 135.41574453 0 0 0 41.00176703 31.73567384z"  /><path fill="#000000" d="M646.18079095 882.75256701a123.92356255 123.92356255 0 0 1-22.48349303 21.25914506h44.77220366a128.50095659 128.50095659 0 0 1-22.28871063-21.25914506z"  /></svg>