<?xml version="1.0" standalone="no"?><!DOCTYPE svg PUBLIC "-//W3C//DTD SVG 1.1//EN" "http://www.w3.org/Graphics/SVG/1.1/DTD/svg11.dtd"><svg class="icon" width="64px" height="59.09px" viewBox="0 0 1109 1024" version="1.1" xmlns="http://www.w3.org/2000/svg"><path fill="#000000" d="M659.95647535 351.61978609h37.43382574v14.55759929h-37.43382574zM678.67338823 310.66654164a104.99601539 104.99601539 0 0 1-19.03685987 17.99703104h37.91374668a108.8487133 108.8487133 0 0 1-18.87688681-17.99703104zM573.65071109 313.7060403h8.95852202v10.07833694h-8.95852202zM573.65071109 330.66324338h8.95852202v9.75838995h-8.95852202zM732.94443703 265.08739222a35.40749332 35.40749332 0 0 0 35.27418198-35.27418198V88.71648321a35.27418198 35.27418198 0 1 0-70.54836397 0V229.81321024a35.40749332 35.40749332 0 0 0 35.27418199 35.27418198zM377.72302735 265.08739222a35.40749332 35.40749332 0 0 0 35.27418197-35.27418198V88.71648321a35.27418198 35.27418198 0 0 0-70.54836397 0V229.81321024a35.40749332 35.40749332 0 0 0 35.274182 35.27418198zM404.55860128 609.87052404v103.83620654h-59.61683386v53.65781655h202.19331673v89.42524989h62.10975592v-89.42524989h149.53533599v-53.65781655H609.24484007v-66.57568606h120.72675396v-53.65781566h-120.72675396v-56.63065953h137.11071871v-53.65781656H492.03750568c5.46576505-11.93136501 10.93153012-23.84939962 15.90404383-36.2740169l-66.08243382-9.93169518q-35.07421501 88.67870631-99.90352258 141.58997927c14.90420802 19.87672172 27.82207753 38.24702498 38.26035629 54.15106879 8.43860804-6.94552091 16.38396385-14.90420802 24.34265188-22.84956471z m142.64313854 103.3429543H464.17543423v-66.57568516h82.95964992z m-85.45257199-176.37090901h85.45257198v56.1374073h-127.73893052a517.83458823 517.83458823 0 0 0 42.2197029-56.1374073zM582.60923311 347.30049856h-8.95852202v12.39795555c3.03949865-0.63989488 6.07899731-1.33311321 8.95852202-2.07965679z"  /><path fill="#000000" d="M910.30185055 123.99066517H795.05419295v111.28831013c0 33.78109483-27.82207753 61.60317236-62.10975592 61.60317325a61.69649064 61.69649064 0 0 1-62.09642462-61.60317325V123.99066517H440.32603461v111.28831013c0 33.78109483-27.82207753 61.60317236-62.10975503 61.60317325A61.69649064 61.69649064 0 0 1 316.06653063 235.2789753V123.99066517h-115.20766455C122.85839766 123.99066517 58.77563455 187.58017694 58.77563455 265.08739222v564.37357862c0 77.46722224 64.0827631 141.09672794 142.08323153 141.09672794h709.94956711c78.00046752 0 142.08323154-63.58951177 142.08323153-141.09672794V265.08739222c-0.49325224-77.50721617-64.57601535-141.09672794-142.58981418-141.09672704zM675.87385047 303.78767551h5.59907639a114.64775665 114.64775665 0 0 0 34.66094972 26.87556787l-4.07932748 7.27879919a125.08603452 125.08603452 0 0 1-12.39795466-7.67873316v5.67906247h-42.0197359v-5.8390364a126.75242694 126.75242694 0 0 1-12.71790252 7.99868104l-3.99934053-7.35878706a115.52761155 115.52761155 0 0 0 34.95423498-26.95555395z m-15.86404988 69.5885221v4.3059571h-7.35878616v-33.19452519h52.15139807v33.19452519H697.33697674v-4.31928751z m-55.80412899-69.01528288a95.77086984 95.77086984 0 0 1 7.03883829 12.31796858l-5.59907639 3.91935354a105.03600844 105.03600844 0 0 0-7.27879919-12.55792947z m-8.95852293 16.39729517h19.83672869a109.12866724 109.12866724 0 0 0 7.43877314-16.71724215l7.0388383 2.66622642a110.46178046 110.46178046 0 0 1-6.87886526 14.03768442h10.66490749v7.19881311h-15.78406293v1.43976281q0 5.51908942-0.47992093 10.55825788H634.68064513v7.27880011h-15.51744117q3.11948563 12.23798159 16.79723003 24.95588323l-5.19914241 5.67906335c-8.15865411-8.478602-13.51777046-16.79722913-16.07734817-25.03587022-3.27945868 11.35812669-9.19848293 19.75674172-17.67708492 25.32915547l-4.55924755-6.07899731c8.31862804-5.11915544 13.6777444-13.33113478 16.23732121-24.87589716h-14.66424799v-7.27879919h15.75740119q0.35994093-4.31928752 0.47992094-8.87853594v-3.11948564h-15.01085762z m-33.11453822-7.0655009v-7.03883919h32.3146703v7.03883919h-4.55924753v41.83310023c1.59973585-0.47992094 3.11948563-1.03982884 4.71922148-1.51974978v7.35878617l-4.71922148 1.4397628v15.1175063h-7.27880011v-13.19782345c-6.07899731 1.59973585-12.39795463 2.95951168-18.95687288 4.23930143l-1.83969677-7.19881311 4.55924843-0.71988096v-47.35218963zM484.03882464 326.66390285v-7.2787992h30.66160922v-15.35746723h7.83870708v15.35746723h31.1948554v7.27879921h-25.11585808q7.55875315 19.0768538 25.91572599 33.99439311l-5.33245373 6.66556694q-19.19683381-18.11701192-26.79558089-40.55331135v50.65831092h-7.8387071v-50.79162225a86.95899044 86.95899044 0 0 1-27.59544793 40.95324533l-4.26596316-7.09216353a76.68068562 76.68068562 0 0 0 25.67576508-33.83441918z m-48.5253289 40.35334439v-63.22957173h7.67873317v16.57060042a89.51856817 89.51856817 0 0 0 5.83903639 13.51777045A114.95437232 114.95437232 0 0 0 465.37523702 316.10564408l6.15898338 4.55924843a122.21984112 122.21984112 0 0 1-19.03685985 19.03685987 79.82683298 79.82683298 0 0 0 23.75608223 24.23600226l-4.79920845 6.95885222q-19.43679382-15.71740725-28.2353428-34.66094973v32.79459123c0 5.59907637-2.6662273 8.478602-7.83870711 8.47860109h-10.55825878l-1.67972282-7.43877314q5.03916847 0.47992094 9.59841691 0.47992093c1.81303415-0.05332435 2.77287602-1.25312624 2.77287601-3.53275z m-31.46147803-35.99406384v-7.35878617h26.31565996v6.02567297q-5.75905032 26.66226868-24.15601619 40.31335045l-4.79920847-6.23897035c10.39828483-7.67873317 17.51711098-18.66358852 21.43646455-32.71460427z m577.23812379 498.43778744c0 38.75360764-31.79475543 70.54836396-71.0416153 70.54836398H200.85886608c-39.24685989 0-71.04161533-31.79475543-71.04161622-70.54836398V406.18412015H981.2901415z"  /></svg>