<?xml version="1.0" standalone="no"?><!DOCTYPE svg PUBLIC "-//W3C//DTD SVG 1.1//EN" "http://www.w3.org/Graphics/SVG/1.1/DTD/svg11.dtd"><svg t="1590375079850" class="icon" viewBox="0 0 1024 1024" version="1.1" xmlns="http://www.w3.org/2000/svg" p-id="1470" xmlns:xlink="http://www.w3.org/1999/xlink" width="16" height="16"><defs><style type="text/css"></style></defs><path d="M511.930054 0C294.659944 0 118.084871 170.091457 118.084871 379.08461 118.22282 448.886944 138.087516 517.309785 175.47177 576.214126l309.144327 433.298676c6.069768 9.104652 16.415964 14.622623 27.313957 14.484674 10.897993 0 21.244188-5.517971 27.313957-14.484674l310.109972-434.678169c36.970406-58.628442 56.697152-126.499486 56.697152-195.750023C905.775237 170.091457 729.062214 0 511.930054 0z" fill="#5262A6" p-id="1471"></path><path d="M535.657329 235.203516l17.933406-36.004761h77.113646v-35.590914H393.293677v35.590914h112.704558l-18.071355 36.004761c-74.35466 2.207188-142.225704 17.10571-142.225704 82.769565v200.440298c0 34.34937 28.141652 63.042819 61.525377 70.630029l-37.660152 37.522203v11.863638h52.972522l47.454551-47.454551h89.52908l47.454551 47.454551H654.569605v-11.863638l-35.590913-35.590913h-1.93129c40.143239 0 61.249479-32.693978 61.249479-72.699268V317.973081c-0.137949-66.353602-62.077174-80.700326-142.639552-82.769565z m-23.589326 320.180269c-19.726746 0-35.590913-15.864167-35.590913-35.590913s15.864167-35.590913 35.590913-35.590913 35.590913 15.864167 35.590913 35.590913c-0.137949 19.726746-16.002116 35.590913-35.590913 35.590913z m118.636378-106.910689H393.293677v-118.636377h237.410704v118.636377z m0 0" fill="#FFFFFF" p-id="1472"></path></svg>