<?xml version="1.0" standalone="no"?><!DOCTYPE svg PUBLIC "-//W3C//DTD SVG 1.1//EN" "http://www.w3.org/Graphics/SVG/1.1/DTD/svg11.dtd"><svg class="icon" width="64px" height="64.00px" viewBox="0 0 1024 1024" version="1.1" xmlns="http://www.w3.org/2000/svg"><path fill="#000000" d="M950.19927095 506.57900937q-46.3331894-93.16727848-111.56280735-93.17980147T723.6299744 506.57900937h-36.82862486q-26.76054749-58.63026843-77.32633637-58.63026843-41.8501401 0-67.62141211 58.69288065h-74.84688487q-37.56745138-43.82869282-90.44989923-45.0058059-59.39414003-1.13954591-98.15122746 45.0058059h-55.34937726Q200.19015708 456.88979447 151.51526273 459.66978506a48.61228122 48.61228122 0 0 0-9.45447532 1.50269814C165.05206794 274.34954953 323.73698046 133.99755275 512 133.99755275A46.62120639 46.62120639 0 0 0 512 40.83027426C254.73809558 40.83027426 46.16360759 249.37971717 46.16360759 506.66666667s208.53692083 465.83639241 465.83639241 465.83639241 465.83639241-208.54944291 465.83639241-465.83639241z m-273.25311609 341.86380366L350.45996078 851.66109197l-1.01432143-113.09055054-118.60044246 1.15206891-0.25044984-34.79998198 118.56287529-1.13954591-1.01432143-113.14064068 326.47367197-3.23080012 0.93918624 113.2157741 118.5503532-1.25224829 0.31306208 34.79998289-118.48774098 1.13954589z m0 0"  /><path fill="#000000" d="M628.45909811 413.41173088a23.29181962 23.29181962 0 1 0-20.12363084-11.63338773 23.27929754 23.27929754 0 0 0 20.12363084 11.63338773z m-389.72473628-69.86293678A46.63372938 46.63372938 0 1 0 279.0818038 320.21940732a46.63372938 46.63372938 0 0 0-40.33491989 23.29181962z m0 0M372.26160435 250.38151563a69.87545886 69.87545886 0 1 0 69.87545887-69.87545887 69.87545886 69.87545886 0 0 0-69.87545887 69.87545887z m0 0M468.54698149 425.07016278a23.29181962 23.29181962 0 1 0 20.17372097-11.6584319 23.29181962 23.29181962 0 0 0-20.17372097 11.6584319z m-86.29243499 390.92689531l-1.64044559-190.8676955 262.15819611-2.70485718 1.64044559 191.59399996z m0 0"  /><path fill="#000000" d="M590.39074795 235.90552508v7.02511304q-6.73709605 31.16846157-28.27576861 47.18471831l-5.61007223-7.30060796c12.17185456-8.99114369 20.49930605-21.81416656 25.0449676-38.28123282H559.58543768v-8.61546849z m48.08633736-3.46872787a143.09442113 143.09442113 0 0 1-22.27749909 22.27749818 93.4302504 93.4302504 0 0 0 27.79991403 28.363425l-5.62259523 8.13961479q-22.74083069-18.39552886-33.046834-40.62293688v38.38141223c0 6.54925934-3.09305357 9.91780691-9.17898041 9.91780692h-12.35969216l-1.96602974-8.76573804q5.89809013 0.56351192 11.27023551 0.56351103c2.15386735 0 3.28089116-1.40251782 3.28089117-4.01971679v-73.98283387h8.99114278v19.37228222a104.68796383 104.68796383 0 0 0 6.81223126 15.81589703 134.60417711 134.60417711 0 0 0 19.09678732-20.78732302zM688.95521688 230.93409908v-17.9697644h9.17898039v17.9697644h36.50303978v8.51528819h-29.30261213q8.84087325 22.32758832 30.32945566 39.78393095l-6.17358413 7.76393956q-22.46533579-21.2005645-31.30620902-47.4602123v59.39414003h-9.17898039v-59.46927527a101.79526995 101.79526995 0 0 1-32.29548542 47.92354485l-5.00899404-8.32745149a89.73611778 89.73611778 0 0 0 30.05396073-39.59609336h-28.5512626v-8.51528908zM782.3729452 216.05738825v8.23979417h-5.33457822v48.96291137c1.87837243-0.56351192 3.65656548-1.25224829 5.52241492-1.77819306v8.61546939l-5.52241492 1.69053482v17.69426949h-8.51528908V284.01690752c-7.11277035 1.87837243-14.5135586 3.46872786-22.18984087 5.00899316l-2.15386735-8.42763179 5.33457821-0.83900591v-55.46208056h-5.00899406v-8.23979417z m-13.8498673 20.03597353v-11.79617936h-10.48131884v11.79617936z m0 19.47246252v-11.42050505h-10.48131884v11.42050505z m0 20.12363083v-12.07167426h-10.48131884v14.5135586c3.55638518-0.76387159 7.11277035-1.60287752 10.48131884-2.44188434z m38.00573791-43.12743345a127.86708106 127.86708106 0 0 0 8.76573893-19.56011985l8.23979418 3.09305358a129.29464396 129.29464396 0 0 1-8.11456971 16.46706627h12.44734857v8.42763178h-18.433096v1.59035544q0 6.46160115-0.5635119 12.35969127h20.59948632v8.51528908H811.28736005q3.65656548 14.325721 19.66029921 29.20243182l-6.08592775 6.64943875c-9.54213262-9.91780691-15.81589706-19.66029921-18.78372523-29.30261215-3.84440217 13.29887748-10.76933583 23.116505-20.68714274 29.67828645l-5.40971344-7.01259095c9.72997023-5.98574745 16.00373375-15.62805943 18.99660791-29.11477453h-17.06814533v-8.51528908h18.445619q0.42576445-5.00899315 0.56351191-10.39366155v-3.69413263h-17.60661215v-8.3900637z m-4.49557139-4.77106633l-6.54925934 4.58322871a122.82051985 122.82051985 0 0 0-8.5152891-14.70139529l6.83727635-4.3077347a112.27658877 112.27658877 0 0 1 8.22727209 14.38833415zM884.2183044 212.68883978a134.15336759 134.15336759 0 0 0 40.62293687 31.45647947l-4.7710663 8.5152891a146.62576122 146.62576122 0 0 1-14.5135586-8.99114371v6.64943875H856.36830116v-6.83727635a148.57926889 148.57926889 0 0 1-14.88923382 9.366818l-4.6834081-8.61546848A135.24282334 135.24282334 0 0 0 877.65652297 212.68883978zM911.46722857 299.18163443h-8.61546847v-5.00899315h-43.82869283v5.00899315h-8.61546847v-38.81969875H911.46722857z m-8.42763087-57.37802013a127.3536593 127.3536593 0 0 1-22.08966148-21.06281705 122.72033955 122.72033955 0 0 1-22.27749819 21.06281705z m-0.1878376 43.90382805v-17.03057819h-43.82869283v17.03057819z"  /></svg>