<?xml version="1.0" standalone="no"?><!DOCTYPE svg PUBLIC "-//W3C//DTD SVG 1.1//EN" "http://www.w3.org/Graphics/SVG/1.1/DTD/svg11.dtd"><svg class="icon" width="64px" height="53.37px" viewBox="0 0 1228 1024" version="1.1" xmlns="http://www.w3.org/2000/svg"><path fill="#000000" d="M661.35591322 46.16363761A93.48674399 93.48674399 0 1 0 754.87261632 139.6503816 93.45678489 93.45678489 0 0 0 661.34093458 46.16363761M274.07722926 184.07942837l70.26859657 0.46436244-89.77183979 89.44229238 19.50324322-89.90665482zM464.99031106 376.99975732l-67.75204921 105.57515925-45.73225864-36.5648359 113.48430785-69.01032335zM864.97156917 899.58780828h-10.06618946v13.93088825c3.41531409-0.71901392 6.83062909-1.49794513 10.06618946-2.33679458zM854.90537971 861.85457553h10.06618946v11.3244636h-10.06618946zM951.88233463 904.45612883h42.062294v16.35755924h-42.062294zM972.91348208 858.42428099a117.97814327 117.97814327 0 0 1-21.39065397 20.28217443h42.60155422a122.36712183 122.36712183 0 0 1-21.21090025-20.28217443zM854.90537971 880.90843494h10.06618946v10.96495709h-10.06618946z"  /><path fill="#000000" d="M463.55228413 587.32620594l264.47715877 213.09764745-246.93622317 172.02399657h692.21533566L853.25763997 715.43045687l-92.63291502 58.41985323-277.91372457-222.81930996 126.02210782-234.48830048a54.16568879 54.16568879 0 0 0-2.41169141-55.93326407L503.66725008 108.26843503a54.40535981 54.40535981 0 0 0-45.10312202-23.71246897h-223.19379601v-0.08987639A54.22560701 54.22560701 0 0 0 183.1519713 124.50615786l-41.79266389 153.52437693-30.78276906-24.56629704a20.16233892 20.16233892 0 0 0-14.97944869-4.20922485 19.99756476 19.99756476 0 0 0-16.64216889 14.58998307 19.72793465 19.72793465 0 0 0 6.53103988 20.97122925l45.55250583 36.29520579a54.63005216 54.63005216 0 0 0 15.3988743 38.75183586 52.23334031 52.23334031 0 0 0 12.01351841 9.54190971l-24.97074219 24.67115298A57.371291 57.371291 0 0 0 116.74807171 435.04512358s1.61778064 222.5946185 1.79753434 238.1732456L59.28690431 899.87241793a57.10166089 57.10166089 0 0 0 14.12562063 56.72717483 57.65590065 57.65590065 0 0 0 56.81705121 14.97944959 57.5810038 57.5810038 0 0 0 40.0400682-42.49669827l60.86150283-233.23002726a57.41622965 57.41622965 0 0 0 2.0521849-15.12924419s-0.71901392-110.84792589-1.24329457-177.70120748l136.83727031 167.76983305-115.1020894 222.41486479a57.47614694 57.47614694 0 1 0 102.20478381 52.57786726l132.28351759-256.14858455a57.50610605 57.50610605 0 0 0-6.71079358-62.61409852l-24.16185187-29.71922818a53.9260178 53.9260178 0 0 0 5.81202685-9.4819915zM666.79345402 925.02291293l-5.39260214-7.0103819c11.68397011-8.62816253 19.68299691-20.97122925 24.08695503-36.75956915h-21.12102386v-8.26865601h29.56943268v6.74075268q-6.47112258 29.92894008-27.14276171 45.29785438z m335.41983062 8.71803982h-8.26865601v-4.85334193h-42.062294v4.85334193H943.61367862v-37.29882937h58.59960602z m-32.44548744-83.04606756h6.29136886a128.82326484 128.82326484 0 0 0 38.94656821 30.1985702l-4.58371092 8.17877961a140.55217361 140.55217361 0 0 1-13.93088826-8.62816343v6.38124617h-47.21522423v-6.62091717a142.67925536 142.67925536 0 0 1-14.29039476 8.98766992l-4.49383543-8.268656a129.79692933 129.79692933 0 0 0 39.27611653-30.2285293z m-80.5295202 0.62913661a107.6123646 107.6123646 0 0 1 7.93910861 13.90092917l-6.29136886 4.40395811a118.02308192 118.02308192 0 0 0-8.17877962-14.11064106z m-10.03623035 18.39476461h22.28942068a122.56185509 122.56185509 0 0 0 8.35853241-18.78423021l7.90914951 2.99589028a124.17963572 124.17963572 0 0 1-7.75935491 15.78833993h11.98355932v8.08890228h-17.73566795v1.61778065q0 6.20149247-0.53926024 11.86372381h19.77287332v8.17877961h-17.43607875q3.5051914 13.75113455 18.8741057 28.04152934l-5.84198506 6.38124527c-9.16742273-9.52693015-15.18916149-18.8741066-18.06521628-28.13140575-3.68494419 12.76249053-10.33582047 22.19954428-19.86274971 28.46095314l-5.12297203-6.83062816c9.34717643-5.75210865 15.36891521-14.97944959 18.24496998-27.95165294h-16.47739474v-8.17877961h17.73566795q0.40444516-4.85334192 0.53926023-9.97631307v-3.50519139H879.20204665z m-37.20895297-7.90914953v-7.9091495h36.31018535v7.9091495H873.21026608v47.00551233c1.79753435-0.53926021 3.5051914-1.16839682 5.30272574-1.70765704v8.26865601l-5.30272574 1.64773883v16.98669585h-8.23869691v-14.85961409c-6.83062909 1.79753435-13.93088826 3.32543768-21.30077665 4.76346553l-2.06716445-8.08890321 5.12297202-0.80889033v-53.17704479z m-87.80953219 14.56002489v-8.14882053h34.4527337v-17.25632594h8.80791623v17.25632594h35.05191121v8.17877963H804.30479961q8.49334747 21.43559171 29.12004974 38.19759518l-5.99178057 7.48972479q-21.57040675-20.35707218-30.10869287-45.56748447v56.92190717h-8.74799891v-57.07170177a97.72592794 97.72592794 0 0 1-31.00745961 46.01686828l-4.85334195-7.9990259a86.16179335 86.16179335 0 0 0 28.85041965-38.01784238z m-14.02076467-6.74075269a137.39151008 137.39151008 0 0 1-21.39065396 21.39065396 89.72690204 89.72690204 0 0 0 26.6933788 27.23263901l-5.39260123 7.8192731q-21.84003686-17.66077111-31.72647442-38.94656912v36.84944558c0 6.29136887-2.99589027 9.52693015-8.80791625 9.52693013h-11.8637238l-1.91736896-8.35853331q5.66223225 0.53926021 10.7852034 0.53926021c2.06716446 0 3.14568397-1.34815054 3.14568397-3.86469791v-71.12242554h8.62816342v18.60447649a100.61696138 100.61696138 0 0 0 6.56099899 15.18916149 129.13783362 129.13783362 0 0 0 18.33484546-19.95262703z"  /></svg>