<?xml version="1.0" standalone="no"?><!DOCTYPE svg PUBLIC "-//W3C//DTD SVG 1.1//EN" "http://www.w3.org/Graphics/SVG/1.1/DTD/svg11.dtd"><svg class="icon" width="64px" height="64.00px" viewBox="0 0 1024 1024" version="1.1" xmlns="http://www.w3.org/2000/svg"><path fill="#000000" d="M991.2 297.7L706 12.6c-1.1-1.1-2.9-1.1-4 0L508.4 206.3l127.1 127.1-41.1 45.8-2-1.8c-32.7-29.3-78.7-34.7-116.6-15.8l-49-44c-25.8-23.1-64.1-22-87.3 3.7L312.9 351c-23.1 25.8-22.3 66.5 3.5 89.6l49 44c-13.6 38.5-4.4 84.9 28.3 114.2l2 1.8-33.7 37.5-142.7-142.7L25.6 689.1c-1.1 1.1-1.1 2.9 0 4l285.1 285.1c1.1 1.1 2.9 1.1 4 0l193.7-193.7L380.9 657l34.6-38.6 131.1 117.7c1.9 1.7 3.9 3.3 5.8 4.8 15.9-43.3 42.6-87.9 79.1-128.6 36.5-40.7 77.9-71.9 119.2-92.5-1.7-1.8-3.5-3.6-5.4-5.2L614.3 397l40.1-44.7 143.1 143.1 193.7-193.7c1.1-1.1 1.1-2.9 0-4zM661.1 904.7c-20.1-17.6 16.8-92.5 82.4-167.4 65.6-74.9 135-121.3 155.1-103.8 17 14.9-6.9 70.9-54.4 133.2l18 21.1c78.6-102.8 106.6-210 61.7-249.4C874.4 495 755 550.2 657.4 661.7c-97.7 111.5-136.7 237.1-87.1 280.4 45.5 39.9 150.1-3.6 242.5-97.5l-23.3-15c-56.8 57.6-111 90.3-128.4 75.1z"  /><path fill="#000000" d="M848.7 806.7l-70.6-71-29.8 34.3 80.2 59.9c0.6 4.8 2.9 9.4 6.9 12.9 8.6 7.5 21.6 6.5 29.1-2.1s6.6-21.7-2.1-29.2c-3.9-3.3-8.8-4.9-13.7-4.8zM909.8 868.1c-19.5 22.9-45.2 37.4-72.5 43.3l4.2 11.8c29.3-6.6 56.8-22.5 77.8-47.1 18.8-22 29.7-48.2 33.1-74.9l-12.2-2.2c-3.1 24.7-13.1 48.8-30.4 69.1z"  /><path fill="#000000" d="M897.3 857.5c15.4-18 24.2-39.5 26.7-61.4l-9.8-1.8c-2.2 20.3-10.3 40.1-24.5 56.8-16.4 19.2-38.3 31.1-61.4 35.3l3.4 9.5c24.7-4.9 48-17.8 65.6-38.4z"  /></svg>