<?xml version="1.0" standalone="no"?><!DOCTYPE svg PUBLIC "-//W3C//DTD SVG 1.1//EN" "http://www.w3.org/Graphics/SVG/1.1/DTD/svg11.dtd"><svg class="icon" width="64px" height="64.00px" viewBox="0 0 1024 1024" version="1.1" xmlns="http://www.w3.org/2000/svg"><path fill="#000000" d="M625.15767805 246.02116696c-5.02086214 6.15055628-11.04589651 11.79902594-17.94958222 16.94540896h35.64812061c-6.65264188-5.02086214-12.55215537-10.6693318-17.69853839-16.94540896zM607.45913966 284.55628232h35.2715559v13.68184951h-35.2715559zM526.24669606 248.78264083h8.40994352v9.53963766H526.24669606zM534.65663958 280.41407152H526.24669606v11.67350402c2.88699579-0.62760751 5.77399157-1.25521502 8.40994352-2.00834444v-9.66515958zM526.24669606 264.84939949h8.40994352v9.16307296H526.24669606z"  /><path fill="#000000" d="M558.25469145 183.13486926l35.02051311-70.29206798h150.62586025V43.42938361H280.349978v69.53893856h220.16479981l-35.2715559 70.29206901C320.14030941 187.65364581 187.58955227 216.64912351 187.58955227 344.80662704v391.25067336c0 67.02850851 54.97843874 123.01111947 119.99860178 137.94818502L234.03252558 947.3100711v23.22148614h103.42975855l92.76042571-92.76042572h174.72599875l92.76042571 92.76042572h92.76042572V947.3100711l-69.53893855-69.53893958h-3.76564713c78.32544782 0 119.6220381-63.76494801 119.6220381-141.839352V344.68110513c-0.12552191-129.53824047-121.12829694-157.52954595-278.53232099-161.54623587z m64.26703361 56.3591767h5.27190599c9.53963767 10.6693318 20.33449138 19.07927533 32.6356029 25.35535353l-3.891168 6.90368467c-4.1422108-2.25938827-8.03337881-4.64429744-11.67350403-7.28024938v5.39742685H605.3252733v-5.52294876c-3.76564609 2.76147387-7.78233602 5.14638406-11.92454785 7.53129321l-3.7656461-6.90368571c13.05424095-6.90368571 24.10013748-15.43915115 32.88664571-25.48087441z m-15.0625854 65.52224966v4.0166889h-6.90368571v-31.25486598h49.07892629v31.25486598h-6.90368468v-4.0166889h-35.2715559z m-52.4680087-65.02016406c2.88699579 4.39325463 5.14638406 8.28442264 6.65264188 11.54798314l-5.27190494 3.64012521c-1.63177973-3.5146033-4.01668992-7.40577131-6.90368468-11.79902594l5.52294774-3.38908241z m-8.40994353 15.43915115h18.70271062c2.76147387-4.89534023 5.02086214-10.16724518 7.02920659-15.69019394l6.65264292 2.51043106c-2.13386636 5.14638406-4.26773272 9.53963767-6.527121 13.3052848h10.04172429v6.77816378H567.66880824v1.38073694c0 3.5146033-0.12552191 6.77816379-0.50208662 9.91620238h16.56884425v6.90368571h-14.56049981c2.00834444 7.6568141 7.28025042 15.56467203 15.81571586 23.47252996l-4.89534023 5.39742583c-7.6568141-8.03337881-12.67767625-15.81571586-15.18810836-23.59805085-3.13803858 10.6693318-8.66098736 18.57718973-16.69436616 23.84909468l-4.26773272-5.77399158c7.78233602-4.76981935 12.92872008-12.55215537 15.31362924-23.47252996h-13.8073704v-6.90368571h14.81154262c0.25104279-2.76147387 0.37656471-5.52294774 0.50208662-8.40994353v-2.88699578h-14.1839351v-6.77816379z m-31.25486598-6.65264188v-6.65264291h30.37621465v6.65264291h-4.26773273v39.41376671c1.50625885-0.50208662 2.88699579-1.00417222 4.39325464-1.38073693v6.90368467l-4.39325464 1.38073797v14.1839351h-6.90368467v-12.42663345c-5.77399157 1.50625885-11.67350402 2.76147387-17.82406031 4.01668888l-1.75730165-6.77816379 4.26773272-0.6276075v-44.56015078h-3.89116801z m-73.5556295 12.30111153v-6.90368467h28.86995682v-14.43497892h7.4057713v14.43497892H507.41846352v6.90368467h-23.59805188c4.76981935 11.92454682 12.92872008 22.71940053 24.35118131 32.00799541l-5.02086215 6.27607819c-12.05006873-11.42246123-20.46001226-24.10013748-25.22983161-38.15855168v47.69818935h-7.4057713v-47.82371127c-5.14638406 15.69019395-13.80737038 28.49339211-25.98296103 38.53511641l-4.01668993-6.65264188c11.04589651-8.40994353 19.07927533-18.95375444 24.22565938-31.88247453h-22.97044436z m-45.564323 38.03302977v-59.62273617h7.28025043v15.56467203c1.50625885 4.51877552 3.38908138 8.78650824 5.52294774 12.67767729 5.64846966-5.02086214 10.79485372-10.54380989 15.31362923-16.69436721l5.77399158 4.26773273c-5.77399157 7.02920659-11.79902594 13.05424095-17.94958119 17.94958222 5.77399157 9.16307295 13.30528478 16.81988808 22.34283583 22.84492245l-4.51877552 6.52711996c-12.17559065-9.91620237-21.08762081-20.83657698-26.61056958-32.63560291V300.87408378c0 5.27190494-2.51043108 8.03337881-7.40577131 8.03337985h-9.91620237l-1.63177974-7.02920659c3.13803858 0.25104279 6.15055628 0.50208662 9.03755104 0.5020856 1.75730165-0.12552191 2.76147387-1.25521502 2.76147386-3.26356051z m-29.6230852-34.01633985V258.19675657h24.72774497v5.64846966c-3.64012521 16.69436617-11.17141843 29.37204241-22.71940053 37.90750889l-4.51877552-5.89951348c9.79068046-7.28025042 16.44332337-17.57301751 20.20896947-30.75277936h-17.69853839z m145.60499809 543.13174966c-38.5351164 0-69.53893958-31.00382318-69.53893855-69.53893855s31.00382318-69.53893958 69.53893855-69.53893958 69.53893958 31.00382318 69.53893958 69.53893958c-0.12552191 38.5351164-31.1293451 69.53893958-69.53893958 69.53893855zM743.90106481 599.61537526H280.349978V367.9025923h463.55108681V599.61537526z"  /></svg>