<?xml version="1.0" standalone="no"?><!DOCTYPE svg PUBLIC "-//W3C//DTD SVG 1.1//EN" "http://www.w3.org/Graphics/SVG/1.1/DTD/svg11.dtd"><svg class="icon" width="64px" height="55.59px" viewBox="0 0 1179 1024" version="1.1" xmlns="http://www.w3.org/2000/svg"><path fill="#000000" d="M591.23960461 485.63441816a93.68698841 93.68698841 0 0 0-39.63790481 8.7240638l-120.51813976-91.19439863c-17.4481276-13.48003887-42.03021823-9.51195101-55.51025711 7.9361757s-9.51195101 42.03021823 7.92185114 55.5102571l117.35226458 88.81641155a83.6736547 83.6736547 0 0 0-3.1658752 24.58209063 93.5723866 93.5723866 0 1 0 93.55806116-94.36027471z m0 0"  /><path fill="#000000" d="M591.23960461 53.44230122C301.02481835 53.44230122 63.94230121 289.80855661 63.94230121 580.78258007c0 137.96626736 53.13226912 268.0106836 149.06831824 367.12693426a40.25388931 40.25388931 0 0 0 28.5501794 11.88993809 41.05610197 41.05610197 0 0 0 27.74796583-11.03042451c15.85802684-15.07013962 15.85802684-40.44011748 0.80221266-56.29814522-72.94405924-74.49118367-115.7621647-170.47020826-124.4862285-273.61184768h76.10993442a39.65223026 39.65223026 0 1 0 0-79.29013419H145.61042427C164.64865173 323.87394827 338.29906065 151.81363922 554.76757498 134.36551163v64.23432089a39.65223026 39.65223026 0 0 0 79.29013508 0V134.36551163c214.07620181 19.82611469 384.54641008 191.09853651 403.58463755 405.18906375h-62.62989469a39.65223026 39.65223026 0 0 0 0 79.29013508h63.43210734a445.94433577 445.94433577 0 0 1-124.48622761 273.61184768 39.80980753 39.80980753 0 1 0 57.08603243 55.45295619c95.97902548-99.11624975 149.06831826-229.20364235 149.06831825-367.12693426C1118.52258346 289.80855661 882.24227898 53.44230122 591.23960461 53.44230122z m0 1e-8"  /><path fill="#000000" d="M454.63423438 911.9388674v6.44635217q-6.18849857 28.65045485-25.95731233 43.31948816l-5.15708229-6.70420582c11.17367723-8.25133112 18.82334931-20.05531829 23.03496623-35.15410884h-20.19857102v-7.90752567z m44.17900171-3.18020065a131.33368702 131.33368702 0 0 1-20.45642462 20.45642554 85.77946273 85.77946273 0 0 0 25.52755511 26.04326326l-5.15708139 7.47776935q-20.88618187-16.88944312-30.34083287-37.2455923v35.24005974c0 6.01659584-2.86504522 9.1108447-8.42323382 9.11084469h-11.34557996l-1.80497894-7.99347661q5.41493591 0.51570813 10.31416458 0.51570815c1.97688165 0 3.00829792-1.28927079 3.00829702-3.69590878v-68.04483149h8.25133112v17.79193304a96.16525274 96.16525274 0 0 0 6.27445037 14.56875693 123.49778768 123.49778768 0 0 0 17.53407851-19.08120382zM545.14102216 907.38344505v-16.50266224h8.42323384v16.50266224h33.5210326v7.82157389h-26.88845226q8.12240386 20.49940097 27.84824308 36.52933052l-5.73009133 7.16261395q-20.62832734-19.4679847-28.79370755-43.57734265v54.43586536h-8.42323383v-54.57911718a93.44345934 93.44345934 0 0 1-29.65322111 44.00709899l-4.59839871-7.54939481a82.39870937 82.39870937 0 0 0 27.59038856-36.35742782h-26.21516596v-7.82157389zM630.92048489 893.71717803v7.56372027h-4.82760141v44.95256435c1.71902712-0.51570813 3.35210336-1.11736808 5.07113048-1.63307622v7.9075257l-5.07113048 1.54712442v16.20183226h-7.82157391v-14.18197517c-6.53230399 1.71902712-13.32246161 3.18020063-20.3704737 4.55542233l-1.97688167-7.73562298 4.89922778-0.77356174v-50.84023295h-4.55542234v-7.56372027z m-12.72080167 18.39359207v-10.8298718h-9.62655282v10.8298718z m0 17.87788395v-10.48606639h-9.62655282v10.48606639z m0 18.47954388v-11.08772634h-9.62655282v13.32246161c3.26615154-0.68761086 6.53230399-1.46117351 9.62655282-2.23473527z m34.8962543-39.62357937a117.26631368 117.26631368 0 0 0 7.99347751-17.96383575l7.56371938 2.86504522a118.65586082 118.65586082 0 0 1-7.39181667 15.12744054h11.46018177v7.73562298h-16.96106949v1.54712441q0 5.93064404-0.51570812 11.34558085h18.90930022v7.80724844h-16.67456495q3.35210336 13.15055887 18.04978665 26.81682591l-5.58683862 6.10254765c-8.76703927-9.1108447-14.52578058-18.04978665-17.27622399-26.90277772-3.52400606 12.20509352-9.88440734 21.22998728-18.99525203 27.21793225l-4.89922778-6.532304c8.93894196-5.50088771 14.6976833-14.32522786 17.44812673-26.73087409h-15.75775049v-7.82157481h16.93241947q0.38678087-4.64137413 0.51570814-9.54060101v-3.35210334h-16.08723047v-7.73562298z m-4.08268963-4.38351963l-6.01659585 4.21161691a112.8684686 112.8684686 0 0 0-7.82157389-13.49436521l6.27444946-3.95376239a102.9124349 102.9124349 0 0 1 7.56372028 13.23651069zM724.43557147 890.6229283a123.19695771 123.19695771 0 0 0 37.2455914 28.87965936l-4.32621873 7.77859844a134.41361041 134.41361041 0 0 1-13.3224616-8.25133113v6.10254676h-45.21041799v-6.27444947a136.18993934 136.18993934 0 0 1-13.66626792 8.59513656l-4.29756781-7.9075257a124.14242219 124.14242219 0 0 0 37.56074681-28.96561029z m25.01184698 79.41906235h-7.90752569v-4.64137415h-40.2252393v4.64137415h-7.89320026v-35.59819062h56.04029069z m-7.73562298-52.68818734a116.96548369 116.96548369 0 0 1-20.28452192-19.33905746 112.82549314 112.82549314 0 0 1-20.45642552 19.33905746z m-0.17190271 40.3111902v-15.64314777h-40.2252393v15.64314777z"  /></svg>