<?xml version="1.0" standalone="no"?><!DOCTYPE svg PUBLIC "-//W3C//DTD SVG 1.1//EN" "http://www.w3.org/Graphics/SVG/1.1/DTD/svg11.dtd"><svg t="1593504813280" class="icon" viewBox="0 0 1024 1024" version="1.1" xmlns="http://www.w3.org/2000/svg" p-id="2080" xmlns:xlink="http://www.w3.org/1999/xlink" width="16" height="16"><defs><style type="text/css"></style></defs><path d="M512 0C294.4 0 117.76 169.984 117.76 378.88c0 69.632 19.968 138.24 57.344 197.12l309.248 433.152c6.144 9.216 16.384 14.848 27.136 14.336 10.752 0 20.992-5.632 27.136-14.336l310.272-434.688c36.864-58.88 56.832-126.464 56.832-195.584 0-208.896-176.64-378.88-393.728-378.88z" fill="#746CD3" p-id="2081"></path><path d="M697.856 239.616c-65.536-7.168-128.512-30.208-182.272-67.584-50.688 48.128-138.24 62.464-189.44 67.072-12.288 1.024-22.016 11.264-22.016 23.552v159.744c0 108.544 178.176 224.256 208.896 224.256 28.16 0 206.336-116.224 206.336-218.112V263.168c0-12.288-9.216-22.528-21.504-23.552z m-95.744 281.6c-18.944 10.24-43.008 14.848-71.68 14.848-36.864 0-66.56-11.776-89.088-35.328-22.016-23.552-33.28-54.784-33.28-93.696 0-41.472 12.8-75.264 37.376-100.864s56.832-37.888 95.232-38.4c24.576 0 45.056 3.584 61.44 10.24v34.816c-18.944-10.24-39.936-15.36-60.928-15.36-28.672 0-52.224 9.728-70.656 28.672-18.432 18.944-27.136 45.056-27.136 77.824 0 31.232 8.192 55.808 25.6 73.728 16.896 18.432 39.424 27.136 66.56 27.648 25.6 0 48.128-5.632 67.072-17.408l-0.512 33.28z" fill="#FFFFFF" p-id="2082"></path></svg>