<?xml version="1.0" standalone="no"?><!DOCTYPE svg PUBLIC "-//W3C//DTD SVG 1.1//EN" "http://www.w3.org/Graphics/SVG/1.1/DTD/svg11.dtd"><svg class="icon" width="64px" height="63.94px" viewBox="0 0 1025 1024" version="1.1" xmlns="http://www.w3.org/2000/svg"><path fill="#000000" d="M371.46440999 417.95028364a46.42874864 46.42874864 0 0 0-46.46619024 46.50363275v464.66190786a46.51611389 46.51611389 0 1 0 92.93238137 0v-464.66190786a46.4162675 46.4162675 0 0 0-46.46619113-46.50363275zM92.6298233 603.81504642a46.45371 46.45371 0 0 0-32.87454914 13.6290836A46.44122888 46.44122888 0 0 0 46.16363216 650.31867916v278.84706784a46.51611389 46.51611389 0 0 0 46.46619114 44.43181265 46.51611389 46.51611389 0 0 0 46.46619115-44.43181265V650.31867916a46.46619114 46.46619114 0 0 0-13.59164201-32.88702936 46.44122888 46.44122888 0 0 0-32.87454914-13.62908452zM650.31147781 278.53922995a46.4162675 46.4162675 0 0 0-46.46619024 46.46619116v604.16032589a46.51611389 46.51611389 0 1 0 92.9323814 0V325.01790133a46.46619114 46.46619114 0 0 0-46.46619116-46.51611389zM914.93038097 520.55532099h35.04621654v13.6290836h-35.04621654zM909.01445986 411.0733366h8.38712857v9.13597967h-8.38712857zM917.40158843 426.64943344h-8.38712857v11.60718715c2.84563256-0.59908107 5.69126604-1.24808488 8.38712857-1.94701233zM909.01445986 395.19770057h8.38712857v9.43551978h-8.38712857zM914.63084088 499.06330304h35.49552666a101.9061099 101.9061099 0 0 1-17.6728783-16.84914218 98.29914508 98.29914508 0 0 1-17.82264836 16.84914218z"  /><path fill="#000000" d="M965.21571086 59.77495665a46.47867138 46.47867138 0 0 0-79.34074031 32.91199167v836.42887593a46.51611389 46.51611389 0 0 0 92.93238138 0V92.63702465a46.39130522 46.39130522 0 0 0-13.59164107-32.862068z m-47.58946736 171.91117682h-17.59799329v-6.88942727h24.63719059v5.6413424q-5.39172598 24.96169296-22.61529324 37.74207907l-4.49310483-5.84103609c9.78498349-7.25137214 16.39983207-17.51062713 20.06920077-30.65295811z m47.55202484 79.00375681v6.81454226h-23.43902937q7.07663983 17.77272469 24.26276551 31.78871543l-4.9923386 6.24042257q-17.9724184-16.96146971-25.08650164-37.96673413v47.42721618h-7.33873739v-47.55202485a81.41256039 81.41256039 0 0 1-25.83535184 38.34116015l-4.0437938-6.66477222a71.78982807 71.78982807 0 0 0 24.03810955-31.67638793h-22.83994831v-6.81454135h28.70594577v-14.35297333h7.33873829v14.3779347z m2.17166739 139.28624409l-4.86752993 5.31684096c-7.63827747-7.93781847-12.65557835-15.72586598-15.0519008-23.43902937-3.07028854 10.633681-8.61178365 18.49661443-16.54960209 23.71360807l-4.26844977-5.69126605c7.78804841-4.79264491 12.80534838-12.48084602 15.20167084-23.28925935h-13.72893089v-6.81454224h14.7523598q0.33698259-4.04379381 0.44931102-8.31224356v-2.9205176h-14.05343326v-6.73965723h18.57149948a102.16820746 102.16820746 0 0 0 6.96431228-15.66346209l6.58988718 2.49616974a103.41629234 103.41629234 0 0 1-6.44011715 13.17977349h9.98467719v6.73965724h-14.77732209v1.34793127q0 5.16707-0.44931012 9.88482988h16.47471708v6.81454226h-14.52770564q2.9205176 11.43245484 15.72586687 23.33918207z m-67.69611062-2.9954026l-1.72235637-6.73965724 4.26844886-0.67396518v-44.38188991h-3.96890878v-6.58988629h30.25357164v6.58988629h-4.26844978v39.16489627c1.49770129-0.44931012 2.9205176-0.97350616 4.41821982-1.4228172v6.88942727l-4.41821982 1.34793125v14.15327967h-6.81454225v-12.35603735c-5.69126604 1.51018245-11.60718715 2.7832287-17.74776332 3.9813899z m32.45020039-57.06242964l5.46661099-3.44471365a89.66240007 89.66240007 0 0 1 6.58988628 11.53230215l-5.241955 3.66936871a98.33658759 98.33658759 0 0 0-6.76461862-11.79439972z m24.76199929 155.03707327h-6.88942728v-4.0437947h-35.04621654v4.0437947h-6.88942729v-31.07730777h48.82507111z m6.88942727-37.21788393a117.10778074 117.10778074 0 0 1-11.60718717-7.18896735v5.31684003h-39.38955131v-5.46661007a118.66788683 118.66788683 0 0 1-11.90672725 7.48850742l-3.74425372-6.88942726a108.15901361 108.15901361 0 0 0 32.69981684-25.22379055h5.24195592a107.33527838 107.33527838 0 0 0 32.4502004 25.16138666z m-0.67396609-238.73362767q-18.19707344-14.71491822-26.43443199-32.45020041v30.70288176c0 5.24195502-2.49616885 7.93781847-7.33873831 7.93781847h-9.88482989l-1.57258631-6.9643123q4.71775988 0.44931012 8.98620874 0.44931012c1.72235637 0 2.62097751-1.12327621 2.6209775-3.22005858v-59.27153862h7.18896827v15.51369204a83.80888284 83.80888284 0 0 0 5.46661008 12.65557836 107.62233732 107.62233732 0 0 0 15.27655586-16.62448713l5.76615107 4.26844886a114.42439843 114.42439843 0 0 1-17.82264835 17.82264837 74.73530794 74.73530794 0 0 0 22.24086815 22.69017915z"  /></svg>