<?xml version="1.0" standalone="no"?><!DOCTYPE svg PUBLIC "-//W3C//DTD SVG 1.1//EN"
  "http://www.w3.org/Graphics/SVG/1.1/DTD/svg11.dtd">
<svg class="icon" width="64px" height="64.00px" viewBox="0 0 1024 1024" version="1.1"
     xmlns="http://www.w3.org/2000/svg">
  <path fill="#00b4c9"
        d="M877.18038177 173.75495832A778.83564849 778.83564849 0 0 1 518.98123344 40.83027426C419.64396923 135.13005014 247.94437766 163.65498209 147.15711761 172.29246134a46.46238986 46.46238986 0 0 0-42.78739836 46.24989021v313.74925447c0 212.56199473 349.37416901 440.21145305 410.5615235 440.21145305 55.27486891 0 404.58653761-227.63695899 404.58653851-427.9239828h0.11249949V219.57984926c-0.05000007-23.98744254-18.5374561-43.26239681-42.44989898-45.82489094zM730.14323149 452.39179564a127.88719574 127.88719574 0 0 1 9.37497743 16.38746102l-7.49998229 5.21248813a139.8621671 139.8621671 0 0 0-9.6874763-16.71246106z m-41.61240157 273.58684964q-56.17486664 29.56242964-140.91216505 29.56242966-109.38723947 0-174.74958437-69.47483502t-65.362344-183.74956258q0-122.83720807 73.57482486-197.73702996t186.89955555-74.88732255q72.91232637 0 120.54971301 20.68745118v68.61233713q-54.53737075-30.21242791-119.88721449-30.21242883-85.07479779 0-138.61217066 56.66236534t-53.56237245 152.9121369q0 91.31228248 49.93738103 144.99965558t130.73718918 53.74987159q75.54982015 0 131.38718739-34.16241844z m-114.33722788-189.38705l-5.74998602-9.47497757a102.04975765 102.04975765 0 0 0 34.1749187-44.99989285h-32.49992297v-9.68747721h40.77490327v-20.46245128h10.4374747v20.43745169h41.51240143v9.68747721h-33.32492014q9.9999761 25.38743921 34.48741759 45.23739207l-6.98748311 8.83747956q-25.5499397-24.11244229-35.66241528-53.97487238v67.49983974h-10.4374756v-67.59983899a115.73722457 115.73722457 0 0 1-36.72491257 54.49987001z m-110.38723737-48.749884v-9.79997671h34.99991678v7.987481q-7.66248186 35.44991564-32.14992334 53.64987235l-6.38748494-8.29997986c13.83746714-10.22497597 23.31244471-24.7999413 28.52493194-43.53739678z m38.11240902 52.58737506c2.4999938 0 3.74999114-1.59999606 3.74999114-4.57498922v-84.21229987h10.22497596v22.03744776a119.09971717 119.09971717 0 0 0 7.77498135 17.98745708 153.06213622 153.06213622 0 0 0 21.71244865-23.63744385l8.19998062 6.06248579a162.66211352 162.66211352 0 0 1-25.31244047 25.34993941 106.24974767 106.24974767 0 0 0 31.6124255 32.24992351l-6.38748493 9.2624779q-25.86243857-20.91245016-37.57491113-46.2498893v43.64989536c0 7.49998229-3.51249192 11.24997343-10.43747471 11.24997344h-14.09996685l-2.23749409-9.89997594q6.71248405 0.72499792 12.77496896 0.72499793z m209.17450253 9.89997684h-9.6874763v-17.58745829c-8.08748114 2.12499458-16.4999605 3.93749028-25.22494058 5.63748651l-2.49999379-9.57497772 6.07498515-0.96249713v-62.99985019h-5.63748653v-9.36247808h43.01239826v9.36247808h-6.06248579v55.6748677c2.12499458-0.63749892 4.14998994-1.38749642 6.24998494-2.02499535v9.7999767l-6.24998494 1.91249495z m54.39987077-0.10000016c-10.862474-11.24997343-17.98745709-22.34994664-21.39994885-33.32492104-4.36248957 15.11246408-12.23747107 26.24993804-23.52494434 33.74992033l-6.04998557-8.09998139c11.07497363-6.81248421 18.19995672-17.77495744 21.6124485-33.11242049h-19.49995325v-9.68747721h20.97495049q0.47499844-5.74998601 0.63749801-11.8124718v-4.14998992h-19.97495261v-9.57497773h26.39993736a145.34965428 145.34965428 0 0 0 9.89997685-22.2499474l9.36247718 3.51249191a146.7621512 146.7621512 0 0 1-9.14997845 18.74995573h14.11246712v9.57497683h-20.9749505v1.91249584q0 7.34998297-0.63749799 14.04996679h23.41244393v9.6874763h-20.63745109q4.14998994 16.24996102 22.34994664 33.21242155z m98.46226606-0.21249963h-9.78747644v-5.749986h-49.82488156v5.749986h-9.82497718V505.82916834h69.39983535z m9.79997669-52.89987394a166.37460485 166.37460485 0 0 1-16.4999605-10.21247574v7.4999823h-55.99986682v-7.77498134a168.74959891 168.74959891 0 0 1-16.9249598 10.64997434l-5.32498762-9.79997669a153.74963431 153.74963431 0 0 0 46.52488926-35.87491492h7.49998229a152.61213735 152.61213735 0 0 0 46.24989022 35.76241543z"/>
  <path fill="#00b4c9"
        d="M689.51832756 526.05412042c4.04999069-0.84999764 8.08748114-1.81249571 11.92497219-2.76249351v-13.74996724h-11.92497219zM689.48082771 464.84176636h11.92497221v13.41246785h-11.92497221zM804.34305505 515.30414592h49.8123813v19.37495441h-49.8123813zM829.25549583 460.80427591a139.66216771 139.66216771 0 0 1-25.33744006 23.94994272h50.46238047a144.82465577 144.82465577 0 0 1-25.12494041-23.94994272zM689.48082771 487.41671199h11.92497221v12.98746949h-11.92497221z"/>
</svg>
