<?xml version="1.0" standalone="no"?><!DOCTYPE svg PUBLIC "-//W3C//DTD SVG 1.1//EN" "http://www.w3.org/Graphics/SVG/1.1/DTD/svg11.dtd"><svg class="icon" width="64px" height="53.72px" viewBox="0 0 1220 1024" version="1.1" xmlns="http://www.w3.org/2000/svg"><path fill="#000000" d="M377.09279403 217.78155586a83.51163646 83.51163646 0 1 0 93.87240193 71.58140267 83.5002635 83.5002635 0 0 0-93.87240193-71.58140267z m-77.02904995 614.99274708a83.28417728 83.28417728 0 1 0 57.37657714-28.159446 83.5002635 83.5002635 0 0 0-57.38795009 28.14807303z m257.42692243-201.54020289a129.46976298 129.46976298 0 1 0-106.99679638 97.23879773 129.46976298 129.46976298 0 0 0 106.99679638-97.23879773z m352.56172277 0a129.46976298 129.46976298 0 1 0-106.99679639 97.23879773 129.46976298 129.46976298 0 0 0 106.99679639-97.23879773zM178.15699872 472.62681663a83.51163646 83.51163646 0 0 0-92.12096626 11.04314301 83.51163646 83.51163646 0 0 0-25.02050937 89.36871023 83.51163646 83.51163646 0 0 0 72.99164958 57.30833938 83.51163646 83.51163646 0 0 0 80.87311002-45.49183519 83.51163646 83.51163646 0 0 0-36.67779214-112.21698447z m656.2197227-252.03613994a83.51163646 83.51163646 0 1 0 79.40599834 86.3435032 83.51163646 83.51163646 0 0 0-79.40599834-86.34350319z m60.62924335 636.78333611a83.51163646 83.51163646 0 1 0 4.1738759 63.79092591 83.51163646 83.51163646 0 0 0-4.1738759-63.79092591z m0 0"  /><path fill="#000000" d="M1053.15832985 473.95745282a83.51163646 83.51163646 0 1 0 107.89526012 46.82247137 83.51163646 83.51163646 0 0 0-107.89526012-46.82247137z m-613.69622976 16.79786015l-18.9928412-132.30162972-41.64777511 5.18606921 18.77675496 132.26751085z m-74.66347453 332.94336884l38.66805992 15.92214231 56.75106442-121.69065915-38.66805992-15.92214231zM195.01172366 576.63252486l133.79148731 22.43884772 6.23238142-41.59091035-133.58677405-22.4388477z m600.32163021-78.98519886l42.07994755 1.94477595 6.69867272-134.428373-42.07994754-1.93340299z m-25.02050936 207.38590369l20.64192021 128.60541811 41.64777514-5.83432785-20.69878503-128.37795894z m0 0"  /><path fill="#000000" d="M1022.0874064 534.34786405l-125.17078454 9.48504763 2.59303461 42.07994755 124.93195241-9.49642058zM549.7343086 594.31747579h119.32508372v20.47132582H549.7343086z m0 0M429.01035095 74.41403725v8.54109205q-8.18853035 37.94019056-34.3918274 57.41069601l-6.82377528-8.95051857c14.78484645-10.92941341 24.95227162-26.54448584 30.52502141-46.62913108h-26.85155573v-10.40625729z m58.55936486-4.21936772a174.00626962 174.00626962 0 0 1-27.12450675 27.11313378 113.64997729 113.64997729 0 0 0 33.83455243 34.51692995l-6.82377529 9.91722007q-27.67040876-22.359237-40.26027412-49.41550598v46.62913107c0 7.96107116-3.76444935 12.07808225-11.16824556 12.07808226h-14.9895597l-2.38832133-10.58822464q7.176337 0.68237753 13.64755055 0.69375048c2.61578053 0 3.98053559-1.71731677 3.98053558-4.89037227V46.16360759h10.92941341v23.57614359a127.37713855 127.37713855 0 0 0 8.32500584 19.25441925A163.65687712 163.65687712 0 0 0 478.7670457 63.64384527z m61.4139775-1.85379229V46.50479636h11.1000078v21.83608089h44.42277707v10.44037617h-35.59736105q10.77019198 27.19274449 36.90525131 48.41468561l-7.44928801 9.48504764q-27.29510112-25.79387056-38.15627678-57.75188479v72.21828838h-11.16824554V78.78125342a123.86289428 123.86289428 0 0 1-39.30494561 58.32053273l-6.14139775-10.14467926a109.18040449 109.18040449 0 0 0 36.50719775-48.17585347h-34.76713505V68.34087724z m113.6727232-18.09437744v10.0195767h-6.41434876v59.66254186c2.27459177-0.68237753 4.46957281-1.4898576 6.72141865-2.16086218v10.4403762l-6.72141865 2.03575961v21.52901101h-10.44037618V132.98477507c-8.66619461 2.27459177-17.66220502 4.21936771-27.01077714 5.95943041l-2.62715348-10.23566293 6.48258652-1.03493925V60.28882241h-5.97080338V50.2464998z m-16.84335198 24.39499662V60.28882241h-12.77183271v14.35267401z m0 23.70124613V84.4449869h-12.77183271v13.89775565z m0 24.48598032V108.13486009h-12.77183271v17.66220502c4.34447026-0.90983671 8.66619461-1.94477595 12.77183271-2.96834224z m46.19695864-52.52032376a155.43422791 155.43422791 0 0 0 10.58822465-23.88321347l10.0195767 3.75307641a157.21978244 157.21978244 0 0 1-9.79211753 20.05052636h15.14878113v10.30390066h-22.39335587v2.04713258q0 7.85871453-0.68237753 15.03505155h25.02050936v10.44037617h-22.05216711q4.46957281 17.43474584 23.88321346 35.55186919l-7.46066097 8.08617371c-11.61179094-12.07808225-19.25441925-23.88321347-22.90513902-35.65422582-4.66291312 16.18372037-13.09027559 28.13670007-25.16835782 36.12051713l-6.50533243-8.65482163c11.83925012-7.2900666 19.47050546-19.02696007 23.1325982-35.42676667h-20.88075235v-10.44037617h22.37060994q0.51178315-6.15277071 0.68237753-12.64673018v-4.4695728H663.80508536v-10.23566292z m-5.47039317-5.81158194l-7.96107115 5.59549573A149.79324034 149.79324034 0 0 0 668.12680971 52.19127576l8.32500582-5.23156105a136.80532139 136.80532139 0 0 1 10.09918742 17.54847542z m100.08203743-18.32183661a163.31568837 163.31568837 0 0 0 49.44962486 38.2813793l-5.81158195 10.44037619a179.0103715 179.0103715 0 0 1-17.6963239-10.94078637v8.07480074h-59.89000104v-8.3932436a180.96652043 180.96652043 0 0 1-18.11712335 11.37295881l-5.68647941-10.44037617A164.55534086 164.55534086 0 0 0 778.64922331 46.17498056z m33.14080194 105.29085255h-10.44037618v-6.14139775h-53.36192267v6.14139775h-10.44037619V104.1315786h74.27679391z m-10.23566292-69.84134a154.67223967 154.67223967 0 0 1-26.86292869-25.69151391 149.09948986 149.09948986 0 0 1-27.11313377 25.63464914z m-0.22745919 53.45290636V114.27625784h-53.33917674v20.73290388z m0 0"  /></svg>