<?xml version="1.0" standalone="no"?><!DOCTYPE svg PUBLIC "-//W3C//DTD SVG 1.1//EN" "http://www.w3.org/Graphics/SVG/1.1/DTD/svg11.dtd"><svg class="icon" width="64px" height="63.94px" viewBox="0 0 1025 1024" version="1.1" xmlns="http://www.w3.org/2000/svg"><path fill="#000000" d="M191.56308363 212.93057223v7.54146721q-7.23980812 33.48411154-30.36697187 50.67865503l-6.03317358-7.84312539c13.07187505-9.61536991 22.02108255-23.44139223 26.94817402-41.12613116h-23.6299286v-9.25086569z m51.68418471-3.77073269a153.68252021 153.68252021 0 0 1-23.88131101 23.88131101 100.35178218 100.35178218 0 0 0 29.86420793 30.46752428l-6.03317358 8.79837843q-24.43435161-19.75864255-35.49516909-43.63995359V269.89378326c0 7.03870238-3.31824544 10.65860596-9.85418295 10.65860689h-13.32325838l-2.11160999-9.26343507q6.2845551 0.60331728 12.06634627 0.60331726c2.31271665 0 3.51935118-1.50829361 3.51935119-4.32377421v-79.57504143h9.65307719v20.81444708a112.40555995 112.40555995 0 0 0 7.34036053 16.99343864 144.54477634 144.54477634 0 0 0 20.51278983-22.38558677zM297.44527455 207.60126925v-19.26844711h9.85418387v19.30615438H346.5653611v9.15031326h-31.42277821q9.50224811 23.98186343 32.57913608 42.73497721l-6.63649085 8.34589024q-24.13269343-22.7752289-33.6852173-50.98031503v63.75053098H297.54582788v-63.8510834a109.35126544 109.35126544 0 0 1-34.69074607 51.5333547l-5.53040873-9.03719052a96.40508161 96.40508161 0 0 0 32.27747699-42.53387146h-30.66863095v-9.15031325zM397.79705764 191.61336029v8.79837751h-5.73151449v52.58916107c2.01105756-0.60331728 3.92156269-1.25691121 5.93262024-1.91050514v9.25086567l-5.93262024 1.80995181v19.00449621h-9.15031327v-16.59122714c-7.64201962 2.01105756-15.58569745 3.77073361-23.88131101 5.32930298l-2.31271665-9.04975992 5.7315145-0.90497545v-59.47703342h-5.32930298v-8.7983775z m-14.88182776 21.5183177v-12.66966352h-11.31219991v12.66966352z m0 20.91500134v-12.26745293h-11.31219991v12.26745293z m0 21.61887102v-12.9713226h-11.31219991v15.58569744c3.87128602-0.81699241 7.64201962-1.70939938 11.31219991-2.61437484z m40.82447299-46.35488171a137.34267641 137.34267641 0 0 0 9.35141811-20.9778465l8.79837748 3.31824543A138.87610791 138.87610791 0 0 1 433.29222673 209.31066864h13.37353413v9.04975991h-19.80891924v1.80995181q0 6.93814903-0.60331725 13.27298169H448.37516023v9.15031236h-19.50726013q3.92156269 15.38459169 21.11610619 31.42277731l-6.53593753 7.1392557c-10.25639446-10.65860596-16.99343773-21.11610618-20.21113074-31.42277821-4.12266845 14.2785105-11.56358232 24.83656312-22.22218828 31.87526547l-5.7315145-7.8054172c10.45750022-6.43538509 17.19454349-16.79233199 20.41223649-31.27194824h-18.40117893v-9.15031324h19.80891922q0.45248817-5.42985631 0.60331728-11.16137081v-3.9215627h-18.85366622v-9.04975991z m-4.82653905-5.12819724l-7.03870236 4.92709149a131.88768222 131.88768222 0 0 0-9.15031236-15.74909594l7.34036056-4.6254333a120.66346534 120.66346534 0 0 1 8.84865416 15.44743775zM507.19859974 187.9934567a144.12999635 144.12999635 0 0 0 43.63995357 33.7857697l-5.12819723 9.15031325a157.69206686 157.69206686 0 0 1-15.58569835-9.65307717V228.41571726H477.28411514v-7.40320661a159.37632744 159.37632744 0 0 1-15.98790895 10.0552887l-5.02764481-9.25086567a145.26121634 145.26121634 0 0 0 43.99188932-33.93659972z m29.26089067 92.91086829h-9.25086569v-5.42985632h-47.05875235v5.42985632h-9.25086565v-41.72944844h65.56048368z m-9.04975994-61.58864433a136.82734218 136.82734218 0 0 1-23.73048191-22.6243998 131.97566523 131.97566523 0 0 1-23.88131101 22.6243998z m-0.20110575 47.15930476v-18.35090226h-47.05875235v18.30062559z"  /><path fill="#000000" d="M698.99066478 361.97509067h45.24879961l-24.86170193 72.02100666a4.0221151 4.0221151 0 0 0 0 1.25691121 9.70335385 9.70335385 0 0 0 2.23730213 7.54146629 9.2257278 9.2257278 0 0 0 6.85016508 2.86575726 14.95724229 14.95724229 0 0 0 5.41728693-1.11865061 6.2845551 6.2845551 0 0 0 2.3881312-1.59627756l113.448796-120.12299412v-0.80442304a9.70335385 9.70335385 0 0 0 0.95525212-9.23829628 8.79837749 8.79837749 0 0 0-7.5414663-4.77626238h-50.30158232l13.07187595-63.73796158a11.47559839 11.47559839 0 0 0-2.38813119-9.55252478 9.41426417 9.41426417 0 0 0-6.850166-3.02915574 15.92506381 15.92506381 0 0 0-6.699336 1.91050515 4.91452209 4.91452209 0 0 0-1.74710664 1.43287817l-96.71930918 114.37891024a8.58470326 8.58470326 0 0 0 0 8.92406962 8.91149932 8.91149932 0 0 0 7.54146721 3.65761088z m149.7860954 332.70436839H627.2838866l-69.00441943-230.88199986a25.49015706 25.49015706 0 0 0-31.862697-16.89288532 21.29207406 21.29207406 0 0 0-4.77626236 1.91050513 25.49015706 25.49015706 0 0 0-15.93763231 15.92506382l-68.0365979 223.8432975-38.08440695-106.12100396a9.82904508 9.82904508 0 0 0-0.79185362-1.91050513l-0.95525211-1.91050423-0.99296032-1.54600089-2.38813118-3.19255423a27.23726371 27.23726371 0 0 0-10.83457294-7.32779206 25.33932796 25.33932796 0 0 0-31.87526549 15.93763321L299.68257664 735.00116719h-90.34677013a25.33932796 25.33932796 0 1 0 0 50.66608654h106.43523243a25.66612493 25.66612493 0 0 0 20.73903347-10.19354839 24.43435161 24.43435161 0 0 0 4.93965996-8.28304416L375.474316 667.59302535l36.81492637 102.94101913a25.81695403 25.81695403 0 0 0 22.14677375 15.9250638 27.35038552 27.35038552 0 0 0 6.22170994 0 25.32675858 25.32675858 0 0 0 24.22067647-17.84813743l67.08134579-216.18870938 51.47050955 172.41049521a25.33932796 25.33932796 0 0 0 12.11662294 14.50475412 24.67316464 24.67316464 0 0 0 14.96981169 4.77626238h238.26006768a25.81695403 25.81695403 0 0 0 22.46100131-10.99797233 25.49015706 25.49015706 0 0 0 0-25.65355554 25.81695403 25.81695403 0 0 0-22.46100131-12.74507808z m0 0"  /><path fill="#000000" d="M851.9567459 46.16360759H173.63953166C103.36563165 46.16360759 46.16360759 116.11071062 46.16360759 201.99544596v564.35308492c0 86.08584108 57.20202406 156.02037474 127.47592407 156.02037474H305.08729418v55.45491739h384.33827735v-55.45491739h162.53117437c70.27390002 0 127.47592407-69.93453365 127.47592315-155.98266748v-564.3530849c0-85.88473533-57.69221952-155.85697625-127.47592315-155.85697625z m76.67157693 720.21006115c-0.47762605 51.78473714-34.89185181 94.16777949-76.67157693 94.16777951H173.63953166c-42.38304238 0-76.67157692-41.90541631-76.67157692-93.69015345v-564.85584884c0-51.62133865 34.25082728-93.69015346 76.67157692-93.69015345h678.31721424c42.21964388 0 76.67157692 42.0688148 76.67157693 93.69015345z m0 0"  /></svg>