<?xml version="1.0" standalone="no"?><!DOCTYPE svg PUBLIC "-//W3C//DTD SVG 1.1//EN" "http://www.w3.org/Graphics/SVG/1.1/DTD/svg11.dtd"><svg class="icon" width="64px" height="64.00px" viewBox="0 0 1024 1024" version="1.1" xmlns="http://www.w3.org/2000/svg"><path fill="#000000" d="M890.90691707 283.85985308h-136.24784807a32.92448008 32.92448008 0 0 0-32.961979 32.97447925v27.6495635a367.2316996 367.2316996 0 0 1 114.89818498 37.86190183 288.07045007 288.07045007 0 0 1 88.88609647 65.73646158V316.44683834a32.92448008 32.92448008 0 0 0-32.92448008-32.92448007zM668.69792741 419.49521094a279.17059028 279.17059028 0 1 0 279.17059027 279.17059119c0-154.18506487-124.99802564-279.17059028-279.17059027-279.17059119zM784.85859271 858.32578025l-116.24816431-61.56152756-115.22318046 61.24903233 22.04965233-129.37295637-94.14851373-91.52355474 129.99794683-18.74970371 57.2865952-118.18563335 58.2740801 117.86063786 129.99794684 18.74970462-94.1485128 91.51105451z m0 0M492.86320444 121.43741877h41.07435054V137.41216603H492.86320444zM398.17719924 98.43778228h9.82484527v10.71233092h-9.82484527zM513.4003797 76.50062854a115.18568065 115.18568065 0 0 1-20.88717032 19.74968795h41.59934359a119.41061383 119.41061383 0 0 1-20.71217327-19.74968795zM398.17719924 79.83807606h9.82484527v11.06232509h-9.82484527zM408.00204451 116.69999367h-9.82484527v13.59978504c3.33744752-0.69998924 6.67489415-1.48747655 9.82484527-2.28746414z"  /><path fill="#000000" d="M666.82295685 65.91329553A67.82392905 67.82392905 0 0 0 618.61121851 46.17610783H143.93121514A67.81142879 67.81142879 0 0 0 76.11978637 113.98753664v746.31321249h254.14598574a469.99257652 469.99257652 0 0 1-23.74962488-95.13599769 458.36776036 458.36776036 0 0 1 0-74.39882486h-94.76100305v-32.92448008l92.18604417-0.98748398a368.04418742 368.04418742 0 0 1 94.79850287-203.45928688c108.62328417-113.23571135 288.05795073-110.93574788 288.05794982-110.93574786V113.98753664a67.81142879 67.81142879 0 0 0-19.97468419-48.07424111z m-235.12128663 3.66244212a105.12333981 105.12333981 0 0 1 7.72487755 13.51228695l-6.13740265 4.29993194a115.19818089 115.19818089 0 0 0-7.98737364-13.74978255z m-9.82484525 17.98721597H443.61398205a119.7606089 119.7606089 0 0 0 8.1623707-18.33721014l7.72487845 2.89995437a121.24808456 121.24808456 0 0 1-7.49988129 15.44975602H463.61366581v7.88737528h-17.24972689v1.57497465q0 6.04990457-0.52499216 11.58731725h19.31219478v7.98737362H448.11391063q3.42494561 13.42478797 18.42470913 27.38706742l-5.6999095 6.24990123c-8.94985895-9.29985311-14.83726576-18.42470914-17.6372218-27.49956508-3.5999427 12.49980248-10.08734043 21.67465767-19.39969379 27.82456058l-4.99992117-6.67489507c9.12485602-5.61241141 14.99976353-14.64976845 17.8122189-27.29956841h-16.06224625v-7.97487429h17.28722672q0.39999333-4.7374251 0.52499216-9.73734627v-3.42494563h-16.4997394z m-210.12168079 434.64313505H143.93121514v-69.12390825h67.82392904z m0-135.63535783H143.93121514v-69.12390826h67.82392904z m0-135.63535782H143.93121514v-69.09890869h67.82392904z m2.74995688-109.39827214l-5.26241724-6.84989123c11.41232015-8.4248668 19.22469669-20.44967719 23.52462861-35.89943321h-20.6371745v-8.06237236h28.87454398v6.58739607q-6.31240065 29.21203879-26.49958085 44.22430073z m40.54935929-37.03691469v35.98693128c0 6.13740267-2.89995438 9.29985311-8.59986387 9.29985312H234.86727925l-1.84997097-8.16237072q5.52491242 0.52499216 10.53733384 0.52499124c2.01246781 0 3.07495145-1.31247947 3.07495145-3.74994021V68.96324741h8.42486678v18.16221305a98.19844891 98.19844891 0 0 0 6.41239899 14.83726578 126.12300781 126.12300781 0 0 0 17.89971697-19.48719188l6.76239314 4.99992118a134.11038144 134.11038144 0 0 1-20.89966968 20.88716943 87.58611632 87.58611632 0 0 0 26.0620877 26.58708075l-5.26241635 7.63737856q-21.3246635-17.23722757-30.97451077-38.08689809zM347.36550243 522.20608867h-67.79892945v-69.12390825H347.36550243z m0-135.63535783h-67.79892945v-69.12390826H347.36550243z m0-135.63535782h-67.79892945v-69.09890869H347.36550243z m24.03712055-112.2982256q-21.06216741-19.87468586-29.39953613-44.49929798v55.63662181h-8.59986386V94.06285069a95.41099312 95.41099312 0 0 1-30.27452245 44.93679022l-4.73742509-7.81237654a84.13617112 84.13617112 0 0 0 28.17455564-37.12441369H299.86625267v-7.98737362h33.61196907V69.22574348h8.59986386v16.84973358h34.1619608v7.98737362h-27.49956599q8.29986888 20.92466927 28.43705082 37.29941168z m15.78724994 1.83747071l-2.01246782-7.89987555 4.99992117-0.78748731V79.83807606h-4.64992701v-7.72487845h35.4494407v7.72487845h-4.99992118v45.89927464c1.74997265-0.52499216 3.42494561-1.13748239 5.17491825-1.66247365v8.07487262l-5.17491825 1.57497466v16.58723841h-7.98737453V135.83719138c-6.64989457 1.74997265-13.5872857 3.23744919-20.7871711 4.64992609z m27.99955763 245.43362332v-68.4739182h67.82392904l0.98748491 68.4739182z m0-134.99786801v-69.07390911h67.82392904l0.98748491 69.13640852z m126.81049771-100.88590637h-8.07487262V145.28704198H492.86320444v4.73742509h-8.07487263V113.62504223h57.22409579z m-5.51241308-52.01167861v6.24990124h-46.1617707v-6.43739766a139.07280368 139.07280368 0 0 1-13.94978012 8.74986137l-4.38743093-8.07487262a126.76049764 126.76049764 0 0 0 38.33689483-29.53703338h6.14990292a125.79801323 125.79801323 0 0 0 38.08689806 29.4870342l-4.47492902 7.98737364a137.26033165 137.26033165 0 0 1-13.59978504-8.42486679z m50.2367064 243.45865533c-12.83729731 3.2999477-35.56193837 10.19983901-35.56193836 10.19983811v-32.91197984h67.82392903l0.66248941 16.137245s-20.08718278 3.28744837-32.92448008 6.57489673z m-35.88693295-90.52357053v-69.11140893H618.61121851l0.98748399 69.13640852z"  /></svg>