<?xml version="1.0" standalone="no"?><!DOCTYPE svg PUBLIC "-//W3C//DTD SVG 1.1//EN" "http://www.w3.org/Graphics/SVG/1.1/DTD/svg11.dtd"><svg class="icon" width="64px" height="64.00px" viewBox="0 0 1024 1024" version="1.1" xmlns="http://www.w3.org/2000/svg"><path fill="#000000" d="M165.53832381 972.50305908h203.79951575v-104.81225116L165.53832381 879.32828081v93.17477827zM689.59957779 395.96692953h29.11243079c46.58738959 0 87.33729236 11.64997222 128.09969538 23.28744513 5.82498657 0 5.82498657 5.82498657 11.64997223 5.82498566V145.64252542L730.32448098 40.83027426 305.32549125 192.21741476v34.99991677l384.31158638-122.27470971zM165.53832381 821.10341925l203.79951575-17.46245856v-98.99976483L165.53832381 739.57861322v81.52480603z"  /><path fill="#000000" d="M427.56270113 564.89152824c17.49995838-29.11243078 34.93741737-58.23736181 58.2373609-81.52480603q43.66239651-43.64989625 104.81225119-69.89983429V273.75472012l-116.46222339-64.03734697L49.07610041 355.26702683v617.23603224h58.22486157V390.20444327l320.26173916-98.98726458z"  /><path fill="#000000" d="M165.53832381 675.52876506l203.79951575-40.76240301v-93.16227801L165.53832381 594.00395903v81.52480603zM165.53832381 529.95411089l203.79951575-52.399875v-104.81225116L165.53832381 436.79183287v93.16227802zM427.56270113 861.86582226v110.63723681h93.17477827c-11.64997222-11.64997222-23.28744422-17.49995838-34.93741737-29.11243078-23.29994446-29.11243078-40.76240302-52.41237525-58.2373609-81.52480603zM814.02428169 584.02898251h35.0999169v13.649968h-35.0999169zM741.49945476 579.97899274h-8.39998002v11.62497174c2.84999341-0.59999818 5.69998683-1.24999735 8.39998002-1.94999478zM733.09947474 564.37902906h8.39998002v9.14997843h-8.39998002z"  /><path fill="#000000" d="M538.19993797 611.47891782c-5.81248631 11.64997222-11.62497264 23.23744506-11.62497267 29.11243079l-64.07484772 11.62497174s-5.82498657 0-5.82498566 5.82498657v87.34979171l5.82498566 5.82498655 64.07484771 11.6624725c5.82498657 11.64997222 5.82498657 23.28744422 11.64997226 34.93741643-5.82498657 5.82498657-11.64997222 11.64997222-17.49995839 23.29994447s-11.64997222 17.49995838-17.49995839 23.28744513v11.64997223l58.23736183 58.22486156s11.64997222 5.82498657 11.64997222 0l46.58738868-34.99991676c11.64997222 5.82498657 17.49995838 11.64997222 29.11243079 11.64997222l11.64997314 64.04984815c0 5.82498657 0 5.82498657 5.82498566 5.82498567H747.82443936c5.82498657 0 11.64997222-5.82498657 11.64997225-11.64997224 5.82498657-11.64997222 5.82498657-34.93741737 11.64997221-64.04984724 11.64997222-5.82498657 23.28744422-5.82498657 29.1124308-11.64997314 0 0 52.39987501 40.76240302 58.22486157 40.76240394s17.49995838-5.82498657 34.93741735-23.28744514l34.99991677-34.93741644s-29.11243078-46.58738959-34.99991677-58.23736181c5.82498657-5.82498657 11.64997222-17.49995838 11.64997224-29.11243079l64.02484765-11.58747282s5.82498657 0 5.82498566-5.82498566v-93.17477826l-64.04984723-11.64997315c-5.82498657-11.64997222-5.82498657-23.28744422-11.64997224-34.93741644 5.82498657-5.82498657 11.64997222-11.64997222 17.4999584-23.28744512s11.64997222-17.49995838 17.49995837-23.28744423v-11.64997222c-5.82498657-11.64997222-29.11243078-29.11243078-58.22486158-58.23736183 0 0-11.64997222-5.82498657-11.64997223 0l-46.58738958 34.99991678c-11.64997222-5.82498657-17.49995838-11.64997222-29.11243079-11.64997224l-11.64997223-64.04984724c0-5.82498657 0-5.82498657-5.82498657-5.82498656h-81.54980562c-5.82498657 0-11.64997222 5.82498657-11.64997222 11.64997221-5.82498657 11.64997222-5.82498657 34.93741737-11.64997225 64.04984816-11.64997222 5.82498657-23.28744422 5.82498657-29.11243078 11.64997223l-58.23736181-40.76240302h-5.82498565c-5.82498657 0-17.49995838 5.82498657-34.99991678 23.28744422l-34.93741735 34.99991679z m223.54946845-71.76233007a89.79978632 89.79978632 0 0 1 6.59998365 11.54997298l-5.24998706 3.6749915a98.48726564 98.48726564 0 0 0-6.82498355-11.77497197z m-8.39998003 15.3749638h18.5999555a102.27475661 102.27475661 0 0 0 6.97498378-15.67496243l6.59998365 2.4999938A103.62475323 103.62475323 0 0 1 779.07436499 555.07905129h9.9999761v6.74998389h-14.79996432v1.34999751q0 5.17498739-0.44999884 9.89997593H790.32433844v6.82498355h-14.54996572q2.92499308 11.47497242 15.74996298 23.39994461l-4.87498876 5.32498763c-7.64998161-7.94998115-12.67496969-15.74996301-15.07496426-23.47494426-3.07499239 10.64997436-8.62497991 18.52495584-16.57496015 23.74994332l-4.27499057-5.69998593c7.79998184-4.7999882 12.82496993-12.49996988 15.22496446-23.32494495h-13.74996723v-6.82498354h14.7749647q0.33749937-4.04999069 0.44999887-8.32498037v-2.92499308h-14.07496637z m-31.04992623-6.62498415v-6.59998457h30.29992783v6.59998457h-4.27498968v39.22490637c1.49999683-0.44999885 2.92499308-0.97499739 4.424989-1.42499626v6.89998321l-4.424989 1.3499975v14.1749656h-6.82498355v-12.37497014c-5.69998683 1.49999683-11.62497264 2.77499376-17.77495835 3.97499013l-1.72499579-6.74998389 4.27498966-0.67499785v-44.39989467zM649.074674 560.62903881v-6.82498444h28.74993182v-14.3999655h7.34998207v14.3999655h29.24993077v6.82498444h-23.54994393q7.08748326 17.88745785 24.29994235 31.87492339l-4.99998851 6.24998586q-17.99995732-16.9874592-25.12494042-38.02491v47.49988756h-7.34998206v-47.6248873a81.54980653 81.54980653 0 0 1-25.87493882 38.3999092l-3.99999061-6.64998464a71.89982915 71.89982915 0 0 0 24.07494335-31.72492407z m-72.89982704 40.57490296l-4.49998863-5.84998615c9.74997662-7.19998275 16.42496084-17.49995838 20.09995232-30.67492702H574.07485196v-6.89998321h24.67494156v5.6874866q-5.3749868 24.91244077-22.62494572 37.73740978z m34.64991808-31.64992441v30.74992668c0 5.24998798-2.4999938 7.94998115-7.34998208 7.94998117h-9.89997684l-1.57499649-6.97498377q4.72498854 0.44999885 8.99997912 0.44999885c1.7249958 0 2.62499353-1.12499762 2.62499353-3.2249917v-59.32485962h7.19998276v15.53746338a83.96230042 83.96230042 0 0 0 5.47498693 12.6749697A107.76224382 107.76224382 0 0 0 631.57471562 550.72906196l5.7749865 4.27498968a114.64972768 114.64972768 0 0 1-17.84995801 17.849958 74.87482232 74.87482232 0 0 0 22.27494699 22.72494587l-4.49998865 6.52498399q-18.19995672-14.73746487-26.49993749-32.54992214zM782.82435613 774.51602965c-17.49995838 17.49995838-34.93741737 23.28744422-64.04984814 23.28744512s-46.58738959-5.82498657-64.04984723-23.28744512-23.28744422-40.76240302-23.28744513-64.04984722 5.82498657-46.58738959 23.28744513-64.04984815 34.99991677-23.28744422 64.04984723-23.28744421S765.32439775 628.95387572 782.82435613 646.41633428s23.28744422 34.99991677 23.28744421 64.04984815-5.87498573 46.58738959-23.28744421 64.04984722z m73.19982567-166.0496048H849.07419853v-4.0499907h-34.99991678v4.0499907h-6.89998319v-31.12492588h48.89988332z m6.89998413-37.27491158a117.28722146 117.28722146 0 0 1-11.62497266-7.19998275v5.32498762h-39.44990625v-5.47498786a119.06221734 119.06221734 0 0 1-11.92497128 7.4999823l-3.74999115-6.89998319a108.31224284 108.31224284 0 0 0 32.77492202-25.27493974h5.24998706a107.49974411 107.49974411 0 0 0 32.49992298 25.19994008z"  /><path fill="#000000" d="M733.09947474 548.47906765h8.39998002v9.44997707h-8.39998002zM813.72428306 562.50403393h35.54991486a102.11225706 102.11225706 0 0 1-17.69995779-16.87495969 98.44976582 98.44976582 0 0 1-17.84995707 16.87495969z"  /></svg>